SplineFontDB: 3.0
FontName: Istok-BoldItalic
FullName: Istok Bold Italic
FamilyName: Istok
Weight: Bold
Copyright: (C) 2009-2014 Andrey V. Panov(panov@canopus.iacp.dvo.ru), with Reserved Font Name Istok.
UComments: "2008-10-29: Created."
Version: 1.0.3
ItalicAngle: -13
UnderlinePosition: -204
UnderlineWidth: 102
Ascent: 1548
Descent: 500
InvalidEm: 0
LayerCount: 2
Layer: 0 0 "+BBcEMAQ0BD0EOAQ5 +BD8EOwQwBD0A" 1
Layer: 1 0 "+BB8ENQRABDUENAQ9BDgEOQAA +BD8EOwQwBD0A" 0
XUID: [1021 513 629268104 9940963]
FSType: 0
OS2Version: 0
OS2_WeightWidthSlopeOnly: 0
OS2_UseTypoMetrics: 1
CreationTime: 1225286394
ModificationTime: 1473324286
PfmFamily: 33
TTFWeight: 700
TTFWidth: 5
LineGap: 0
VLineGap: 0
Panose: 2 0 7 3 3 4 3 9 2 4
OS2TypoAscent: 1548
OS2TypoAOffset: 0
OS2TypoDescent: -500
OS2TypoDOffset: 0
OS2TypoLinegap: 410
OS2WinAscent: 1950
OS2WinAOffset: 0
OS2WinDescent: 508
OS2WinDOffset: 0
HheadAscent: 1950
HheadAOffset: 0
HheadDescent: -508
HheadDOffset: 0
OS2FamilyClass: 2048
OS2Vendor: 'PfEd'
Lookup: 258 0 0 "LGC kerning" { "LGC kerning subtable" [307,30,0] } ['kern' ('cyrl' <'dflt' > 'grek' <'dflt' > 'latn' <'dflt' > ) ]
MarkAttachClasses: 1
DEI: 91125
LangName: 1033 "" "" "Bold Italic" "" "" "" "" "" "Andrey V. Panov" "Andrey V. Panov" "" "http://code.google.com/p/istok" "http://code.google.com/u/andrej.panov/" "GNU General Public License with font exception" "http://www.gnu.org/licenses/gpl.html http://www.gnu.org/licenses/gpl-faq.html#FontException"
LangName: 1049 "" "+BBgEQQRCBD4EOgAA" "" "" "" "" "" "" "" "+BBAA. +BBIA. +BB8EMAQ9BD4EMgAA"
Encoding: UnicodeBmp
UnicodeInterp: none
NameList: Adobe Glyph List
DisplaySize: -48
AntiAlias: 1
FitToEm: 1
WinInfo: 8224 16 13
BeginPrivate: 8
BlueValues 47 [-34 0 1050 1070 1422 1423 1434 1468 1476 1496]
OtherBlues 41 [-420 -400 -370 -370 -350 -350 1136 1150]
BlueScale 9 0.0282857
StdHW 5 [200]
StdVW 5 [280]
StemSnapH 45 [164 180 186 196 200 224 236 244 248 256 284]
StemSnapV 29 [230 250 280 292 296 300 312]
ForceBold 4 true

StartChar: dotlessi
Encoding: 305 305 0
Width: 552
GlyphClass: 1
Flags: W
HStem: 0 21G<56 256> 1030 20G<298.333 498>
VStem: 30 495
LayerCount: 2
Back
SplineSet
267 -1 m 2
 244 0 l 1
 178 0 l 1
 153.333333333 4 141 20.3333333333 141 49 c 2
 141 988 l 2
 141 1008 145.166666667 1021.83333333 153.5 1029.5 c 128
 161.833333333 1037.16666667 175 1041 193 1041 c 2
 215 1040 l 1
 254 1040 l 1
 272 1041 l 2
 302 1041 317 1024.33333333 317 991 c 2
 317 70 l 1
 318 50 l 2
 318 28 312.333333333 13.3333333333 301 6 c 1
 300.333333333 6 297.166666667 4.83333333333 291.5 2.5 c 128
 285.833333333 0.166677333333 277.666666667 -0.999989333333 267 -1 c 2
EndSplineSet
Fore
SplineSet
76 0 m 2
 36 0 20.6666666667 20 30 60 c 2
 245 990 l 2
 254.333333333 1030 278.666666667 1050 318 1050 c 2
 478 1050 l 2
 518 1050 533.666666667 1030 525 990 c 2
 310 60 l 2
 300.666666667 20 276 0 236 0 c 2
 76 0 l 2
EndSplineSet
Validated: 524321
EndChar

StartChar: afii10079
Encoding: 1085 1085 1
Width: 1191
GlyphClass: 1
Flags: W
HStem: 0 21G<56 256 696 896> 448 200<446 759> 1030 20G<298.333 498 938.333 1138>
LayerCount: 2
Fore
SplineSet
76 0 m 2
 36 0 20.6666666667 20 30 60 c 2
 245 990 l 2
 254.333333333 1030 278.666666667 1050 318 1050 c 2
 478 1050 l 2
 518 1050 533.666666667 1030 525 990 c 2
 446 648 l 1
 806 648 l 1
 885 990 l 2
 894.333333333 1030 918.666666667 1050 958 1050 c 2
 1118 1050 l 2
 1158 1050 1173.66666667 1030 1165 990 c 2
 950 60 l 2
 940.666666667 20 916 0 876 0 c 2
 716 0 l 2
 676 0 660.666666667 20 670 60 c 2
 759 448 l 1
 399 448 l 1
 310 60 l 2
 300.666666667 20 276 0 236 0 c 2
 76 0 l 2
EndSplineSet
Validated: 524321
EndChar

StartChar: o
Encoding: 111 111 2
Width: 1206
GlyphClass: 1
Flags: W
HStem: -20 196<416.261 669.463> 874 196<538.537 791.739>
VStem: 58 296<237.993 640.902> 854 296<409.098 812.007>
LayerCount: 2
Back
SplineSet
81.2061 525 m 256
 120.453366667 695 195.069 828.333333333 305.053 925 c 128
 415.037 1021.66666667 556.695666667 1070 730.029 1070 c 256
 903.362333333 1070 1022.70266667 1021.66666667 1088.05 925 c 128
 1153.40333333 828.333333333 1166.45666667 695 1127.21 525 c 256
 1087.95666667 355 1013.33933333 221.666666667 903.358 125 c 128
 793.374666667 28.3333333333 651.716333333 -20 478.383 -20 c 256
 305.049666667 -20 185.708 28.3333333333 120.358 125 c 128
 55.0086666667 221.666666667 41.9580333333 355 81.2061 525 c 256
377.206 525 m 256
 347.962666667 398.333333333 346.722666667 308.5 373.486 255.5 c 128
 400.250666667 202.5 450.299666667 176 523.633 176 c 256
 596.966333333 176 659.250666667 202.5 710.486 255.5 c 128
 761.722666667 308.5 801.962666667 398.333333333 831.206 525 c 256
 860.448666667 651.666666667 861.688333333 741.5 834.925 794.5 c 128
 808.161 847.5 758.112333333 874 684.779 874 c 256
 611.445666667 874 549.161 847.5 497.925 794.5 c 128
 446.688333333 741.5 406.448666667 651.666666667 377.206 525 c 256
EndSplineSet
Fore
SplineSet
58 412 m 0
 58 562 113.333333333 709.166666667 224 853.5 c 0
 334.666666667 997.833333333 490 1070 690 1070 c 256
 863.333333333 1070 983.333333333 1027.16666667 1050 941.5 c 0
 1116.66666667 855.833333333 1150 754.666666667 1150 638 c 0
 1150 488 1094.66666667 340.833333333 984 196.5 c 0
 873.333333333 52.1666666667 718 -20 518 -20 c 256
 344.666666667 -20 224.666666667 22.8333333333 158 108.5 c 0
 91.3333333333 194.166666667 58 295.333333333 58 412 c 0
354 387 m 0
 354 320.333333333 370.166666667 268.5 402.5 231.5 c 0
 434.833333333 194.5 479.333333333 176 536 176 c 256
 619.333333333 176 693.166666667 218.833333333 757.5 304.5 c 0
 821.833333333 390.166666667 854 509.666666667 854 663 c 0
 854 729.666666667 837.833333333 781.5 805.5 818.5 c 0
 773.166666667 855.5 728.666666667 874 672 874 c 256
 588.666666667 874 514.833333333 831.166666667 450.5 745.5 c 0
 386.166666667 659.833333333 354 540.333333333 354 387 c 0
EndSplineSet
Validated: 524289
EndChar

StartChar: afii10088
Encoding: 1094 1094 5
Width: 1256
GlyphClass: 1
Flags: HMW
HStem: -350 21G<800.5 975.5> -20 196<295 552.215> 0 200<854 1048> 1030 20G<286.5 506.5 930.5 1150.5>
DStem2: -66.4624 -350 212.915 -350 0.224951 0.97437<667.317 1445.66> 578.595 -350 857.637 -350 0.224951 0.97437<672.047 1445.43> 773.148 -350 1003.15 -350 0.224951 0.97437<42.5848 359.217>
LayerCount: 2
Back
SplineSet
76 0 m 2
 36 0 20.6175 20 29.8525 60 c 2
 244.56 990 l 2
 253.794 1030 278.411 1050 318.411 1050 c 2
 478.411 1050 l 2
 518.411666667 1050 533.794666667 1030 524.56 990 c 2
 342.174 200 l 1
 688.174 200 l 1
 870.56 990 l 2
 879.794666667 1030 904.412 1050 944.412 1050 c 2
 1104.41 1050 l 2
 1144.41 1050 1159.79333333 1030 1150.56 990 c 2
 968.174 200 l 1
 1054.17 200 l 2
 1094.17 200 1109.55333333 180 1100.32 140 c 2
 1001.05 -290 l 2
 991.814 -330 968.862666667 -350 932.196 -350 c 2
 812.196 -350 l 2
 775.529333333 -350 761.813333333 -330 771.048 -290 c 2
 838 0 l 1
 76 0 l 2
EndSplineSet
Fore
SplineSet
115 436 m 2
 243 990 l 2
 252.333333333 1030 276.666666667 1050 316 1050 c 2
 476 1050 l 2
 516.666666667 1050 532.333333333 1030 523 990 c 2
 411 508 l 2
 378.333333333 366.666666667 370 276 386 236 c 128
 402 196 437 176 491 176 c 256
 558.333333333 176 619.333333333 215.833333333 674 295.5 c 128
 728.666666667 375.166666667 772.666666667 488.333333333 806 635 c 2
 887 990 l 2
 896.333333333 1030 920.666666667 1050 960 1050 c 2
 1120 1050 l 2
 1160.66666667 1050 1176.33333333 1030 1167 990 c 2
 1013 325 l 2
 1005.66666667 295 1002 266.666666667 1002 240 c 128
 1002 213.333333333 1017.33333333 200 1048 200 c 2
 1070 200 l 2
 1110 200 1125.33333333 180 1116 140 c 2
 1017 -290 l 2
 1007.66666667 -330 984.666666667 -350 948 -350 c 2
 828 -350 l 2
 791.333333333 -350 777.666666667 -330 787 -290 c 2
 854 0 l 1
 842 0 l 2
 806 0 774.5 10.6666666667 747.5 32 c 128
 720.5 53.3333333333 703 91.6666666667 695 147 c 1
 691 147 l 1
 637.666666667 84.3333333333 586.833333333 40.8333333333 538.5 16.5 c 128
 490.166666667 -7.83333333333 432.666666667 -20 366 -20 c 256
 271.333333333 -20 196.5 15.6666666667 141.5 87 c 128
 86.5 158.333333333 77.6666666667 274.666666667 115 436 c 2
EndSplineSet
Validated: 8912929
EndChar

StartChar: afii10077
Encoding: 1083 1083 7
Width: 1194
GlyphClass: 1
Flags: HMW
HStem: -20 196<-39.5802 208.3> 850 200<675.63 854>
DStem2: 218.237 -20 444.47 -20 0.224951 0.97437<269.747 929.477> 653.531 -20 933.531 -20 0.224951 0.97437<74.6963 892.798>
LayerCount: 2
Back
SplineSet
-58.8467 -8 m 256
 -77.5127 0.666666666667 -82.6907666667 14.3333333333 -74.3809 33 c 2
 -20.5225 158 l 2
 -11.5973466667 179.333333333 1.32648666667 187.666666667 18.249 183 c 256
 35.8382 178.333333333 51.9661333333 176 66.6328 176 c 256
 131.2996 176 187.79 209.166666667 236.104 275.5 c 128
 284.418 341.833333333 339.280666667 508 400.692 774 c 2
 450.56 990 l 2
 459.794 1030 484.411333333 1050 524.412 1050 c 2
 1120.41 1050 l 2
 1160.41 1050 1175.79333333 1030 1166.56 990 c 2
 951.853 60 l 2
 942.617666667 20 918 0 878 0 c 2
 718 0 l 2
 678 0 662.617666667 20 671.853 60 c 2
 854.238 850 l 1
 648.238 850 l 1
 618.918 723 l 2
 557.044666667 455 485.654 264.166666667 404.746 150.5 c 128
 323.837333333 36.8333333333 203.382933333 -20 43.3828 -20 c 256
 -7.28386666667 -20 -41.3603666667 -16 -58.8467 -8 c 256
EndSplineSet
Fore
SplineSet
-52 -5 m 256
 -68 2.33333333333 -73 16 -67 36 c 2
 -32 158 l 2
 -26 179.333333333 -13 187.666666667 7 183 c 256
 26.3333333333 178.333333333 46.3333333333 176 67 176 c 256
 161 176 224.333333333 211.833333333 257 283.5 c 128
 289.666666667 355.166666667 332 493.333333333 384 698 c 2
 400 761 l 2
 426 863.666666667 468.833333333 937.5 528.5 982.5 c 128
 588.166666667 1027.5 687 1050 825 1050 c 2
 1120 1050 l 2
 1160.66666667 1050 1176.33333333 1030 1167 990 c 2
 952 60 l 2
 942.666666667 20 918 0 878 0 c 2
 718 0 l 2
 678 0 662.666666667 20 672 60 c 2
 854 850 l 1
 828 850 l 2
 749.333333333 850 698.166666667 843.166666667 674.5 829.5 c 128
 650.833333333 815.833333333 632.333333333 782.666666667 619 730 c 2
 604 671 l 2
 528 373 457 183.333333333 391 102 c 128
 325 20.6666666667 212.333333333 -20 53 -20 c 256
 5 -20 -30 -15 -52 -5 c 256
EndSplineSet
Validated: 524321
EndChar

StartChar: p
Encoding: 112 112 8
Width: 1192
GlyphClass: 1
Flags: HMW
HStem: -400 21G<-46 174> -20 196<417.761 674.097> 874 196<624.046 789.936> 1030 20G<288.5 502>
VStem: 833 296<402.044 826.007>
DStem2: -75.8521 -400 204.148 -400 0.224951 0.97437<54.1702 569.672 742.724 1265.34 1408.59 1496.82>
LayerCount: 2
Back
SplineSet
76 0 m 6
 36 0 20.6666666667 20 30 60 c 6
 245 990 l 6
 254.333333333 1030 278.666666667 1050 318 1050 c 6
 478 1050 l 6
 518 1050 533.666666667 1030 525 990 c 6
 310 60 l 6
 300.666666667 20 276 0 236 0 c 6
 76 0 l 6
-16 -400 m 2
 -56 -400 -71.3333333333 -380 -62 -340 c 2
 245 990 l 2
 254.333333333 1030 278.666666667 1050 318 1050 c 2
 476 1050 l 2
 509.333333333 1050 523 1030 517 990 c 2
 507 932 l 1
 511 932 l 1
 559 989.333333333 606.333333333 1026.66666667 653 1044 c 128
 699.666666667 1061.33333333 753 1070 813 1070 c 256
 969.666666667 1070 1067.33333333 1015.83333333 1106 907.5 c 128
 1144.66666667 799.166666667 1147 671.666666667 1113 525 c 256
 1079 378.333333333 1017.66666667 250.833333333 929 142.5 c 128
 840.333333333 34.1666666667 717.666666667 -20 561 -20 c 256
 501 -20 451.666666667 -11.3333333333 413 6 c 128
 374.333333333 23.3333333333 344.333333333 60.6666666667 323 118 c 1
 319 118 l 1
 315.666666667 91.3333333333 311 64.6666666667 305 38 c 2
 218 -340 l 2
 208.666666667 -380 184 -400 144 -400 c 2
 -16 -400 l 2
407 480 m 2
 386.333333333 390 387.333333333 316.833333333 410 260.5 c 128
 432.666666667 204.166666667 469 176 519 176 c 256
 609 176 675 207.5 717 270.5 c 128
 759 333.5 792.333333333 418.333333333 817 525 c 256
 841.666666667 631.666666667 847.5 716.5 834.5 779.5 c 128
 821.5 842.5 770 874 680 874 c 256
 630 874 580.666666667 845.833333333 532 789.5 c 128
 483.333333333 733.166666667 448.666666667 660 428 570 c 2
 407 480 l 2
EndSplineSet
Fore
SplineSet
-16 -400 m 2
 -56 -400 -71.3333333333 -380 -62 -340 c 2
 245 990 l 2
 254.333333333 1030 278.666666667 1050 318 1050 c 2
 476 1050 l 2
 510.666666667 1050 524.333333333 1030 517 990 c 2
 503 912 l 1
 507 912 l 1
 555 969.333333333 598 1010 636 1034 c 128
 674 1058 717.333333333 1070 766 1070 c 256
 898 1070 991.5 1026.66666667 1046.5 940 c 128
 1101.5 853.333333333 1129 757 1129 651 c 256
 1129 475.666666667 1075.5 320 968.5 184 c 128
 861.5 48 737.333333333 -20 596 -20 c 256
 548 -20 498 -13.6666666667 446 -1 c 128
 394 11.6666666667 351.333333333 44 318 96 c 1
 314 96 l 1
 310.666666667 68 306 41.3333333333 300 16 c 2
 218 -340 l 2
 208.666666667 -380 184 -400 144 -400 c 2
 -16 -400 l 2
381 370 m 17
 381 306 392.166666667 257.666666667 414.5 225 c 128
 436.833333333 192.333333333 481.333333333 176 548 176 c 256
 638 176 708 226.666666667 758 328 c 128
 808 429.333333333 833 543.333333333 833 670 c 256
 833 739.333333333 820.166666667 790.666666667 794.5 824 c 128
 768.833333333 857.333333333 733.333333333 874 688 874 c 256
 641.333333333 874 591.166666667 844.333333333 537.5 785 c 128
 483.833333333 725.666666667 444 640 418 528 c 2
 381 370 l 17
EndSplineSet
Validated: 8912929
EndChar

StartChar: afii10086
Encoding: 1092 1092 12
Width: 1738
GlyphClass: 1
Flags: W
HStem: -400 21G<557 757> -20 196<385.715 540.921 1017.53 1223.29> 874 196<517.709 723.474 1200.08 1355.29> 1456 20G<990 1190>
VStem: 63 296<217.124 641.043> 1382 296<408.957 832.876>
LayerCount: 2
Back
SplineSet
81.2061 525 m 256
 117.375366667 681.666666667 183.388 811.666666667 279.244 915 c 128
 375.100666667 1018.33333333 489.695666667 1070 623.029 1070 c 256
 671.695666667 1070 712.220666667 1062.16666667 744.604 1046.5 c 128
 776.986666667 1030.83333333 803.893 994.333333333 825.323 937 c 1
 829.323 937 l 1
 832.813666667 963.666666667 837.637 990.333333333 843.793 1017 c 2
 935.909 1416 l 2
 945.144333333 1456 969.761333333 1476 1009.76 1476 c 2
 1169.76 1476 l 2
 1209.76 1476 1225.14333333 1456 1215.91 1416 c 2
 1123.79 1017 l 2
 1117.63666667 990.333333333 1110.14666667 963.666666667 1101.32 937 c 1
 1105.32 937 l 1
 1153.22666667 994.333333333 1196.98666667 1030.83333333 1236.6 1046.5 c 128
 1276.22 1062.16666667 1320.36333333 1070 1369.03 1070 c 256
 1502.36333333 1070 1593.1 1018.33333333 1641.24 915 c 128
 1689.38666667 811.666666667 1695.37666667 681.666666667 1659.21 525 c 256
 1623.03666667 368.333333333 1557.02333333 238.333333333 1461.17 135 c 128
 1365.31 31.6666666667 1250.71333333 -20 1117.38 -20 c 256
 1068.71333333 -20 1028.18933333 -12.1666666667 995.808 3.5 c 128
 963.424666667 19.1666666667 936.518 55.6666666667 915.088 113 c 1
 911.088 113 l 1
 907.598666667 86.3333333333 902.775666667 59.6666666667 896.619 33 c 2
 810.505 -340 l 2
 801.269666667 -380 776.652 -400 736.652 -400 c 2
 576.652 -400 l 2
 536.652 -400 521.269666667 -380 530.505 -340 c 2
 616.619 33 l 2
 622.775666667 59.6666666667 630.265333333 86.3333333333 639.088 113 c 1
 635.088 113 l 1
 587.184666667 55.6666666667 543.424666667 19.1666666667 503.808 3.5 c 128
 464.191333333 -12.1666666667 420.049666667 -20 371.383 -20 c 256
 238.049666667 -20 147.311 31.6666666667 99.167 135 c 128
 51.0237333333 238.333333333 45.0367666667 368.333333333 81.2061 525 c 256
377.206 525 m 256
 353.349333333 421.666666667 347.123 337.666666667 358.527 273 c 128
 369.931 208.333333333 408.966333333 176 475.633 176 c 256
 526.966333333 176 575.764 206.166666667 622.026 266.5 c 128
 668.288666667 326.833333333 700.500666667 396.333333333 718.662 475 c 2
 741.749 575 l 2
 759.910333333 653.666666667 759.789 723.166666667 741.385 783.5 c 128
 722.981 843.833333333 688.112333333 874 636.779 874 c 256
 570.112333333 874 516.147666667 841.666666667 474.885 777 c 128
 433.621666667 712.333333333 401.062 628.333333333 377.206 525 c 256
998.662 475 m 2
 980.500666667 396.333333333 980.622 326.833333333 999.026 266.5 c 128
 1017.42866667 206.166666667 1052.29666667 176 1103.63 176 c 256
 1170.29666667 176 1224.26333333 208.333333333 1265.53 273 c 128
 1306.79 337.666666667 1339.35 421.666666667 1363.21 525 c 256
 1387.06333333 628.333333333 1393.28666667 712.333333333 1381.88 777 c 128
 1370.48 841.666666667 1331.44666667 874 1264.78 874 c 256
 1213.44666667 874 1164.64666667 843.833333333 1118.38 783.5 c 128
 1072.12 723.166666667 1039.91 653.666666667 1021.75 575 c 2
 998.662 475 l 2
EndSplineSet
Fore
SplineSet
63 414 m 256
 63 556 115.666666667 700.833333333 221 848.5 c 0
 326.333333333 996.166666667 449.666666667 1070 591 1070 c 256
 635 1070 678.333333333 1064 721 1052 c 0
 763.666666667 1040 798.666666667 1001.66666667 826 937 c 1
 835 937 l 1
 835 964.333333333 838 991 844 1017 c 2
 936 1416 l 2
 945.333333333 1456 970 1476 1010 1476 c 2
 1170 1476 l 2
 1210 1476 1225.33333333 1456 1216 1416 c 2
 1121 1004 l 2
 1115 978 1105.66666667 951.333333333 1093 924 c 1
 1102 924 l 1
 1146.66666667 984.666666667 1189.16666667 1024.16666667 1229.5 1042.5 c 0
 1269.83333333 1060.83333333 1307.66666667 1070 1343 1070 c 256
 1463.66666667 1070 1549.66666667 1031.66666667 1601 955 c 0
 1652.33333333 878.333333333 1678 772 1678 636 c 256
 1678 494 1625.33333333 349.166666667 1520 201.5 c 0
 1414.66666667 53.8333333333 1291.33333333 -20 1150 -20 c 256
 1106 -20 1062.66666667 -14 1020 -2 c 0
 977.333333333 10 942.333333333 48.3333333333 915 113 c 1
 906 113 l 1
 906 85.6666666667 903 59 897 33 c 2
 811 -340 l 2
 801.666666667 -380 777 -400 737 -400 c 2
 577 -400 l 2
 537 -400 521.666666667 -380 531 -340 c 2
 620 46 l 1
 648 126 l 1
 639 126 l 1
 594.333333333 65.3333333333 551.833333333 25.8333333333 511.5 7.5 c 0
 471.166666667 -10.8333333333 433.333333333 -20 398 -20 c 256
 277.333333333 -20 191.333333333 18.3333333333 140 95 c 0
 88.6666666667 171.666666667 63 278 63 414 c 256
359 396 m 256
 359 326.666666667 365.666666667 272.666666667 379 234 c 0
 392.333333333 195.333333333 419.333333333 176 460 176 c 256
 515.333333333 176 568.833333333 210.666666667 620.5 280 c 0
 672.166666667 349.333333333 706.333333333 420.333333333 723 493 c 2
 764 672 l 17
 764 732 753.166666667 780.666666667 731.5 818 c 0
 709.833333333 855.333333333 676 874 630 874 c 256
 550.666666667 874 485.666666667 822 435 718 c 0
 384.333333333 614 359 506.666666667 359 396 c 256
977 378 m 17
 977 318 987.833333333 269.333333333 1009.5 232 c 0
 1031.16666667 194.666666667 1065 176 1111 176 c 256
 1190.33333333 176 1255.33333333 228 1306 332 c 0
 1356.66666667 436 1382 543.333333333 1382 654 c 256
 1382 723.333333333 1375.33333333 777.333333333 1362 816 c 0
 1348.66666667 854.666666667 1321.66666667 874 1281 874 c 256
 1225.66666667 874 1172.16666667 839.333333333 1120.5 770 c 0
 1068.83333333 700.666666667 1034.66666667 629.666666667 1018 557 c 2
 977 378 l 17
EndSplineSet
Validated: 524321
EndChar

StartChar: afii10094
Encoding: 1100 1100 13
Width: 1062
VWidth: 1000
GlyphClass: 1
Flags: HMW
HStem: -20 196<391.145 618.82> 468 196<470.131 721.5> 1030 20G<288.5 508.5>
VStem: 670 296<226.205 443.795>
DStem2: 11.881 -20 292.394 -20 0.224951 0.97437<686.141 1106.95>
LayerCount: 2
Back
SplineSet
76 0 m 2
 36 0 20.6666666667 20 30 60 c 2
 245 990 l 2
 254.333333333 1030 278.666666667 1050 318 1050 c 2
 478 1050 l 2
 518 1050 533.666666667 1030 525 990 c 2
 446 648 l 1
 633 648 l 2
 793 648 890.333333333 615.666666667 925 551 c 128
 959.666666667 486.333333333 967 410.666666667 947 324 c 256
 927 237.333333333 884.666666667 161.666666667 820 97 c 128
 755.333333333 32.3333333333 643 0 483 0 c 2
 76 0 l 2
341 196 m 1
 410 196 l 2
 490 196 547.5 205.666666667 582.5 225 c 128
 617.5 244.333333333 640.333333333 277.333333333 651 324 c 256
 661.666666667 370.666666667 654 403.666666667 628 423 c 128
 602 442.333333333 549 452 469 452 c 2
 400 452 l 1
 341 196 l 1
EndSplineSet
Fore
SplineSet
110 405 m 6
 245 990 l 6
 254.333333333 1030 278.666666667 1050 318 1050 c 2
 478 1050 l 2
 518.666666667 1050 534.333333333 1030 525 990 c 6
 451 667 l 6
 443.666666667 635.666666667 436 609 428 587 c 5
 433 587 l 5
 455 614.333333333 488.5 634 533.5 646 c 132
 578.5 658 619.666666667 664 657 664 c 260
 743 664 816 636 876 580 c 132
 936 524 966 450.333333333 966 359 c 260
 966 267.666666667 924.666666667 181.666666667 842 101 c 132
 759.333333333 20.3333333333 629 -20 451 -20 c 260
 301 -20 200.833333333 25.3333333333 150.5 116 c 132
 100.166666667 206.666666667 86.6666666667 303 110 405 c 6
373 336 m 260
 361 285.333333333 366.833333333 246 390.5 218 c 132
 414.166666667 190 446.333333333 176 487 176 c 260
 544.333333333 176 589.166666667 191.333333333 621.5 222 c 132
 653.833333333 252.666666667 670 298 670 358 c 260
 670 396 658.5 423.833333333 635.5 441.5 c 132
 612.5 459.166666667 587 468 559 468 c 260
 515.666666667 468 476.5 457.333333333 441.5 436 c 132
 406.5 414.666666667 383.666666667 381.333333333 373 336 c 260
EndSplineSet
Validated: 524321
EndChar

StartChar: x
Encoding: 120 120 14
Width: 1046
GlyphClass: 1
Flags: HMW
HStem: 0 21G<-75.5 214.5 664 895> 1030 20G<213 445.5 815 1104.5>
LayerCount: 2
Back
SplineSet
233 0 m 25
 1144.41 1050 l 1049
-115 0 m 25
 796.412 1050 l 1049
464.411 1050 m 25
 937 0 l 1049
172.411 1050 m 25
 645 0 l 1049
EndSplineSet
Fore
SplineSet
-33 0 m 2
 -89.6666666667 0 -96 24.3333333333 -52 73 c 2
 402 572 l 1
 205 977 l 2
 181 1025.66666667 198.333333333 1050 257 1050 c 2
 423 1050 l 2
 453 1050 472.666666667 1036.66666667 482 1010 c 2
 572 751 l 1
 762 1010 l 2
 781.333333333 1036.66666667 807 1050 839 1050 c 2
 1061 1050 l 2
 1119 1050 1125.66666667 1025.66666667 1081 977 c 2
 680 539 l 1
 904 73 l 2
 927.333333333 24.3333333333 909.666666667 0 851 0 c 2
 686 0 l 2
 656.666666667 0 637 13.3333333333 627 40 c 2
 508 358 l 1
 268 40 l 2
 248 13.3333333333 222.333333333 0 191 0 c 2
 -33 0 l 2
EndSplineSet
Validated: 524321
EndChar

StartChar: c
Encoding: 99 99 15
Width: 1086
GlyphClass: 1
Flags: W
HStem: -20 196<411.388 679.141> 874 196<537.269 790.398>
VStem: 58 296<234.292 644.779>
LayerCount: 2
Back
SplineSet
58 412 m 4
 58 562 113.333333333 709.166666667 224 853.5 c 132
 334.666666667 997.833333333 490 1070 690 1070 c 260
 863.333333333 1070 983.333333333 1027.16666667 1050 941.5 c 132
 1116.66666667 855.833333333 1150 754.666666667 1150 638 c 4
 1150 488 1094.66666667 340.833333333 984 196.5 c 132
 873.333333333 52.1666666667 718 -20 518 -20 c 260
 344.666666667 -20 224.666666667 22.8333333333 158 108.5 c 132
 91.3333333333 194.166666667 58 295.333333333 58 412 c 4
354 387 m 4
 354 320.333333333 370.166666667 268.5 402.5 231.5 c 132
 434.833333333 194.5 479.333333333 176 536 176 c 260
 619.333333333 176 693.166666667 218.833333333 757.5 304.5 c 132
 821.833333333 390.166666667 854 509.666666667 854 663 c 4
 854 729.666666667 837.833333333 781.5 805.5 818.5 c 132
 773.166666667 855.5 728.666666667 874 672 874 c 260
 588.666666667 874 514.833333333 831.166666667 450.5 745.5 c 132
 386.166666667 659.833333333 354 540.333333333 354 387 c 4
EndSplineSet
Fore
SplineSet
58 412 m 256
 58 566.666666667 114 715 226 857 c 0
 338 999 487 1070 673 1070 c 256
 772.333333333 1070 848 1055 900 1025 c 0
 952 995 995 955.333333333 1029 906 c 256
 1048.33333333 878 1042.66666667 853.666666667 1012 833 c 282
 903 760 l 274
 877 742.666666667 851.333333333 752.666666667 826 790 c 256
 812 810.666666667 793 829.833333333 769 847.5 c 0
 745 865.166666667 709.666666667 874 663 874 c 256
 587.666666667 874 517.333333333 832 452 748 c 0
 386.666666667 664 354 543.666666667 354 387 c 256
 354 317 370.333333333 264.333333333 403 229 c 0
 435.666666667 193.666666667 480 176 536 176 c 256
 588 176 630.5 187 663.5 209 c 0
 696.5 231 728.666666667 261.666666667 760 301 c 256
 784.666666667 331.666666667 811.666666667 333.333333333 841 306 c 266
 922 231 l 282
 948 207 947.333333333 177.666666667 920 143 c 256
 894 109.666666667 848.166666667 74.1666666667 782.5 36.5 c 0
 716.833333333 -1.16666666667 628.666666667 -20 518 -20 c 256
 344.666666667 -20 224.666666667 22.8333333333 158 108.5 c 0
 91.3333333333 194.166666667 58 295.333333333 58 412 c 256
EndSplineSet
Validated: 524321
EndChar

StartChar: afii10068
Encoding: 1075 1075 16
Width: 980
GlyphClass: 1
Flags: W
HStem: -20 196<347.531 644.889> 874 196<335.021 625.613>
VStem: 33 296<195.369 370.967> 635 280<696.871 864.158>
LayerCount: 2
Fore
SplineSet
33 253 m 256
 33 305 42.1666666667 348.833333333 60.5 384.5 c 0
 78.8333333333 420.166666667 109.166666667 454.333333333 151.5 487 c 0
 193.833333333 519.666666667 243 547.333333333 299 570 c 256
 351.666666667 591.333333333 398.5 610.333333333 439.5 627 c 0
 480.5 643.666666667 517 659 549 673 c 256
 573.666666667 683.666666667 592.5 696.166666667 605.5 710.5 c 0
 618.5 724.833333333 626.666666667 738.166666667 630 750.5 c 0
 633.333333333 762.833333333 635 777.333333333 635 794 c 256
 635 808 631.166666667 821.5 623.5 834.5 c 0
 615.833333333 847.5 605 857.333333333 591 864 c 0
 577 870.666666667 554 874 522 874 c 256
 486.666666667 874 450.5 869 413.5 859 c 0
 376.5 849 342.333333333 834.666666667 311 816 c 256
 277 795.333333333 251.333333333 798 234 824 c 258
 181 904 l 258
 164.333333333 929.333333333 168.333333333 950.666666667 193 968 c 256
 234.333333333 997.333333333 291.666666667 1021.66666667 365 1041 c 0
 438.333333333 1060.33333333 512.666666667 1070 588 1070 c 256
 661.333333333 1070 722.333333333 1060 771 1040 c 0
 819.666666667 1020 855.833333333 988.666666667 879.5 946 c 0
 903.166666667 903.333333333 915 855 915 801 c 256
 915 748.333333333 904.833333333 703.333333333 884.5 666 c 0
 864.166666667 628.666666667 837 597.333333333 803 572 c 0
 769 546.666666667 718.333333333 520 651 492 c 256
 607 473.333333333 568.833333333 457.666666667 536.5 445 c 0
 504.166666667 432.333333333 468.333333333 417.333333333 429 400 c 256
 399 386.666666667 377.333333333 374.666666667 364 364 c 0
 350.666666667 353.333333333 341.5 341.166666667 336.5 327.5 c 0
 331.5 313.833333333 329 298.666666667 329 282 c 256
 329 266.666666667 332.833333333 250.333333333 340.5 233 c 0
 348.166666667 215.666666667 361.333333333 201.833333333 380 191.5 c 0
 398.666666667 181.166666667 427 176 465 176 c 256
 501.666666667 176 547.833333333 185.666666667 603.5 205 c 0
 659.166666667 224.333333333 702.333333333 243.333333333 733 262 c 256
 767.666666667 282.666666667 791.666666667 282.666666667 805 262 c 258
 863 174 l 258
 886.333333333 138.666666667 884.333333333 113.333333333 857 98 c 256
 792.333333333 60.6666666667 724.833333333 31.6666666667 654.5 11 c 0
 584.166666667 -9.66666666667 507 -20 423 -20 c 256
 315.666666667 -20 236.5 -5.66666666667 185.5 23 c 0
 134.5 51.6666666667 96.3333333333 84.6666666667 71 122 c 0
 45.6666666667 159.333333333 33 203 33 253 c 256
EndSplineSet
Validated: 524321
EndChar

StartChar: n
Encoding: 110 110 18
Width: 1200
GlyphClass: 1
Flags: HMW
HStem: 0 21G<46 266 696 916> 874 196<635.994 905.5> 1030 20G<288.5 507>
DStem2: 16.1479 0 296.148 0 0.224951 0.97437<54.1702 834.739 998.368 1086.08> 666.148 0 946.148 0 0.224951 0.97437<54.1702 832.507>
LayerCount: 2
Back
SplineSet
76 0 m 2
 36 0 20.6666666667 20 30 60 c 2
 245 990 l 2
 254.333333333 1030 278.666666667 1050 318 1050 c 2
 476 1050 l 2
 516 1050 531.666666667 1030 523 990 c 2
 509 932 l 1
 513 932 l 1
 555.666666667 984.666666667 603 1020.83333333 655 1040.5 c 128
 707 1060.16666667 766.333333333 1070 833 1070 c 256
 937 1070 1015.5 1037.33333333 1068.5 972 c 128
 1121.5 906.666666667 1128 787.333333333 1088 614 c 2
 960 60 l 2
 950.666666667 20 926 0 886 0 c 2
 726 0 l 2
 686 0 670.666666667 20 680 60 c 2
 791 542 l 2
 824.333333333 687.333333333 835.5 779 824.5 817 c 128
 813.5 855 775 874 709 874 c 256
 639 874 580 846.833333333 532 792.5 c 128
 484 738.166666667 440.333333333 625.333333333 401 454 c 2
 310 60 l 2
 300.666666667 20 276 0 236 0 c 2
 76 0 l 2
EndSplineSet
Fore
SplineSet
76 0 m 2
 36 0 20.6666666667 20 30 60 c 2
 245 990 l 2
 254.333333333 1030 278.666666667 1050 318 1050 c 2
 476 1050 l 2
 517.333333333 1050 533 1030 523 990 c 2
 504 912 l 1
 508 912 l 1
 561.333333333 974.666666667 612.166666667 1016.66666667 660.5 1038 c 128
 708.833333333 1059.33333333 766.333333333 1070 833 1070 c 256
 929.666666667 1070 1005.66666667 1034.33333333 1061 963 c 128
 1116.33333333 891.666666667 1125.33333333 775.333333333 1088 614 c 2
 960 60 l 2
 950.666666667 20 926 0 886 0 c 2
 726 0 l 2
 686 0 670.666666667 20 680 60 c 2
 791 542 l 2
 823.666666667 683.333333333 832 774 816 814 c 128
 800 854 764.333333333 874 709 874 c 256
 639 874 577 835 523 757 c 128
 469 679 425.666666667 568 393 424 c 2
 310 60 l 2
 300.666666667 20 276 0 236 0 c 2
 76 0 l 2
EndSplineSet
Validated: 8912929
EndChar

StartChar: afii10090
Encoding: 1096 1096 19
Width: 1750
GlyphClass: 1
Flags: W
HStem: -20 196<316 554.255 939.333 1120.26> 0 21G<1257 1454.67> 1030 20G<297 497 897 1097 1497 1697>
LayerCount: 2
Fore
SplineSet
118 450 m 2xa0
 243 990 l 2
 252.333333333 1030 277 1050 317 1050 c 2
 477 1050 l 2
 517 1050 532.333333333 1030 523 990 c 2
 417 530 l 2
 388.333333333 404.666666667 377.333333333 314.333333333 384 259 c 0
 390.666666667 203.666666667 419 176 469 176 c 256
 515.666666667 176 564.666666667 203.166666667 616 257.5 c 0
 667.333333333 311.833333333 716 438.666666667 762 638 c 2
 843 990 l 2
 852.333333333 1030 877 1050 917 1050 c 2
 1077 1050 l 2
 1117 1050 1132.33333333 1030 1123 990 c 2
 1022 550 l 2
 990.666666667 413.333333333 978.166666667 316.833333333 984.5 260.5 c 0
 990.833333333 204.166666667 1019 176 1069 176 c 256xa0
 1115 176 1166 212.666666667 1222 286 c 0
 1278 359.333333333 1324.66666667 476.666666667 1362 638 c 2
 1443 990 l 2
 1452.33333333 1030 1477 1050 1517 1050 c 2
 1677 1050 l 2
 1717 1050 1732.33333333 1030 1723 990 c 2
 1508 60 l 2
 1498.66666667 20 1474.33333333 0 1435 0 c 2
 1277 0 l 2x60
 1237 0 1221.33333333 20 1230 60 c 2
 1251 150 l 1
 1247 150 l 1
 1216.33333333 104 1177 64.1666666667 1129 30.5 c 0
 1081 -3.16666666667 1031.66666667 -20 981 -20 c 256
 897.666666667 -20 837.833333333 3.83333333333 801.5 51.5 c 0
 765.166666667 99.1666666667 747 152.333333333 747 211 c 1
 743 211 l 1
 694.333333333 136.333333333 640 79.1666666667 580 39.5 c 0
 520 -0.166666666667 447 -20 361 -20 c 256
 271 -20 198 15.3333333333 142 86 c 0
 86 156.666666667 78 278 118 450 c 2xa0
EndSplineSet
Validated: 8912929
EndChar

StartChar: afii10091
Encoding: 1097 1097 20
Width: 1812
GlyphClass: 1
Flags: HMW
HStem: -350 21G<1356.5 1531.5> -20 196<293.5 554.255 918.5 1120.26> 0 200<1410 1604> 1030 20G<287 507 887 1107 1487 1707>
DStem2: -66.6946 -350 213.836 -350 0.224951 0.97437<666.646 1445.68> 533.902 -350 814.219 -350 0.224951 0.97437<663.955 1445.58> 1133.9 -350 1413.64 -350 0.224951 0.97437<673.161 1445.58> 1329.15 -350 1559.15 -350 0.224951 0.97437<42.5848 359.217>
LayerCount: 2
Back
SplineSet
118 450 m 6
 243 990 l 6
 252.333333333 1030 277 1050 317 1050 c 6
 477 1050 l 6
 517 1050 532.333333333 1030 523 990 c 6
 417 530 l 6
 388.333333333 404.666666667 377.333333333 314.333333333 384 259 c 132
 390.666666667 203.666666667 419 176 469 176 c 260
 515.666666667 176 564.666666667 203.166666667 616 257.5 c 132
 667.333333333 311.833333333 716 438.666666667 762 638 c 6
 843 990 l 6
 852.333333333 1030 877 1050 917 1050 c 6
 1077 1050 l 6
 1117 1050 1132.33333333 1030 1123 990 c 6
 1022 550 l 6
 990.666666667 413.333333333 978.166666667 316.833333333 984.5 260.5 c 132
 990.833333333 204.166666667 1019 176 1069 176 c 260
 1115 176 1166 212.666666667 1222 286 c 132
 1278 359.333333333 1324.66666667 476.666666667 1362 638 c 6
 1443 990 l 6
 1452.33333333 1030 1477 1050 1517 1050 c 6
 1677 1050 l 6
 1717 1050 1732.33333333 1030 1723 990 c 6
 1508 60 l 6
 1498.66666667 20 1474.33333333 0 1435 0 c 6
 1277 0 l 6
 1237 0 1221.33333333 20 1230 60 c 6
 1251 150 l 5
 1247 150 l 5
 1216.33333333 104 1177 64.1666666667 1129 30.5 c 132
 1081 -3.16666666667 1031.66666667 -20 981 -20 c 260
 897.666666667 -20 837.833333333 3.83333333333 801.5 51.5 c 132
 765.166666667 99.1666666667 747 152.333333333 747 211 c 5
 743 211 l 5
 694.333333333 136.333333333 640 79.1666666667 580 39.5 c 132
 520 -0.166666666667 447 -20 361 -20 c 260
 271 -20 198 15.3333333333 142 86 c 132
 86 156.666666667 78 278 118 450 c 6
EndSplineSet
Fore
SplineSet
118 450 m 2
 243 990 l 2
 252.333333333 1030 277 1050 317 1050 c 2
 477 1050 l 2
 517 1050 532.333333333 1030 523 990 c 2
 417 530 l 2
 388.333333333 405.333333333 377.333333333 315.166666667 384 259.5 c 128
 390.666666667 203.833333333 419 176 469 176 c 256
 515.666666667 176 564.666666667 203.333333333 616 258 c 128
 667.333333333 312.666666667 716 439.333333333 762 638 c 2
 843 990 l 2
 852.333333333 1030 877 1050 917 1050 c 2
 1077 1050 l 2
 1117 1050 1132.33333333 1030 1123 990 c 2
 1022 550 l 2
 990.666666667 413.333333333 978.166666667 316.833333333 984.5 260.5 c 128
 990.833333333 204.166666667 1019 176 1069 176 c 256
 1115 176 1166 212.833333333 1222 286.5 c 128
 1278 360.166666667 1324.66666667 477.333333333 1362 638 c 2
 1443 990 l 2
 1452.33333333 1030 1477 1050 1517 1050 c 2
 1677 1050 l 2
 1717 1050 1732.33333333 1030 1723 990 c 2
 1569 325 l 2
 1561.66666667 294.333333333 1558 265.833333333 1558 239.5 c 128
 1558 213.166666667 1573.33333333 200 1604 200 c 2
 1626 200 l 2
 1666 200 1681.33333333 180 1672 140 c 2
 1573 -290 l 2
 1563.66666667 -330 1540.66666667 -350 1504 -350 c 2
 1384 -350 l 2
 1347.33333333 -350 1333.66666667 -330 1343 -290 c 2
 1410 0 l 1
 1398 0 l 2
 1362 0 1330.5 11.1666666667 1303.5 33.5 c 128
 1276.5 55.8333333333 1259 94.6666666667 1251 150 c 1
 1247 150 l 1
 1216.33333333 104 1177 64.1666666667 1129 30.5 c 128
 1081 -3.16666666667 1031.66666667 -20 981 -20 c 256
 897.666666667 -20 837.833333333 3.83333333333 801.5 51.5 c 128
 765.166666667 99.1666666667 747 152.333333333 747 211 c 1
 743 211 l 1
 694.333333333 136.333333333 640 79.1666666667 580 39.5 c 128
 520 -0.166666666667 447 -20 361 -20 c 256
 271 -20 198 15.3333333333 142 86 c 128
 86 156.666666667 78 278 118 450 c 2
EndSplineSet
Validated: 8912929
EndChar

StartChar: afii10069
Encoding: 1076 1076 21
Width: 1224
GlyphClass: 1
Flags: W
HStem: -20 196<407.871 671.09> 862 196<534.758 793.107> 1300 196<490.551 836.461>
VStem: 58 296<229.514 640.873> 854 340<542.378 1040.32> 927 267<903 1192.58>
LayerCount: 2
Back
SplineSet
58 412 m 0
 58 562 113.333333333 709.166666667 224 853.5 c 128
 334.666666667 997.833333333 490 1070 690 1070 c 256
 863.333333333 1070 983.333333333 1027.16666667 1050 941.5 c 128
 1116.66666667 855.833333333 1150 754.666666667 1150 638 c 0
 1150 488 1094.66666667 340.833333333 984 196.5 c 128
 873.333333333 52.1666666667 718 -20 518 -20 c 256
 344.666666667 -20 224.666666667 22.8333333333 158 108.5 c 128
 91.3333333333 194.166666667 58 295.333333333 58 412 c 0
354 387 m 0
 354 320.333333333 370.166666667 268.5 402.5 231.5 c 128
 434.833333333 194.5 479.333333333 176 536 176 c 256
 619.333333333 176 693.166666667 218.833333333 757.5 304.5 c 128
 821.833333333 390.166666667 854 509.666666667 854 663 c 0
 854 729.666666667 837.833333333 781.5 805.5 818.5 c 128
 773.166666667 855.5 728.666666667 874 672 874 c 256
 588.666666667 874 514.833333333 831.166666667 450.5 745.5 c 128
 386.166666667 659.833333333 354 540.333333333 354 387 c 0
EndSplineSet
Fore
SplineSet
58 412 m 0xf8
 58 561.333333333 112.833333333 706.333333333 222.5 847 c 0
 332.166666667 987.666666667 481.333333333 1058 670 1058 c 256
 727.333333333 1058 777.5 1044.16666667 820.5 1016.5 c 0
 863.5 988.833333333 896.333333333 951 919 903 c 1
 923 903 l 17
 925.666666667 925.666666667 927 952.666666667 927 984 c 0xf4
 927 1080 908.5 1156.66666667 871.5 1214 c 0
 834.5 1271.33333333 781 1300 711 1300 c 256
 671 1300 629.5 1295.33333333 586.5 1286 c 0
 543.5 1276.66666667 505.333333333 1263.66666667 472 1247 c 256
 434 1227.66666667 406 1235.66666667 388 1271 c 2
 358 1329 l 2
 337.333333333 1369 342.333333333 1398 373 1416 c 256
 418.333333333 1442 471.833333333 1461.83333333 533.5 1475.5 c 24
 595.166666667 1489.16666667 660.666666667 1496 730 1496 c 256
 871.333333333 1496 984 1448.16666667 1068 1352.5 c 0
 1152 1256.83333333 1194 1098 1194 876 c 0
 1194 630 1132 419.166666667 1008 243.5 c 0
 884 67.8333333333 720.666666667 -20 518 -20 c 256
 338.666666667 -20 217.166666667 22.8333333333 153.5 108.5 c 0
 89.8333333333 194.166666667 58 295.333333333 58 412 c 0xf8
354 387 m 0
 354 311 370.166666667 256.833333333 402.5 224.5 c 0
 434.833333333 192.166666667 479.333333333 176 536 176 c 256
 619.333333333 176 693.166666667 219.666666667 757.5 307 c 0
 821.833333333 394.333333333 854 507.666666667 854 647 c 0xf8
 854 713.666666667 837.833333333 766.166666667 805.5 804.5 c 0
 773.166666667 842.833333333 728.666666667 862 672 862 c 256
 588.666666667 862 514.833333333 819.833333333 450.5 735.5 c 0
 386.166666667 651.166666667 354 535 354 387 c 0
EndSplineSet
Validated: 8912929
EndChar

StartChar: afii10089
Encoding: 1095 1095 23
Width: 1130
GlyphClass: 1
Flags: W
HStem: 0 21G<634 834> 380 196<400 664.978> 436 140<534.729 697.623> 1030 20G<262.333 462.333 876.333 1076.33>
LayerCount: 2
Back
SplineSet
150 736 m 2
 209 990 l 2
 218.333333333 1030 242.666666667 1050 282 1050 c 2
 442 1050 l 2
 482 1050 497.666666667 1030 489 990 c 2
 427 724 l 2
 412.333333333 660 417 619.333333333 441 602 c 128
 465 584.666666667 503.666666667 576 557 576 c 256
 585 576 614.666666667 579 646 585 c 128
 677.333333333 591 709.666666667 611.333333333 743 646 c 9
 823 990 l 2
 832.333333333 1030 856.666666667 1050 896 1050 c 2
 1056 1050 l 2
 1096 1050 1111.66666667 1030 1103 990 c 2
 888 60 l 2
 878.666666667 20 854 0 814 0 c 2
 654 0 l 2
 614 0 598.666666667 20 608 60 c 2
 676 356 l 2
 682 382.666666667 689.666666667 409.333333333 699 436 c 1
 693 436 l 1
 648.333333333 416 597 401.666666667 539 393 c 128
 481 384.333333333 434.666666667 380 400 380 c 256
 278.666666667 380 200.666666667 413 166 479 c 128
 131.333333333 545 126 630.666666667 150 736 c 2
EndSplineSet
Fore
SplineSet
150 736 m 2xd0
 209 990 l 2
 218.333333333 1030 242.666666667 1050 282 1050 c 2
 442 1050 l 2
 482.666666667 1050 498.333333333 1030 489 990 c 2
 427 724 l 2
 413 664 415.666666667 624.333333333 435 605 c 0
 454.333333333 585.666666667 488.333333333 576 537 576 c 256xd0
 563 576 595.5 578.5 634.5 583.5 c 0
 673.5 588.5 709.666666667 609.333333333 743 646 c 9
 823 990 l 2
 832.333333333 1030 856.666666667 1050 896 1050 c 2
 1056 1050 l 2
 1096.66666667 1050 1112.33333333 1030 1103 990 c 2
 888 60 l 2
 878.666666667 20 854 0 814 0 c 2
 654 0 l 2
 614 0 598.666666667 20 608 60 c 2
 676 356 l 2
 682.666666667 384 690.333333333 410.666666667 699 436 c 1
 693 436 l 1xb0
 648.333333333 416 599.666666667 401.666666667 547 393 c 0
 494.333333333 384.333333333 445.333333333 380 400 380 c 256
 296 380 222.333333333 413.666666667 179 481 c 0
 135.666666667 548.333333333 126 633.333333333 150 736 c 2xd0
EndSplineSet
Validated: 8912929
EndChar

StartChar: a
Encoding: 97 97 24
Width: 1178
GlyphClass: 1
Flags: HMW
HStem: -20 196<318.5 551.184> 0 21G<681 892> 874 196<528.31 761.514> 1030 20G<931.5 1134.5>
VStem: 62 296<222.294 627.489>
DStem2: 645.531 -20 917.531 -20 0.224951 0.97437<73.0318 161.255 315.994 815.229 998.856 1105.23>
LayerCount: 2
Back
SplineSet
66 399 m 260
 66 574.333333333 119.5 730 226.5 866 c 132
 333.5 1002 457.666666667 1070 599 1070 c 260
 647 1070 697 1063.66666667 749 1051 c 132
 801 1038.33333333 843.666666667 1006 877 954 c 5
 881 954 l 5
 893 990 l 6
 906.333333333 1030 928.666666667 1050 960 1050 c 6
 1118 1050 l 6
 1158.66666667 1050 1174.33333333 1030 1165 990 c 6
 858 -340 l 6
 848.666666667 -380 824 -400 784 -400 c 6
 624 -400 l 6
 584 -400 568.666666667 -380 578 -340 c 6
 670 58 l 6
 676.666666667 86.6666666667 684 113.333333333 692 138 c 5
 688 138 l 5
 640 80.6666666667 597 40 559 16 c 132
 521 -8 477.666666667 -20 429 -20 c 260
 297 -20 203.5 23.3333333333 148.5 110 c 132
 93.5 196.666666667 66 293 66 399 c 260
362 380 m 260
 362 310.666666667 374.833333333 259.333333333 400.5 226 c 132
 426.166666667 192.666666667 461.666666667 176 507 176 c 260
 553.666666667 176 603.833333333 205.666666667 657.5 265 c 132
 711.166666667 324.333333333 751 410 777 522 c 6
 814 680 l 21
 814 744 802.833333333 792.333333333 780.5 825 c 132
 758.166666667 857.666666667 713.666666667 874 647 874 c 260
 557 874 487 823.333333333 437 722 c 132
 387 620.666666667 362 506.666666667 362 380 c 260
EndSplineSet
Fore
SplineSet
62 379 m 256
 62 566.333333333 122.833333333 728.333333333 244.5 865 c 128
 366.166666667 1001.66666667 502 1070 652 1070 c 256
 682 1070 716.666666667 1062.33333333 756 1047 c 128
 795.333333333 1031.66666667 831 1000.66666667 863 954 c 1
 867 954 l 1
 884 990 l 2
 902.666666667 1030 925 1050 951 1050 c 2
 1104 1050 l 2
 1144.66666667 1050 1160.33333333 1030 1151 990 c 2
 936 60 l 2
 926.666666667 20 902 0 862 0 c 2
 709 0 l 2
 671.666666667 0 656.666666667 20 664 60 c 2
 678 138 l 1
 674 138 l 1
 634.666666667 90 593 51.6666666667 549 23 c 128
 505 -5.66666666667 454.666666667 -20 398 -20 c 256
 292 -20 209.5 20.3333333333 150.5 101 c 128
 91.5 181.666666667 62 274.333333333 62 379 c 256
358 360 m 256
 358 302.666666667 370.833333333 257.666666667 396.5 225 c 128
 422.166666667 192.333333333 451 176 483 176 c 256
 540.333333333 176 594.5 204.833333333 645.5 262.5 c 128
 696.5 320.166666667 735.666666667 406.666666667 763 522 c 2
 800 680 l 17
 800 740.666666667 789 788.166666667 767 822.5 c 128
 745 856.833333333 705.333333333 874 648 874 c 256
 565.333333333 874 496.333333333 821.333333333 441 716 c 128
 385.666666667 610.666666667 358 492 358 360 c 256
EndSplineSet
Validated: 8912929
EndChar

StartChar: afii10067
Encoding: 1074 1074 26
Width: 1120
VWidth: 1000
GlyphClass: 1
Flags: W
HStem: -20 196<399.886 654.136> 874 196<530 756.603>
VStem: 58 297<221.38 500.294> 694 296<214.023 425.045> 776 274<715.743 857.583>
LayerCount: 2
Back
SplineSet
58 415 m 260
 58 569 113 716.666666667 223 858 c 132
 333 999.333333333 485 1070 679 1070 c 260
 813 1070 918.333333333 1038.16666667 995 974.5 c 132
 1071.66666667 910.833333333 1110 837.333333333 1110 754 c 260
 1110 651.333333333 1051.83333333 575.333333333 935.5 526 c 132
 819.166666667 476.666666667 696 440.666666667 566 418 c 6
 357 382 l 5
 356.333333333 373.333333333 356 364 356 354 c 4
 356 311.333333333 367.666666667 271 391 233 c 132
 414.333333333 195 468 176 552 176 c 260
 596 176 640.166666667 184 684.5 200 c 132
 728.833333333 216 772 240.666666667 814 274 c 260
 848 301.333333333 875 301.333333333 895 274 c 270
 959 187 l 286
 982.333333333 155 979.666666667 125.666666667 951 99 c 260
 911 62.3333333333 856.833333333 33.3333333333 788.5 12 c 132
 720.166666667 -9.33333333333 635.333333333 -20 534 -20 c 260
 350 -20 224.666666667 22.3333333333 158 107 c 132
 91.3333333333 191.666666667 58 294.333333333 58 415 c 260
370 570 m 5
 589 606 l 6
 668.333333333 619.333333333 731.333333333 636.666666667 778 658 c 132
 824.666666667 679.333333333 848 709.666666667 848 749 c 260
 848 777.666666667 831.666666667 805.666666667 799 833 c 132
 766.333333333 860.333333333 723.333333333 874 670 874 c 260
 594 874 530.666666667 844.666666667 480 786 c 132
 429.333333333 727.333333333 392.666666667 655.333333333 370 570 c 5
EndSplineSet
Fore
SplineSet
58 404 m 256xf0
 58 556 111 705 217 851 c 0
 323 997 474.666666667 1070 672 1070 c 256
 785.333333333 1070 876.666666667 1049 946 1007 c 0
 1015.33333333 965 1050 907.333333333 1050 834 c 256xe8
 1050 763.333333333 1028.33333333 708.666666667 985 670 c 0
 941.666666667 631.333333333 870 597.333333333 770 568 c 1
 770 566 l 1
 843.333333333 558 898.333333333 527.333333333 935 474 c 0
 971.666666667 420.666666667 990 370.666666667 990 324 c 256
 990 205.333333333 946 118.333333333 858 63 c 0
 770 7.66666666667 644.666666667 -20 482 -20 c 256
 352.666666667 -20 249.666666667 17.6666666667 173 93 c 0
 96.3333333333 168.333333333 58 272 58 404 c 256xf0
355 356 m 256
 355 308 367.166666667 266 391.5 230 c 0
 415.833333333 194 460 176 524 176 c 256
 584 176 627.333333333 188.666666667 654 214 c 0
 680.666666667 239.333333333 694 274.666666667 694 320 c 256xf0
 694 372 679.333333333 407.333333333 650 426 c 0
 620.666666667 444.666666667 581.333333333 454 532 454 c 256
 502.666666667 454 474 450.333333333 446 443 c 0
 418 435.666666667 389.666666667 428.666666667 361 422 c 1
 357 396.666666667 355 374.666666667 355 356 c 256
382 614 m 1
 535.333333333 648.666666667 639.333333333 676.333333333 694 697 c 0xf0
 748.666666667 717.666666667 776 750 776 794 c 256xe8
 776 822 766.333333333 842.333333333 747 855 c 0
 727.666666667 867.666666667 696.666666667 874 654 874 c 256
 614 874 568.666666667 857 518 823 c 0
 467.333333333 789 422 719.333333333 382 614 c 1
EndSplineSet
Validated: 8912897
EndChar

StartChar: afii10092
Encoding: 1098 1098 27
Width: 1309
VWidth: 1000
GlyphClass: 1
Flags: HMW
HStem: -20 196<638.145 865.82> 468 196<717.131 968.5> 468 119<675.945 739.918> 850 200<160.195 460>
VStem: 917 296<226.205 443.795>
DStem2: 460 850 698 667 0.225499 0.974243<-206.651 0>
LayerCount: 2
Back
SplineSet
183 850 m 2
 143 850 127 866.666666667 135 900 c 2
 158 1000 l 2
 166 1033.33333333 189.666666667 1050 229 1050 c 2
 726 1050 l 2
 766 1050 781.666666667 1030 773 990 c 2
 694 648 l 1
 881 648 l 2
 1041 648 1138.33333333 615.666666667 1173 551 c 128
 1207.66666667 486.333333333 1215 410.666666667 1195 324 c 256
 1175 237.333333333 1132.66666667 161.666666667 1068 97 c 128
 1003.33333333 32.3333333333 891 0 731 0 c 2
 324 0 l 2
 284 0 268.666666667 20 278 60 c 2
 460 850 l 17
 183 850 l 2
589 196 m 1
 658 196 l 2
 738 196 795.5 205.666666667 830.5 225 c 128
 865.5 244.333333333 888.333333333 277.333333333 899 324 c 256
 909.666666667 370.666666667 902 403.666666667 876 423 c 128
 850 442.333333333 797 452 717 452 c 2
 648 452 l 1
 589 196 l 1
EndSplineSet
Fore
SplineSet
183 850 m 2
 143 850 127 866.666666667 135 900 c 2
 158 1000 l 2
 166 1033.33333333 189.666666667 1050 229 1050 c 2
 726 1050 l 2
 766.666666667 1050 782.333333333 1030 773 990 c 2
 698 667 l 2
 690.666666667 635.666666667 683 609 675 587 c 1
 680 587 l 1
 702 614.333333333 735.5 634 780.5 646 c 128
 825.5 658 866.666666667 664 904 664 c 256
 990 664 1063 636 1123 580 c 128
 1183 524 1213 450.333333333 1213 359 c 256
 1213 267.666666667 1171.66666667 181.666666667 1089 101 c 128
 1006.33333333 20.3333333333 876 -20 698 -20 c 256
 548 -20 447.833333333 25.3333333333 397.5 116 c 128
 347.166666667 206.666666667 333.666666667 303 357 405 c 2
 460 850 l 17
 183 850 l 2
620 336 m 256
 608 285.333333333 613.833333333 246 637.5 218 c 128
 661.166666667 190 693.333333333 176 734 176 c 256
 791.333333333 176 836.166666667 191.333333333 868.5 222 c 128
 900.833333333 252.666666667 917 298 917 358 c 256
 917 396 905.5 423.833333333 882.5 441.5 c 128
 859.5 459.166666667 834 468 806 468 c 256
 762.666666667 468 723.5 457.333333333 688.5 436 c 128
 653.5 414.666666667 630.666666667 381.333333333 620 336 c 256
EndSplineSet
Validated: 8912929
EndChar

StartChar: v
Encoding: 118 118 28
Width: 1008
GlyphClass: 1
Flags: W
HStem: 0 21G<267.667 500> 1030 20G<177.667 373.667 842.667 1074.33>
VStem: 146 261<811.826 1049.69>
LayerCount: 2
Back
SplineSet
146.404 972 m 2
 141.742 1024 158.744333333 1050 197.411 1050 c 2
 376.411 1050 l 2
 407.744333333 1050 423.82 1033 424.638 999 c 2
 444.349 413 l 2
 445.473666667 380.333333333 445.175333333 348 443.454 316 c 128
 441.733333333 284 439.230666667 258 435.946 238 c 1
 441.946 238 l 1
 447.897333333 258 457.4 284 470.454 316 c 128
 483.508666667 348 498.140333333 380.333333333 514.349 413 c 2
 804.638 999 l 2
 821.154 1033 845.078666667 1050 876.412 1050 c 2
 1055.41 1050 l 2
 1094.07666667 1050 1099.07333333 1024 1070.4 972 c 2
 571.468 67 l 2
 547.156 22.3333333333 517.666666667 0 483 0 c 2
 285 0 l 2
 250.333333333 0 231.156 22.3333333333 227.468 67 c 2
 146.404 972 l 2
EndSplineSet
Fore
SplineSet
146 972 m 2
 141.333333333 1024 158.333333333 1050 197 1050 c 2
 358 1050 l 2
 389.333333333 1050 405.666666667 1033 407 999 c 2
 426 413 l 2
 427.333333333 380.333333333 427.166666667 348 425.5 316 c 0
 423.833333333 284 421.333333333 258 418 238 c 1
 424 238 l 1
 430 258 439.5 284 452.5 316 c 0
 465.5 348 480 380.333333333 496 413 c 2
 787 999 l 2
 803.666666667 1033 827.333333333 1050 858 1050 c 2
 1055 1050 l 2
 1093.66666667 1050 1098.66666667 1024 1070 972 c 2
 571 67 l 2
 546.333333333 22.3333333333 517 0 483 0 c 2
 285 0 l 2
 250.333333333 0 231 22.3333333333 227 67 c 2
 146 972 l 2
EndSplineSet
Validated: 524321
EndChar

StartChar: y
Encoding: 121 121 29
Width: 1194
GlyphClass: 1
Flags: HMW
HStem: -420 196<158.075 547.502> -11 196<297 554.215> 1030 20G<286.5 506.5 930.5 1150.5>
DStem2: -82.701 -420 196.754 -420 0.224951 0.97437<748.395 1517.52> 559.489 -420 839.496 -420 0.224951 0.97437<257.774 590.981 744.965 1517.73>
LayerCount: 2
Fore
SplineSet
117 445 m 2
 243 990 l 2
 252.333333333 1030 276.666666667 1050 316 1050 c 2
 476 1050 l 2
 516.666666667 1050 532.333333333 1030 523 990 c 2
 411 508 l 2
 379.666666667 372.666666667 372.166666667 285 388.5 245 c 128
 404.833333333 205 439.666666667 185 493 185 c 256
 560.333333333 185 621.333333333 224.833333333 676 304.5 c 128
 730.666666667 384.166666667 774 494.333333333 806 635 c 2
 887 990 l 2
 896.333333333 1030 920.666666667 1050 960 1050 c 2
 1120 1050 l 2
 1160.66666667 1050 1176.33333333 1030 1167 990 c 2
 939 11 l 2
 903.666666667 -141.666666667 838.833333333 -251.666666667 744.5 -319 c 128
 650.166666667 -386.333333333 516 -420 342 -420 c 256
 300 -420 251.5 -416.5 196.5 -409.5 c 152
 141.5 -402.5 88 -385 36 -357 c 256
 0.666666666667 -338.333333333 -4.66666666667 -309.333333333 20 -270 c 2
 69 -192 l 2
 87 -162.666666667 111.333333333 -156 142 -172 c 256
 187.333333333 -195.333333333 226 -209.833333333 258 -215.5 c 128
 290 -221.166666667 328 -224 372 -224 c 256
 442 -224 501.666666667 -209.166666667 551 -179.5 c 128
 600.333333333 -149.833333333 641.333333333 -64.6666666667 674 76 c 0
 680.666666667 105.333333333 688.333333333 132 697 156 c 1
 693 156 l 1
 639.666666667 93.3333333333 588.833333333 49.8333333333 540.5 25.5 c 128
 492.166666667 1.16666666667 434.666666667 -11 368 -11 c 256
 273.333333333 -11 198.5 24.6666666667 143.5 96 c 128
 88.5 167.333333333 79.6666666667 283.666666667 117 445 c 2
EndSplineSet
Validated: 524321
EndChar

StartChar: e
Encoding: 101 101 30
Width: 1150
VWidth: 1000
GlyphClass: 1
Flags: W
HStem: -20 196<404.086 740.629> 874 196<531.082 820.238>
VStem: 58 298<222.49 501.318> 867 237<679.416 834.175>
LayerCount: 2
Back
SplineSet
58 412 m 260
 58 566.666666667 114 715 226 857 c 132
 338 999 487 1070 673 1070 c 260
 772.333333333 1070 848 1055 900 1025 c 132
 952 995 995 955.333333333 1029 906 c 260
 1048.33333333 878 1042.66666667 853.666666667 1012 833 c 286
 903 760 l 278
 877 742.666666667 851.333333333 752.666666667 826 790 c 260
 812 810.666666667 793 829.833333333 769 847.5 c 132
 745 865.166666667 709.666666667 874 663 874 c 260
 587.666666667 874 517.333333333 832 452 748 c 132
 386.666666667 664 354 543.666666667 354 387 c 260
 354 317 370.333333333 264.333333333 403 229 c 132
 435.666666667 193.666666667 480 176 536 176 c 260
 588 176 630.5 187 663.5 209 c 132
 696.5 231 728.666666667 261.666666667 760 301 c 260
 784.666666667 331.666666667 811.666666667 333.333333333 841 306 c 270
 922 231 l 286
 948 207 947.333333333 177.666666667 920 143 c 260
 894 109.666666667 848.166666667 74.1666666667 782.5 36.5 c 132
 716.833333333 -1.16666666667 628.666666667 -20 518 -20 c 260
 344.666666667 -20 224.666666667 22.8333333333 158 108.5 c 132
 91.3333333333 194.166666667 58 295.333333333 58 412 c 260
81.2061 525 m 256
 120.145366667 693.666666667 193.017333333 826.666666667 299.822 924 c 128
 406.626666667 1021.33333333 537.029 1070 691.029 1070 c 256
 869.695666667 1070 991.742666667 1024 1057.17 932 c 128
 1122.59666667 840 1131.76 692 1084.66 488 c 0
 1075.42666667 448 1052.14333333 428 1014.81 428 c 2
 354.812 428 l 1
 339.928666667 317.333333333 351.178333333 247.666666667 388.561 219 c 128
 425.942333333 190.333333333 473.633 176 531.633 176 c 256
 586.966333333 176 630.992666667 183.333333333 663.712 198 c 128
 696.431333333 212.666666667 725.715333333 232.666666667 751.564 258 c 256
 781.003333333 287.333333333 810.080666667 292 838.796 272 c 266
 924.713 211 l 282
 958.505666667 187 957.554 158.333333333 921.858 125 c 256
 869.956 76.3333333333 813.901333333 40 753.694 16 c 128
 693.486666667 -8 604.383 -20 486.383 -20 c 256
 295.049666667 -20 169.952 28.6666666667 111.09 126 c 128
 52.2272666667 223.333333333 42.2659666667 356.333333333 81.2061 525 c 256
401.985 628 m 1
 836.985 628 l 1
 853.607666667 700 849.190333333 758.833333333 823.733 804.5 c 128
 798.276333333 850.166666667 746.214666667 873 667.548 873 c 256
 604.881333333 873 550.174 851.166666667 503.426 807.5 c 128
 456.678666667 763.833333333 422.865 704 401.985 628 c 1
EndSplineSet
Fore
SplineSet
58 415 m 256
 58 569 113 716.666666667 223 858 c 0
 333 999.333333333 485 1070 679 1070 c 256
 813 1070 917.333333333 1040 992 980 c 0
 1066.66666667 920 1104 851.333333333 1104 774 c 256
 1104 646 1056.5 562 961.5 522 c 0
 866.5 482 734.666666667 447.333333333 566 418 c 2
 357 382 l 1
 356.333333333 373.333333333 356 364 356 354 c 0
 356 311.333333333 367.666666667 271 391 233 c 0
 414.333333333 195 468 176 552 176 c 256
 600 176 649 185.166666667 699 203.5 c 0
 749 221.833333333 789 242.333333333 819 265 c 256
 853.666666667 291 880.666666667 291 900 265 c 266
 959 187 l 282
 983 155.666666667 980.333333333 126.333333333 951 99 c 256
 907.346 58.9836666667 850.653333333 29.14625 780.922 9.48775 c 0
 711.190666667 -10.17075 628.883333333 -20 534 -20 c 256
 350 -20 224.666666667 22.3333333333 158 107 c 0
 91.3333333333 191.666666667 58 294.333333333 58 415 c 256
370 570 m 1
 589 606 l 2
 659 617.333333333 722.833333333 634.166666667 780.5 656.5 c 0
 838.166666667 678.833333333 867 710.333333333 867 751 c 256
 867 787.666666667 849.5 817.333333333 814.5 840 c 0
 779.5 862.666666667 735.333333333 874 682 874 c 256
 597.333333333 874 529.833333333 844.666666667 479.5 786 c 0
 429.166666667 727.333333333 392.666666667 655.333333333 370 570 c 1
EndSplineSet
Validated: 524321
EndChar

StartChar: i
Encoding: 105 105 31
Width: 552
GlyphClass: 1
Flags: W
HStem: 0 21G<56 256> 1030 20G<298.333 498> 1204 248<341.847 583.153>
VStem: 30 495 308 309
LayerCount: 2
Back
SplineSet
139 1335 m 2
 139 1419 l 2
 142.333333333 1444.33333333 158.333333333 1457 187 1457 c 2
 209 1456 l 1
 272 1456 l 2
 286 1456 296.5 1452.33333333 303.5 1445 c 128
 310.5 1437.66666667 314.5 1431 315.5 1425 c 128
 316.5 1419 317 1411 317 1401 c 2
 317 1352 l 2
 317 1319.33333333 313.166666667 1298.83333333 305.5 1290.5 c 128
 297.833333333 1282.16666667 278.833333333 1278 248.5 1278 c 128
 218.166666667 1278 195.333333333 1278.66666667 180 1280 c 0
 152.666666667 1280 139 1298.33333333 139 1335 c 2
252 1040 m 1
 269 1041 l 2
 278.333333333 1041 286 1040.33333333 292 1039 c 128
 298 1037.66666667 302.666666667 1034.5 306 1029.5 c 128
 309.333333333 1024.5 311.5 1021.16666667 312.5 1019.5 c 128
 313.5 1017.83333333 314.5 1012.83333333 315.5 1004.5 c 128
 316.5 996.166666667 317 991.666666667 317 991 c 2
 317 58 l 2
 317 32 311 14.6666666667 299 6 c 1
 298.333333333 6 295.166666667 4.83333333333 289.5 2.5 c 128
 283.833333333 0.166677333333 276 -0.999989333333 266 -1 c 2
 242 0 l 1
 178 0 l 1
 153.333333333 4 141 20.3333333333 141 49 c 2
 139 84 l 1
 139 982 l 2
 139 1007.33333333 143.166666667 1023.33333333 151.5 1030 c 128
 159.833333333 1036.66666667 174.333333333 1040 195 1040 c 2
 252 1040 l 1
EndSplineSet
Fore
Refer: 0 305 N 1 0 0 1 0 0 3
Refer: 32 729 N 1 0 0 1 -31 0 2
Validated: 1
EndChar

StartChar: dotaccent
Encoding: 729 729 32
Width: 614
GlyphClass: 1
Flags: W
HStem: 1204 248<372.847 614.153>
VStem: 339 309
LayerCount: 2
Fore
SplineSet
385 1204 m 2
 345 1204 329.666666667 1224 339 1264 c 2
 368 1392 l 2
 377.333333333 1432 402 1452 442 1452 c 2
 602 1452 l 2
 642 1452 657.333333333 1432 648 1392 c 2
 619 1264 l 2
 609.666666667 1224 585 1204 545 1204 c 2
 385 1204 l 2
EndSplineSet
Validated: 524321
EndChar

StartChar: q
Encoding: 113 113 33
Width: 1192
GlyphClass: 1
Flags: HMW
HStem: -400 21G<594 814> -20 196<405.064 570.954> 874 196<520.903 777.239> 1030 20G<936.5 1148.5>
VStem: 66 296<223.993 647.956>
DStem2: 564.148 -400 844.148 -400 0.224951 0.97437<54.1702 551.759 696.219 1218.83 1390.57 1495.15>
LayerCount: 2
Back
SplineSet
783.652 -400 m 2
 623.652 -400 l 2
 583.652 -400 568.269666667 -380 577.505 -340 c 2
 664.773 38 l 2
 670.929666667 64.6666666667 678.419333333 91.3333333333 687.242 118 c 1
 683.242 118 l 1
 635.339333333 60.6666666667 588.053666667 23.3333333333 541.385 6 c 128
 494.717 -11.3333333333 441.383 -20 381.383 -20 c 256
 224.716333333 -20 127.0548 34.1666666667 88.3984 142.5 c 128
 49.7428 250.833333333 47.3453666667 378.333333333 81.2061 525 c 256
 115.0667 671.666666667 176.335666667 799.166666667 265.013 907.5 c 128
 353.690333333 1015.83333333 476.362333333 1070 633.029 1070 c 256
 693.029 1070 742.361333333 1061.33333333 781.026 1044 c 128
 819.690666667 1026.66666667 849.738333333 989.333333333 871.169 932 c 1
 875.169 932 l 1
 892.56 990 l 2
 904.461333333 1030 927.078666667 1050 960.412 1050 c 2
 1118.41 1050 l 2
 1158.41 1050 1173.79333333 1030 1164.56 990 c 2
 857.505 -340 l 2
 848.269666667 -380 823.652 -400 783.652 -400 c 2
766.816 480 m 2
 787.595 570 l 2
 808.373 660 807.431666667 733.166666667 784.771 789.5 c 128
 762.109666667 845.833333333 725.779 874 675.779 874 c 256
 585.779 874 519.673333333 842.5 477.462 779.5 c 128
 435.250666667 716.5 401.832 631.666666667 377.206 525 c 256
 352.58 418.333333333 346.828 333.5 359.95 270.5 c 128
 373.072 207.5 424.633 176 514.633 176 c 256
 564.633 176 613.969333333 204.166666667 662.642 260.5 c 128
 711.313333333 316.833333333 746.038 390 766.816 480 c 2
EndSplineSet
Fore
SplineSet
66 399 m 256
 66 574.333333333 119.5 730 226.5 866 c 128
 333.5 1002 457.666666667 1070 599 1070 c 256
 647 1070 697 1063.66666667 749 1051 c 128
 801 1038.33333333 843.666666667 1006 877 954 c 1
 881 954 l 1
 893 990 l 2
 906.333333333 1030 928.666666667 1050 960 1050 c 2
 1118 1050 l 2
 1158.66666667 1050 1174.33333333 1030 1165 990 c 2
 858 -340 l 2
 848.666666667 -380 824 -400 784 -400 c 2
 624 -400 l 2
 584 -400 568.666666667 -380 578 -340 c 2
 670 58 l 2
 676.666666667 86.6666666667 684 113.333333333 692 138 c 1
 688 138 l 1
 640 80.6666666667 597 40 559 16 c 128
 521 -8 477.666666667 -20 429 -20 c 256
 297 -20 203.5 23.3333333333 148.5 110 c 128
 93.5 196.666666667 66 293 66 399 c 256
362 380 m 256
 362 310.666666667 374.833333333 259.333333333 400.5 226 c 128
 426.166666667 192.666666667 461.666666667 176 507 176 c 256
 553.666666667 176 603.833333333 205.666666667 657.5 265 c 128
 711.166666667 324.333333333 751 410 777 522 c 2
 814 680 l 17
 814 744 802.833333333 792.333333333 780.5 825 c 128
 758.166666667 857.666666667 713.666666667 874 647 874 c 256
 557 874 487 823.333333333 437 722 c 128
 387 620.666666667 362 506.666666667 362 380 c 256
EndSplineSet
Validated: 8912929
EndChar

StartChar: cyrbreve
Encoding: 63188 63188 38
Width: 1194
GlyphClass: 1
Flags: W
HStem: 1130 160<670.469 916.521>
VStem: 420 226<1354 1467.19>
LayerCount: 2
Back
SplineSet
420 1412 m 2
 425.333333333 1451.33333333 450 1471 494 1471 c 2
 601 1471 l 2
 633 1471 648.333333333 1453 647 1417 c 2
 646 1392 l 2
 644.666666667 1348 656.666666667 1320 682 1308 c 128
 707.333333333 1296 738.333333333 1290 775 1290 c 256
 811.666666667 1290 845.333333333 1296 876 1308 c 128
 906.666666667 1320 931.333333333 1348 950 1392 c 2
 961 1417 l 2
 976.333333333 1453 1000.33333333 1471 1033 1471 c 2
 1140 1471 l 2
 1184 1471 1199.33333333 1451.33333333 1186 1412 c 2
 1167 1354 l 2
 1141 1276.66666667 1082.83333333 1220 992.5 1184 c 128
 902.166666667 1148 817.333333333 1130 738 1130 c 256
 658.666666667 1130 582.166666667 1148 508.5 1184 c 128
 434.833333333 1220 403 1276.66666667 413 1354 c 2
 420 1412 l 2
EndSplineSet
Fore
SplineSet
420 1412 m 2
 424.666666667 1451.33333333 449.333333333 1471 494 1471 c 2
 600 1471 l 2
 630.666666667 1471 646 1453 646 1417 c 2
 646 1392 l 2
 646 1347.33333333 658 1319.16666667 682 1307.5 c 0
 706 1295.83333333 731.333333333 1290 758 1290 c 256
 835.333333333 1290 900.666666667 1313.66666667 954 1361 c 0
 1007.33333333 1408.33333333 1046.66666667 1451.33333333 1072 1490 c 256
 1086.66666667 1512.66666667 1106.66666667 1514.66666667 1132 1496 c 258
 1186 1457 l 258
 1206.66666667 1442.33333333 1208 1421 1190 1393 c 256
 1150 1329.66666667 1090.66666667 1270 1012 1214 c 0
 933.333333333 1158 836.333333333 1130 721 1130 c 256
 633.666666667 1130 558.666666667 1152.33333333 496 1197 c 0
 433.333333333 1241.66666667 405.666666667 1294 413 1354 c 2
 420 1412 l 2
EndSplineSet
Validated: 524321
EndChar

StartChar: afii10076
Encoding: 1082 1082 39
Width: 1085
GlyphClass: 1
Flags: W
HStem: 0 21G<56 256 708 897.667> 1030 20G<298.333 498.333 890.333 1118>
LayerCount: 2
Back
SplineSet
76 0 m 2
 36 0 20.6666666667 20 30 60 c 2
 245 990 l 2
 254.333333333 1030 278.666666667 1050 318 1050 c 2
 478 1050 l 2
 518 1050 533.666666667 1030 525 990 c 2
 446 648 l 1
 469 648 l 2
 501.666666667 648 533.333333333 661.333333333 564 688 c 128
 594.666666667 714.666666667 623 744 649 776 c 2
 841 1009 l 2
 863 1036.33333333 892 1050 928 1050 c 2
 1092 1050 l 2
 1144 1050 1148.66666667 1025.33333333 1106 976 c 2
 882 716 l 2
 848 676.666666667 810.5 641.833333333 769.5 611.5 c 152
 728.5 581.166666667 690.333333333 562 655 554 c 1
 654 552 l 1
 700.666666667 541.333333333 734 524.166666667 754 500.5 c 128
 774 476.833333333 795 434 817 372 c 2
 921 74 l 2
 938.333333333 24.6666666667 922.333333333 0 873 0 c 2
 702 0 l 2
 666 0 642.666666667 17.3333333333 632 52 c 2
 543 338 l 2
 535.666666667 361.333333333 521.5 385.5 500.5 410.5 c 128
 479.5 435.5 453.666666667 448 423 448 c 2
 399 448 l 1
 310 60 l 2
 300.666666667 20 276 0 236 0 c 2
 76 0 l 2
EndSplineSet
Fore
SplineSet
76 0 m 2
 36 0 20.6666666667 20 30 60 c 2
 245 990 l 2
 254.333333333 1030 278.666666667 1050 318 1050 c 2
 478 1050 l 2
 518.666666667 1050 534.333333333 1030 525 990 c 2
 446 648 l 1
 469 648 l 6
 488.333333333 648 509 656.166666667 531 672.5 c 0
 553 688.833333333 585.666666667 723.333333333 629 776 c 2
 821 1009 l 2
 843.666666667 1036.33333333 872.666666667 1050 908 1050 c 2
 1092 1050 l 2
 1144 1050 1148.66666667 1025.33333333 1106 976 c 2
 882 716 l 2
 844.666666667 672.666666667 808.333333333 637.5 773 610.5 c 24
 737.666666667 583.5 698.333333333 564.666666667 655 554 c 1
 654 552 l 1
 692.666666667 545.333333333 725.333333333 525.5 752 492.5 c 0
 778.666666667 459.5 800.333333333 419.333333333 817 372 c 2
 921 74 l 2
 938.333333333 24.6666666667 922.333333333 0 873 0 c 2
 726 0 l 2
 690 0 666.666666667 17.3333333333 656 52 c 2
 567 338 l 2
 553.666666667 380 534.833333333 408.833333333 510.5 424.5 c 0
 486.166666667 440.166666667 457 448 423 448 c 2
 399 448 l 1
 310 60 l 2
 300.666666667 20 276 0 236 0 c 2
 76 0 l 2
EndSplineSet
Validated: 524321
EndChar

StartChar: afii10072
Encoding: 1078 1078 40
Width: 1574
GlyphClass: 1
Flags: W
HStem: 0 21G<-52.3333 177.333 567 767 1200.67 1386.33> 448 200<569.669 630 957 1026.66> 1030 20G<210.667 390 809.333 1009 1384 1607.67>
LayerCount: 2
Back
SplineSet
-28 0 m 2
 -76.6666666667 0 -81.3053333333 24.6666666667 -41.916 74 c 2
 195.883 372 l 2
 243.735 432 283.175 474.333333333 314.203 499 c 128
 345.231 523.666666667 386.643 541.333333333 438.439 552 c 1
 438.901 554 l 1
 398.697 564.666666667 367.493666667 584 345.291 612 c 128
 323.089 640 304.092666667 674.666666667 288.302 716 c 2
 188.327 976 l 2
 169.049666667 1025.33333333 185.077666667 1050 236.411 1050 c 2
 396.411 1050 l 2
 432.411 1050 455.256 1036.33333333 464.946 1009 c 2
 545.153 776 l 2
 555.919666667 744.666666667 569.186333333 715.5 584.953 688.5 c 128
 600.719666667 661.5 625.936333333 648 660.603 648 c 2
 676.603 648 l 1
 755.56 990 l 2
 764.794666667 1030 789.412 1050 829.412 1050 c 2
 989.412 1050 l 2
 1029.41066667 1050 1044.79333333 1030 1035.56 990 c 2
 956.603 648 l 1
 972.603 648 l 2
 1007.26766667 648 1038.71666667 661.5 1066.95 688.5 c 128
 1095.18333333 715.5 1121.91666667 744.666666667 1147.15 776 c 2
 1334.95 1009 l 2
 1357.25666667 1036.33333333 1386.41 1050 1422.41 1050 c 2
 1582.41 1050 l 2
 1633.74333333 1050 1638.38333333 1025.33333333 1596.33 976 c 2
 1376.3 716 l 2
 1341.42666667 674.666666667 1306.42333333 640 1271.29 612 c 128
 1236.15666667 584 1196.02666667 564.666666667 1150.9 554 c 1
 1150.44 552 l 1
 1197.31333333 541.333333333 1230.56666667 523.666666667 1250.2 499 c 128
 1269.84 474.333333333 1289.73333333 432 1309.88 372 c 2
 1410.08 74 l 2
 1426.69333333 24.6666666667 1410.66666667 0 1362 0 c 2
 1195 0 l 2
 1158.33333333 0 1135 17.3333333333 1125 52 c 2
 1040.03 338 l 6
 1033.26333333 360.666666667 1022.30666667 384.666666667 1007.16 410 c 128
 992.006 435.333333333 965.429 448 927.429 448 c 2
 910.429 448 l 1
 820.853 60 l 2
 811.617666667 20 787 0 747 0 c 2
 587 0 l 2
 547 0 531.617666667 20 540.853 60 c 2
 630.429 448 l 1
 613.429 448 l 2
 575.429 448 543.004666667 435.333333333 516.156 410 c 128
 489.307333333 384.666666667 467.266333333 360.666666667 450.033 338 c 2
 233.005 52 l 2
 207.001666667 17.3333333333 175.666666667 0 139 0 c 2
 -28 0 l 2
EndSplineSet
Fore
SplineSet
-28 0 m 2
 -76.6666666667 0 -81.3333333333 24.6666666667 -42 74 c 2
 196 372 l 2
 237.333333333 424 275.166666667 464.333333333 309.5 493 c 0
 343.833333333 521.666666667 386.666666667 541.333333333 438 552 c 1
 439 554 l 1
 399 564.666666667 365.666666667 589.666666667 339 629 c 0
 312.333333333 668.333333333 295.333333333 697.333333333 288 716 c 2
 188 976 l 2
 169.333333333 1025.33333333 185.333333333 1050 236 1050 c 2
 372 1050 l 2
 408 1050 431 1036.33333333 441 1009 c 2
 521 776 l 2
 531.666666667 744.666666667 549 715.5 573 688.5 c 0
 597 661.5 626.333333333 648 661 648 c 2
 677 648 l 1
 756 990 l 2
 765.333333333 1030 789.666666667 1050 829 1050 c 2
 989 1050 l 2
 1029 1050 1044.66666667 1030 1036 990 c 2
 957 648 l 1
 973 648 l 2
 993 648 1014.33333333 657.666666667 1037 677 c 0
 1059.66666667 696.333333333 1089.66666667 729.333333333 1127 776 c 2
 1315 1009 l 2
 1337 1036.33333333 1366 1050 1402 1050 c 2
 1582 1050 l 2
 1633.33333333 1050 1638 1025.33333333 1596 976 c 2
 1376 716 l 2
 1346.66666667 681.333333333 1313.16666667 648.333333333 1275.5 617 c 0
 1237.83333333 585.666666667 1196.33333333 564.666666667 1151 554 c 1
 1150 552 l 1
 1196.66666667 541.333333333 1231.83333333 518.166666667 1255.5 482.5 c 0
 1279.16666667 446.833333333 1297.33333333 410 1310 372 c 2
 1410 74 l 2
 1426.66666667 24.6666666667 1410.66666667 0 1362 0 c 2
 1219 0 l 2
 1182.33333333 0 1159 17.3333333333 1149 52 c 2
 1064 338 l 2
 1057.33333333 360.666666667 1045.16666667 384.666666667 1027.5 410 c 0
 1009.83333333 435.333333333 976.333333333 448 927 448 c 2
 910 448 l 1
 821 60 l 2
 811.666666667 20 787 0 747 0 c 2
 587 0 l 2
 547 0 531.666666667 20 541 60 c 2
 630 448 l 1
 613 448 l 2
 593 448 574.166666667 443 556.5 433 c 0
 538.833333333 423 510 391.333333333 470 338 c 2
 253 52 l 2
 227 17.3333333333 195.666666667 0 159 0 c 2
 -28 0 l 2
EndSplineSet
Validated: 524321
EndChar

StartChar: afii10097
Encoding: 1103 1103 41
Width: 1148
GlyphClass: 1
Flags: W
HStem: 0 21G<-24.6667 213 652 852> 402 196<534.197 705> 854 196<518.344 809>
VStem: 162 296<623.396 814.22>
LayerCount: 2
Back
SplineSet
1 0 m 2
 -49.6666666667 0 -54.3053333333 24.6666666667 -12.916 74 c 2
 193.646 319 l 2
 230.317333333 362.333333333 260.423 391.666666667 283.963 407 c 144
 307.503 422.333333333 338.248333333 440 376.199 460 c 1
 376.661 462 l 1
 305.688333333 478 248.294333333 509.5 204.479 556.5 c 128
 160.662333333 603.5 147.912 666.666666667 166.228 746 c 256
 184.851333333 826.666666667 228.204333333 897.5 296.287 958.5 c 128
 364.369666667 1019.5 474.078 1050 625.412 1050 c 2
 1074.41 1050 l 2
 1114.41 1050 1129.79333333 1030 1120.56 990 c 2
 905.853 60 l 2
 896.617666667 20 872 0 832 0 c 2
 672 0 l 2
 632 0 616.617666667 20 625.853 60 c 2
 704.809 402 l 1
 615.809 402 l 2
 585.142333333 402 559.372333333 394.333333333 538.499 379 c 128
 517.625666667 363.666666667 490.751 335.333333333 457.875 294 c 2
 266.005 52 l 2
 238.668333333 17.3333333333 207.333333333 0 172 0 c 2
 1 0 l 2
458.765 731 m 256
 445.682333333 674.333333333 458.960666667 638 498.6 622 c 128
 538.24 606 591.393333333 598 658.06 598 c 2
 750.06 598 l 1
 809.161 854 l 1
 698.161 854 l 2
 616.161 854 558.224333333 844.166666667 524.351 824.5 c 128
 490.477 804.833333333 468.615 773.666666667 458.765 731 c 256
EndSplineSet
Fore
SplineSet
1 0 m 2
 -50.3333333333 0 -55 24.6666666667 -13 74 c 2
 194 319 l 2
 224.666666667 355 253.333333333 382.5 280 401.5 c 16
 306.666666667 420.5 338.666666667 440 376 460 c 1
 377 462 l 1
 315.666666667 474 264.5 503 223.5 549 c 0
 182.5 595 162 647.666666667 162 707 c 256
 162 799.666666667 197.5 880 268.5 948 c 0
 339.5 1016 457.666666667 1050 623 1050 c 2
 1074 1050 l 2
 1114.66666667 1050 1130.33333333 1030 1121 990 c 2
 906 60 l 2
 896.666666667 20 872 0 832 0 c 2
 672 0 l 2
 632 0 616.666666667 20 626 60 c 2
 705 402 l 1
 637 402 l 2
 607 402 578.666666667 392 552 372 c 0
 525.333333333 352 499.666666667 326 475 294 c 2
 289 52 l 2
 262.333333333 17.3333333333 231 0 195 0 c 2
 1 0 l 2
458 720 m 256
 458 672 471.666666667 639.666666667 499 623 c 0
 526.333333333 606.333333333 579.333333333 598 658 598 c 2
 750 598 l 1
 809 854 l 1
 698 854 l 2
 616 854 555.5 843.666666667 516.5 823 c 0
 477.5 802.333333333 458 768 458 720 c 256
EndSplineSet
Validated: 524321
EndChar

StartChar: afii10096
Encoding: 1102 1102 42
Width: 1714
GlyphClass: 1
Flags: W
HStem: -20 196<924.261 1177.46> 0 21G<56 256> 448 200<446 567> 874 196<1046.76 1299.74> 1030 20G<298.333 498>
VStem: 566 296<239.186 442.914> 1362 296<409.098 812.007>
LayerCount: 2
Back
SplineSet
566 412 m 0
 566 562 621.333333333 709.166666667 732 853.5 c 128
 842.666666667 997.833333333 998 1070 1198 1070 c 256
 1371.33333333 1070 1491.33333333 1027.16666667 1558 941.5 c 128
 1624.66666667 855.833333333 1658 754.666666667 1658 638 c 0
 1658 488 1602.66666667 340.833333333 1492 196.5 c 128
 1381.33333333 52.1666666667 1226 -20 1026 -20 c 256
 852.666666667 -20 732.666666667 22.8333333333 666 108.5 c 128
 599.333333333 194.166666667 566 295.333333333 566 412 c 0
EndSplineSet
Fore
SplineSet
76 0 m 2x66
 36 0 20.6666666667 20 30 60 c 2
 245 990 l 2
 254.333333333 1030 278.666666667 1050 318 1050 c 2
 478 1050 l 2x6e
 518 1050 533.666666667 1030 525 990 c 2
 446 648 l 1
 613 648 l 1
 627 712 683 798.333333333 781 907 c 0
 879 1015.66666667 1018 1070 1198 1070 c 256
 1371.33333333 1070 1491.33333333 1027.16666667 1558 941.5 c 0
 1624.66666667 855.833333333 1658 754.666666667 1658 638 c 256
 1658 488 1602.66666667 340.833333333 1492 196.5 c 0
 1381.33333333 52.1666666667 1226 -20 1026 -20 c 256xb6
 852.666666667 -20 732.666666667 22.8333333333 666 108.5 c 0
 599.333333333 194.166666667 566 295.333333333 566 412 c 256
 566 424 566.333333333 436 567 448 c 257
 399 448 l 1
 310 60 l 2
 300.666666667 20 276 0 236 0 c 2
 76 0 l 2x66
862 387 m 256
 862 320.333333333 878.166666667 268.5 910.5 231.5 c 0
 942.833333333 194.5 987.333333333 176 1044 176 c 256
 1127.33333333 176 1201.16666667 218.833333333 1265.5 304.5 c 0
 1329.83333333 390.166666667 1362 509.666666667 1362 663 c 256
 1362 729.666666667 1345.83333333 781.5 1313.5 818.5 c 0
 1281.16666667 855.5 1236.66666667 874 1180 874 c 256xb6
 1096.66666667 874 1022.83333333 831.166666667 958.5 745.5 c 0
 894.166666667 659.833333333 862 540.333333333 862 387 c 256
EndSplineSet
Validated: 8912929
EndChar

StartChar: afii10066
Encoding: 1073 1073 43
Width: 1214
GlyphClass: 1
Flags: W
HStem: -20 196<418.195 674.314> 874 196<548.834 798.219>
VStem: 62 296<237.993 642.853> 858 296<406.533 812.007>
LayerCount: 2
Back
SplineSet
64 412 m 0
 64 562 119.333333333 709.166666667 230 853.5 c 128
 340.666666667 997.833333333 496 1070 696 1070 c 256
 869.333333333 1070 989.333333333 1027.16666667 1056 941.5 c 128
 1122.66666667 855.833333333 1156 754.666666667 1156 638 c 0
 1156 488 1100.66666667 340.833333333 990 196.5 c 128
 879.333333333 52.1666666667 724 -20 524 -20 c 256
 350.666666667 -20 230.666666667 22.8333333333 164 108.5 c 128
 97.3333333333 194.166666667 64 295.333333333 64 412 c 0
360 387 m 0
 360 320.333333333 376.166666667 268.5 408.5 231.5 c 128
 440.833333333 194.5 485.333333333 176 542 176 c 256
 625.333333333 176 699.166666667 218.833333333 763.5 304.5 c 128
 827.833333333 390.166666667 860 509.666666667 860 663 c 0
 860 729.666666667 843.833333333 781.5 811.5 818.5 c 128
 779.166666667 855.5 734.666666667 874 678 874 c 256
 594.666666667 874 520.833333333 831.166666667 456.5 745.5 c 128
 392.166666667 659.833333333 360 540.333333333 360 387 c 0
96 598 m 256
 113.333333333 674 141.333333333 764.333333333 180 869 c 128
 218.666666667 973.666666667 258.166666667 1059 298.5 1125 c 128
 338.833333333 1191 382.5 1243.66666667 429.5 1283 c 128
 476.5 1322.33333333 529.666666667 1355.16666667 589 1381.5 c 128
 648.333333333 1407.83333333 701.333333333 1424 748 1430 c 256
 816.666666667 1439.33333333 878.5 1444.83333333 933.5 1446.5 c 128
 988.5 1448.16666667 1028.33333333 1451.66666667 1053 1457 c 256
 1080.33333333 1463 1101.33333333 1474 1116 1490 c 128
 1130.66666667 1506 1153.33333333 1514 1184 1514 c 10
 1254 1514 l 18
 1280 1514 1289.33333333 1499 1282 1469 c 256
 1270.66666667 1419 1244 1374.83333333 1202 1336.5 c 128
 1160 1298.16666667 1108.66666667 1274 1048 1264 c 256
 1019.33333333 1259.33333333 981.166666667 1255.5 933.5 1252.5 c 128
 885.833333333 1249.5 833 1245 775 1239 c 128
 717 1233 655.333333333 1215.33333333 590 1186 c 0
 455.333333333 1125.33333333 366 1011.66666667 322 845 c 1
 329 841 l 17
 353.666666667 890.333333333 404.666666667 940.833333333 482 992.5 c 128
 559.333333333 1044.16666667 650 1070 754 1070 c 256
 908 1070 1018.16666667 1021.66666667 1084.5 925 c 128
 1150.83333333 828.333333333 1164.33333333 695 1125 525 c 256
 1085.66666667 355 1011 221.666666667 901 125 c 128
 791 28.3333333333 649.333333333 -20 476 -20 c 256
 294 -20 174 34.3333333333 116 143 c 128
 58 251.666666667 51.3333333333 403.333333333 96 598 c 256
EndSplineSet
Fore
SplineSet
62 412 m 256
 62 579.333333333 81.8333333333 721.166666667 121.5 837.5 c 0
 161.166666667 953.833333333 195.333333333 1033.33333333 224 1076 c 0
 252.666666667 1118.66666667 294.833333333 1170.83333333 350.5 1232.5 c 0
 406.166666667 1294.16666667 468.333333333 1340.66666667 537 1372 c 0
 605.666666667 1403.33333333 655 1421.33333333 685 1426 c 256
 749.666666667 1435.33333333 807.666666667 1442.16666667 859 1446.5 c 0
 910.333333333 1450.83333333 958.333333333 1456.66666667 1003 1464 c 256
 1055.66666667 1473.33333333 1086 1484 1094 1496 c 0
 1102 1508 1117.33333333 1514 1140 1514 c 10
 1215 1514 l 18
 1239 1514 1248.33333333 1499 1243 1469 c 256
 1233.66666667 1416.33333333 1213.16666667 1374 1181.5 1342 c 0
 1149.83333333 1310 1104.33333333 1286.66666667 1045 1272 c 256
 1013 1264 974.833333333 1258 930.5 1254 c 0
 886.166666667 1250 831.166666667 1242.83333333 765.5 1232.5 c 0
 699.833333333 1222.16666667 635.666666667 1206.66666667 573 1186 c 0
 451 1144.66666667 362.333333333 1031 307 845 c 1
 314 841 l 17
 338.666666667 890.333333333 389.666666667 940.833333333 467 992.5 c 0
 544.333333333 1044.16666667 627.333333333 1070 716 1070 c 256
 885.333333333 1070 1000.66666667 1027.16666667 1062 941.5 c 0
 1123.33333333 855.833333333 1154 754.666666667 1154 638 c 0
 1154 488 1099.33333333 340.833333333 990 196.5 c 0
 880.666666667 52.1666666667 724.666666667 -20 522 -20 c 256
 340.666666667 -20 218.666666667 22.8333333333 156 108.5 c 0
 93.3333333333 194.166666667 62 295.333333333 62 412 c 256
358 387 m 0
 358 320.333333333 374.166666667 268.5 406.5 231.5 c 0
 438.833333333 194.5 483.333333333 176 540 176 c 256
 623.333333333 176 697.166666667 218.833333333 761.5 304.5 c 0
 825.833333333 390.166666667 858 509.666666667 858 663 c 0
 858 729.666666667 841.666666667 781.5 809 818.5 c 0
 776.333333333 855.5 733.333333333 874 680 874 c 256
 601.333333333 874 528 830.333333333 460 743 c 0
 392 655.666666667 358 537 358 387 c 0
EndSplineSet
Validated: 524289
EndChar

StartChar: afii10095
Encoding: 1101 1101 45
Width: 1085
GlyphClass: 1
Flags: W
HStem: -20 196<294.794 572.091> 448 200<294.806 720> 874 196<372.009 674.059>
VStem: 743 286<648 807.434>
LayerCount: 2
Back
SplineSet
1029 638 m 256
 1029 483.333333333 973 335 861 193 c 128
 749 51 600 -20 414 -20 c 256
 314.666666667 -20 239 -5 187 25 c 128
 135 55 92 94.6666666667 58 144 c 256
 38.6666666667 172 44.3333333333 196.333333333 75 217 c 282
 184 290 l 274
 210 307.333333333 235.666666667 297.333333333 261 260 c 256
 275 239.333333333 294 220.166666667 318 202.5 c 128
 342 184.833333333 377.333333333 176 424 176 c 256
 499.333333333 176 569.666666667 218 635 302 c 128
 700.333333333 386 733 506.333333333 733 663 c 256
 733 733 716.666666667 785.666666667 684 821 c 128
 651.333333333 856.333333333 607 874 551 874 c 256
 499 874 456.5 863 423.5 841 c 128
 390.5 819 358.333333333 788.333333333 327 749 c 256
 302.333333333 718.333333333 275.333333333 716.666666667 246 744 c 266
 165 819 l 282
 139 843 139.666666667 872.333333333 167 907 c 256
 193 940.333333333 238.833333333 975.833333333 304.5 1013.5 c 128
 370.166666667 1051.16666667 458.333333333 1070 569 1070 c 256
 742.333333333 1070 862.333333333 1027.16666667 929 941.5 c 128
 995.666666667 855.833333333 1029 754.666666667 1029 638 c 256
EndSplineSet
Fore
SplineSet
67 116 m 256
 40.3333333333 144.666666667 42 171.666666667 72 197 c 258
 161 272 l 258
 189.666666667 296.666666667 215.333333333 296.666666667 238 272 c 256
 256 252.666666667 279.833333333 231.833333333 309.5 209.5 c 0
 339.166666667 187.166666667 375 176 417 176 c 256
 493 176 557.666666667 200.666666667 611 250 c 0
 664.333333333 299.333333333 700.666666667 365.333333333 720 448 c 257
 318 448 l 258
 277.333333333 448 261 464.666666667 269 498 c 258
 293 598 l 258
 301 631.333333333 324.666666667 648 364 648 c 258
 743 648 l 257
 745.666666667 720 728.833333333 775.666666667 692.5 815 c 0
 656.166666667 854.333333333 605 874 539 874 c 256
 490.333333333 874 451.333333333 868 422 856 c 0
 392.666666667 844 361.333333333 824 328 796 c 256
 295.333333333 768.666666667 269.666666667 766 251 788 c 258
 180 873 l 258
 156 901.666666667 155.333333333 926.666666667 178 948 c 256
 214 981.333333333 262.666666667 1010 324 1034 c 0
 385.333333333 1058 457 1070 539 1070 c 256
 699.666666667 1070 821.5 1029.16666667 904.5 947.5 c 0
 987.5 865.833333333 1029 755 1029 615 c 256
 1029 445 974.833333333 296.666666667 866.5 170 c 0
 758.166666667 43.3333333333 615.666666667 -20 439 -20 c 256
 323.666666667 -20 241.666666667 -6.66666666667 193 20 c 0
 144.333333333 46.6666666667 102.333333333 78.6666666667 67 116 c 256
EndSplineSet
Validated: 524321
EndChar

StartChar: afii10073
Encoding: 1079 1079 46
Width: 1038
GlyphClass: 1
Flags: W
HStem: -20 196<295.081 558.24> 448 200<311.806 586.627> 874 196<357.843 656.476>
VStem: 615 296<232.34 420.218> 695 274<689.592 847.592>
LayerCount: 2
Back
SplineSet
67 116 m 260
 40.3333333333 144.666666667 42 171.666666667 72 197 c 262
 161 272 l 262
 189.666666667 296.666666667 215.333333333 296.666666667 238 272 c 260
 256 252.666666667 279.833333333 231.833333333 309.5 209.5 c 132
 339.166666667 187.166666667 375 176 417 176 c 260
 493 176 557.666666667 200.666666667 611 250 c 132
 664.333333333 299.333333333 700.666666667 365.333333333 720 448 c 261
 318 448 l 262
 277.333333333 448 261 464.666666667 269 498 c 262
 293 598 l 262
 301 631.333333333 324.666666667 648 364 648 c 262
 743 648 l 261
 745.666666667 720 728.833333333 775.666666667 692.5 815 c 132
 656.166666667 854.333333333 605 874 539 874 c 260
 490.333333333 874 451.333333333 868 422 856 c 132
 392.666666667 844 361.333333333 824 328 796 c 260
 295.333333333 768.666666667 269.666666667 766 251 788 c 262
 180 873 l 262
 156 901.666666667 155.333333333 926.666666667 178 948 c 260
 214 981.333333333 262.666666667 1010 324 1034 c 132
 385.333333333 1058 457 1070 539 1070 c 260
 699.666666667 1070 821.5 1029.16666667 904.5 947.5 c 132
 987.5 865.833333333 1029 755 1029 615 c 260
 1029 445 974.833333333 296.666666667 866.5 170 c 132
 758.166666667 43.3333333333 615.666666667 -20 439 -20 c 260
 323.666666667 -20 241.666666667 -6.66666666667 193 20 c 132
 144.333333333 46.6666666667 102.333333333 78.6666666667 67 116 c 260
-19.6582 89 m 256
 -43.7584666667 111.666666667 -39.78158 139 -7.72754 171 c 258
 83.2812 262 l 258
 110.2584 289.333333333 142.156333333 290.333333333 178.975 265 c 256
 203.639666667 247.666666667 233.547666667 228.5 268.699 207.5 c 128
 303.851 186.5 346.093666667 176 395.427 176 c 256
 467.427 176 519.621 192 552.009 224 c 128
 584.396333333 256 604.592 289.333333333 612.596 324 c 256
 619.983333333 356 619.101333333 384.666666667 609.95 410 c 128
 600.798666667 435.333333333 557.556333333 448 480.223 448 c 258
 335.223 448 l 258
 295.223 448 279.071 464.666666667 286.767 498 c 258
 309.854 598 l 258
 317.548666667 631.333333333 341.396 648 381.396 648 c 258
 513.396 648 l 258
 561.396 648 601.987 658.5 635.169 679.5 c 128
 668.350333333 700.5 689.558666667 731 698.794 771 c 256
 707.566666667 809 695.389666667 835.666666667 662.263 851 c 128
 629.136333333 866.333333333 587.906333333 874 538.573 874 c 256
 489.906333333 874 448.111 867.666666667 413.187 855 c 128
 378.262333333 842.333333333 341.696 824 303.488 800 c 256
 267.589333333 777.333333333 242.154 778.333333333 227.182 803 c 258
 171.883 897 l 258
 155.013666667 925 163.118666667 950 196.198 972 c 256
 251.33 1008.66666667 306.050333333 1034.16666667 360.359 1048.5 c 128
 414.668333333 1062.83333333 489.156333333 1070 583.823 1070 c 256
 715.156333333 1070 819.474333333 1044.66666667 896.777 994 c 128
 974.079 943.333333333 1004.188 881 987.104 807 c 256
 970.482 735 938.835666667 679.5 892.165 640.5 c 128
 845.494333333 601.5 798.056 574.333333333 749.85 559 c 1
 749.157 556 l 1
 821.667 529.333333333 868.907333333 495 890.878 453 c 128
 912.848 411 917.522333333 362.666666667 904.901 308 c 256
 881.045 204.666666667 820.626666667 124.166666667 723.646 66.5 c 128
 626.666666667 8.83333333333 502.177 -20 350.177 -20 c 256
 226.177 -20 140.409 -8.16666666667 92.873 15.5 c 128
 45.3366 39.1666666667 7.8262 63.6666666667 -19.6582 89 c 256
EndSplineSet
Fore
SplineSet
72 102 m 256xf0
 40.6666666667 133.333333333 38.3333333333 160.666666667 65 184 c 258
 153 263 l 258
 188.333333333 295 220 296 248 266 c 256
 268 244.666666667 290 224.333333333 314 205 c 0
 338 185.666666667 376.666666667 176 430 176 c 256
 492.666666667 176 539.166666667 194 569.5 230 c 0
 599.833333333 266 615 301.666666667 615 337 c 256xf0
 615 365.666666667 605.833333333 391.333333333 587.5 414 c 0
 569.166666667 436.666666667 531.666666667 448 475 448 c 258
 335 448 l 258
 294.333333333 448 278 464.666666667 286 498 c 258
 310 598 l 258
 318 631.333333333 341.666666667 648 381 648 c 258
 513 648 l 258
 568.333333333 648 612.5 660.666666667 645.5 686 c 0
 678.5 711.333333333 695 741.666666667 695 777 c 256
 695 811.666666667 677.833333333 836.5 643.5 851.5 c 0
 609.166666667 866.5 567.333333333 874 518 874 c 256
 475.333333333 874 439.666666667 868.333333333 411 857 c 0
 382.333333333 845.666666667 353.666666667 829 325 807 c 256
 293 782.333333333 267.333333333 783.333333333 248 810 c 258
 180 905 l 258
 158 935.666666667 160.333333333 960.666666667 187 980 c 256
 218.333333333 1002.66666667 262.333333333 1023.33333333 319 1042 c 0
 375.666666667 1060.66666667 448 1070 536 1070 c 256
 672 1070 778.166666667 1048.5 854.5 1005.5 c 0
 930.833333333 962.5 969 901.333333333 969 822 c 256xe8
 969 757.333333333 947.5 701.833333333 904.5 655.5 c 0
 861.5 609.166666667 810 577 750 559 c 1
 749 556 l 1
 819 522.666666667 863.5 488.666666667 882.5 454 c 0
 901.5 419.333333333 911 382 911 342 c 256
 911 238.666666667 865.5 152.5 774.5 83.5 c 0
 683.5 14.5 562 -20 410 -20 c 256
 315.333333333 -20 242.666666667 -7 192 19 c 0
 141.333333333 45 101.333333333 72.6666666667 72 102 c 256xf0
EndSplineSet
Validated: 8912929
EndChar

StartChar: afii10078
Encoding: 1084 1084 47
Width: 1500
GlyphClass: 1
Flags: W
HStem: 0 21G<56 256 511 749 1004 1204> 1030 20G<298.333 593 1124.67 1446.33>
LayerCount: 2
Back
SplineSet
76 0 m 2
 36 0 20.6666666667 20 30 60 c 2
 245 990 l 2
 254.333333333 1030 278.666666667 1050 318 1050 c 2
 575 1050 l 2
 619 1050 642.333333333 1028.33333333 645 985 c 2
 678 394 l 2
 679.333333333 370 679.5 342.333333333 678.5 311 c 128
 677.5 279.666666667 674.666666667 254.333333333 670 235 c 1
 674 235 l 1
 678.666666667 254.333333333 687.833333333 280 701.5 312 c 128
 715.166666667 344 728 371.333333333 740 394 c 2
 1045 985 l 2
 1067.66666667 1028.33333333 1101 1050 1145 1050 c 2
 1426 1050 l 2
 1466.66666667 1050 1482.33333333 1030 1473 990 c 2
 1258 60 l 2
 1248.66666667 20 1224 0 1184 0 c 2
 1024 0 l 2
 984 0 968.666666667 20 978 60 c 2
 1094 565 l 2
 1100 591 1109.66666667 617.666666667 1123 645 c 25
 1113 645 l 17
 805 61 l 2
 783.666666667 20.3333333333 761 0 737 0 c 2
 523 0 l 2
 499 0 485.666666667 20.3333333333 483 61 c 2
 445 645 l 9
 435 645 l 25
 435 617.666666667 432 591 426 565 c 2
 310 60 l 2
 300.666666667 20 276 0 236 0 c 2
 76 0 l 2
EndSplineSet
Fore
SplineSet
76 0 m 2
 36 0 20.6666666667 20 30 60 c 2
 245 990 l 2
 254.333333333 1030 278.666666667 1050 318 1050 c 2
 571 1050 l 2
 615 1050 638.333333333 1028.33333333 641 985 c 2
 676 383 l 2
 677.333333333 359.666666667 677.5 332.166666667 676.5 300.5 c 0
 675.5 268.833333333 672.666666667 243.333333333 668 224 c 1
 672 224 l 1
 676.666666667 243.333333333 685.333333333 268 698 298 c 0
 710.666666667 328 724 356.333333333 738 383 c 2
 1047 985 l 2
 1069 1028.33333333 1102.33333333 1050 1147 1050 c 2
 1426 1050 l 2
 1466.66666667 1050 1482.33333333 1030 1473 990 c 2
 1258 60 l 2
 1248.66666667 20 1224 0 1184 0 c 2
 1024 0 l 2
 984 0 968.666666667 20 978 60 c 2
 1094 565 l 2
 1100 591 1109.66666667 617.666666667 1123 645 c 25
 1113 645 l 17
 805 61 l 2
 783.666666667 20.3333333333 761 0 737 0 c 2
 523 0 l 2
 499 0 485.666666667 20.3333333333 483 61 c 2
 445 645 l 9
 435 645 l 25
 435 617.666666667 432 591 426 565 c 2
 310 60 l 2
 300.666666667 20 276 0 236 0 c 2
 76 0 l 2
EndSplineSet
Validated: 524321
EndChar

StartChar: k
Encoding: 107 107 48
Width: 1119
GlyphClass: 1
Flags: W
HStem: 0 21G<56 256 743.667 929.333> 1030 20G<894 1130.33> 1456 20G<397 597>
LayerCount: 2
Back
SplineSet
76 0 m 2
 36 0 20.6666666667 20 30 60 c 2
 343 1416 l 2
 352.333333333 1456 377 1476 417 1476 c 2
 577 1476 l 2
 617 1476 632.333333333 1456 623 1416 c 2
 453 681 l 2
 447 654.333333333 439.666666667 627.666666667 431 601 c 1
 435 601 l 1
 846 1009 l 2
 873.333333333 1036.33333333 902.333333333 1050 933 1050 c 2
 1097 1050 l 2
 1158.33333333 1050 1163 1025.33333333 1111 976 c 2
 725 611 l 1
 951 74 l 2
 971.666666667 24.6666666667 955.666666667 0 903 0 c 2
 732 0 l 2
 698.666666667 0 675.333333333 17.3333333333 662 52 c 2
 519 417 l 1
 357 264 l 1
 310 60 l 2
 300.666666667 20 276 0 236 0 c 2
 76 0 l 2
975 16 m 10
 743 579 l 1049
370 264 m 9
 1114 976 l 1026
1024 1201 m 10
 301 516 l 1049
706 16 m 10
 474 579 l 1049
EndSplineSet
Fore
SplineSet
76 0 m 2
 36 0 20.6666666667 20 30 60 c 2
 343 1416 l 2
 352.333333333 1456 377 1476 417 1476 c 2
 577 1476 l 2
 617 1476 632.333333333 1456 623 1416 c 2
 462 719 l 2
 456 693.666666667 448.666666667 667 440 639 c 1
 444 639 l 1
 822 1009 l 2
 850 1036.33333333 879 1050 909 1050 c 2
 1100 1050 l 2
 1160.66666667 1050 1165.33333333 1025.33333333 1114 976 c 2
 728 605 l 1
 951 74 l 2
 971.666666667 24.6666666667 955.666666667 0 903 0 c 2
 760 0 l 2
 727.333333333 0 704 17.3333333333 690 52 c 2
 538 430 l 1
 355 257 l 1
 310 60 l 2
 300.666666667 20 276 0 236 0 c 2
 76 0 l 2
EndSplineSet
Validated: 524321
EndChar

StartChar: f
Encoding: 102 102 49
Width: 682
GlyphClass: 1
Flags: W
HStem: -400 21G<-15 185> 850 200<154.927 233 559 713.805> 1300 196<627.215 894.68>
LayerCount: 2
Back
SplineSet
177.238 850 m 2
 137.904666667 850 122.085666667 866.666666667 129.781 900 c 2
 152.868 1000 l 2
 160.563333333 1033.33333333 184.077666667 1050 223.411 1050 c 2
 279.411 1050 l 1
 311.733 1190 l 2
 340.053 1312.66666667 393.907333333 1394.33333333 473.296 1435 c 128
 552.684666667 1475.66666667 640.712333333 1496 737.379 1496 c 256
 783.379 1496 822.263333333 1493.33333333 854.032 1488 c 128
 885.800666667 1482.66666667 913.428 1476 936.914 1468 c 256
 959.068 1460 963.887 1443.33333333 951.371 1418 c 2
 895.283 1305 l 2
 884.203666667 1283 867.331333333 1276.33333333 844.666 1285 c 256
 831.230666667 1290.33333333 811.615333333 1294.16666667 785.82 1296.5 c 128
 760.026 1298.83333333 739.462333333 1300 724.129 1300 c 256
 675.462333333 1300 641.537333333 1283 622.354 1249 c 128
 603.171333333 1215 585.268666667 1162 568.646 1090 c 2
 559.412 1050 l 1
 691.412 1050 l 2
 730.745333333 1050 746.564 1033.33333333 738.868 1000 c 2
 715.781 900 l 2
 708.085666667 866.666666667 684.571333333 850 645.238 850 c 2
 513.238 850 l 1
 330.853 60 l 2
 321.617666667 20 297 0 257 0 c 2
 97 0 l 2
 57 0 41.6175 20 50.8525 60 c 2
 233.238 850 l 1
 177.238 850 l 2
EndSplineSet
Fore
SplineSet
177 850 m 2
 138.333333333 850 122.666666667 866.666666667 130 900 c 2
 153 1000 l 2
 161 1033.33333333 184.333333333 1050 223 1050 c 2
 279 1050 l 1
 312 1190 l 2
 337.333333333 1298.66666667 383.666666667 1376.83333333 451 1424.5 c 0
 518.333333333 1472.16666667 612 1496 732 1496 c 256
 771.333333333 1496 806.333333333 1492.16666667 837 1484.5 c 0
 867.666666667 1476.83333333 895.666666667 1468 921 1458 c 256
 944.333333333 1448.66666667 950.666666667 1431 940 1405 c 2
 895 1297 l 2
 888.333333333 1280.33333333 872 1276 846 1284 c 256
 826.666666667 1290 805.333333333 1294.16666667 782 1296.5 c 0
 758.666666667 1298.83333333 739.333333333 1300 724 1300 c 256
 668 1300 632.166666667 1280.66666667 616.5 1242 c 0
 600.833333333 1203.33333333 585 1152.66666667 569 1090 c 2
 559 1050 l 1
 691 1050 l 2
 731 1050 747 1033.33333333 739 1000 c 2
 716 900 l 2
 708 866.666666667 684.333333333 850 645 850 c 2
 513 850 l 1
 239 -340 l 2
 229.666666667 -380 205 -400 165 -400 c 2
 5 -400 l 2
 -35 -400 -50.3333333333 -380 -41 -340 c 2
 233 850 l 1
 177 850 l 2
EndSplineSet
Validated: 524321
EndChar

StartChar: t
Encoding: 116 116 50
Width: 798
GlyphClass: 1
Flags: W
HStem: -33 196<386 627.503> 850 200<154.68 245 571 755.463>
LayerCount: 2
Back
SplineSet
177.238 850 m 2
 137.904666667 850 122.085666667 866.666666667 129.781 900 c 2
 152.868 1000 l 2
 160.563333333 1033.33333333 184.077666667 1050 223.411 1050 c 2
 291.411 1050 l 1
 299.492 1085 l 2
 306.418 1115 319.728333333 1142.33333333 339.423 1167 c 2
 447.591 1302 l 2
 468.105666667 1327.33333333 488.363 1340 508.363 1340 c 2
 578.363 1340 l 2
 618.363 1340 633.746 1320 624.512 1280 c 2
 571.412 1050 l 1
 733.412 1050 l 2
 772.745333333 1050 788.564 1033.33333333 780.868 1000 c 2
 757.781 900 l 2
 750.085666667 866.666666667 726.571333333 850 687.238 850 c 2
 525.238 850 l 1
 410.728 354 l 2
 395.028666667 286 388.587666667 237.166666667 391.405 207.5 c 128
 394.223 177.833333333 415.965333333 163 456.632 163 c 256
 477.298666667 163 501.44 166.5 529.056 173.5 c 128
 556.671333333 180.5 578.582 187.333333333 594.788 194 c 256
 620.584 204.666666667 634.147666667 197 635.479 171 c 2
 639.159 57 l 2
 639.926333333 34.3333333333 627.412 17.6666666667 601.616 7 c 256
 577.307333333 -3 545.024666667 -12.1666666667 504.768 -20.5 c 128
 464.51 -28.8333333333 425.047666667 -33 386.381 -33 c 256
 291.047666667 -33 214.255 -13.3333333333 156.003 26 c 128
 97.7503333333 65.3333333333 82.784 146.333333333 111.104 269 c 2
 245.238 850 l 1
 177.238 850 l 2
EndSplineSet
Fore
SplineSet
177 850 m 2
 137.666666667 850 122 866.666666667 130 900 c 2
 153 1000 l 2
 161 1033.33333333 184.333333333 1050 223 1050 c 2
 291 1050 l 1
 299 1085 l 2
 305.666666667 1115 319 1142.33333333 339 1167 c 2
 448 1302 l 2
 468 1327.33333333 488 1340 508 1340 c 2
 578 1340 l 2
 618 1340 633.666666667 1320 625 1280 c 2
 571 1050 l 1
 733 1050 l 2
 772.333333333 1050 788.333333333 1033.33333333 781 1000 c 2
 758 900 l 2
 750 866.666666667 726.333333333 850 687 850 c 2
 525 850 l 1
 411 354 l 2
 397.666666667 295.333333333 393.5 248.833333333 398.5 214.5 c 0
 403.5 180.166666667 423 163 457 163 c 256
 477.666666667 163 500.666666667 165.5 526 170.5 c 0
 551.333333333 175.5 572.333333333 181.333333333 589 188 c 256
 613 198 626.333333333 190.333333333 629 165 c 2
 645 51 l 2
 647.666666667 29 635.333333333 12.3333333333 608 1 c 256
 584 -9 550.666666667 -17.1666666667 508 -23.5 c 0
 465.333333333 -29.8333333333 424.666666667 -33 386 -33 c 256
 263.333333333 -33 183 0.833333333333 145 68.5 c 0
 107 136.166666667 102 230 130 350 c 2
 245 850 l 1
 177 850 l 2
EndSplineSet
Validated: 524321
EndChar

StartChar: l
Encoding: 108 108 51
Width: 552
GlyphClass: 1
Flags: W
HStem: 0 21G<56 256> 1476 20G<501.333 601>
VStem: 30 598
LayerCount: 2
Fore
SplineSet
76 0 m 2
 36 0 20.6666666667 20 30 60 c 2
 303 1241 l 2
 309.666666667 1271 322.666666667 1298.33333333 342 1323 c 2
 451 1458 l 2
 471.666666667 1483.33333333 491.666666667 1496 511 1496 c 2
 581 1496 l 2
 621 1496 636.666666667 1476 628 1436 c 2
 310 60 l 2
 300.666666667 20 276 0 236 0 c 2
 76 0 l 2
EndSplineSet
Validated: 524321
EndChar

StartChar: I
Encoding: 73 73 52
Width: 612
GlyphClass: 1
Flags: W
HStem: 0 21G<86.6667 285.333> 1414 20G<417.667 616.333>
VStem: 57 589
LayerCount: 2
Fore
SplineSet
110 0 m 2
 63.3333333333 0 45.6666666667 25 57 75 c 2
 354 1359 l 2
 365.333333333 1409 394.333333333 1434 441 1434 c 2
 593 1434 l 2
 639.666666667 1434 657.333333333 1409 646 1359 c 2
 349 75 l 2
 337.666666667 25 308.666666667 0 262 0 c 2
 110 0 l 2
EndSplineSet
Validated: 524321
EndChar

StartChar: H
Encoding: 72 72 53
Width: 1442
GlyphClass: 1
Flags: W
HStem: 0 21G<86.6667 285.333 916.667 1115.33> 622 248<533 1014> 1414 20G<417.667 616.333 1247.67 1446.33>
LayerCount: 2
Fore
SplineSet
110 0 m 2
 63.3333333333 0 45.6666666667 25 57 75 c 2
 354 1359 l 2
 365.333333333 1409 394.333333333 1434 441 1434 c 2
 593 1434 l 2
 639.666666667 1434 657.333333333 1409 646 1359 c 2
 533 870 l 1
 1071 870 l 1
 1184 1359 l 2
 1195.33333333 1409 1224.33333333 1434 1271 1434 c 2
 1423 1434 l 2
 1469.66666667 1434 1487.33333333 1409 1476 1359 c 2
 1179 75 l 2
 1167.66666667 25 1138.66666667 0 1092 0 c 2
 940 0 l 2
 893.333333333 0 875.666666667 25 887 75 c 2
 1014 622 l 1
 476 622 l 1
 349 75 l 2
 337.666666667 25 308.666666667 0 262 0 c 2
 110 0 l 2
EndSplineSet
Validated: 524321
EndChar

StartChar: afii10033
Encoding: 1055 1055 54
Width: 1436
GlyphClass: 1
Flags: W
HStem: 0 21G<86.6667 285.333 910.667 1109.33> 1186 248<606 1138>
LayerCount: 2
Fore
SplineSet
110 0 m 2
 63.3333333333 0 45.6666666667 25 57 75 c 2
 354 1359 l 2
 365.333333333 1409 394.333333333 1434 441 1434 c 2
 1417 1434 l 2
 1463.66666667 1434 1481.33333333 1409 1470 1359 c 2
 1173 75 l 2
 1161.66666667 25 1132.66666667 0 1086 0 c 2
 934 0 l 2
 887.333333333 0 869.666666667 25 881 75 c 2
 1138 1186 l 1
 606 1186 l 1
 349 75 l 2
 337.666666667 25 308.666666667 0 262 0 c 2
 110 0 l 2
EndSplineSet
Validated: 524321
EndChar

StartChar: E
Encoding: 69 69 55
Width: 1280
GlyphClass: 1
Flags: W
HStem: 0 248<389 1081.96> 620 248<532 1139.96> 1186 248<606 1323.96>
LayerCount: 2
Fore
SplineSet
110 0 m 2
 63.3333333333 0 45.6666666667 25 57 75 c 2
 354 1359 l 2
 365.333333333 1409 394.333333333 1434 441 1434 c 2
 1299 1434 l 2
 1349 1434 1369 1412.33333333 1359 1369 c 2
 1332 1251 l 2
 1322 1207.66666667 1292 1186 1242 1186 c 2
 606 1186 l 9
 532 868 l 1
 1115 868 l 2
 1165 868 1185 846.333333333 1175 803 c 2
 1148 685 l 2
 1138 641.666666667 1108 620 1058 620 c 2
 475 620 l 1
 389 248 l 17
 1057 248 l 2
 1107 248 1127 226.333333333 1117 183 c 2
 1090 65 l 2
 1080 21.6666666667 1050 0 1000 0 c 2
 110 0 l 2
EndSplineSet
Validated: 524321
EndChar

StartChar: O
Encoding: 79 79 60
Width: 1532
GlyphClass: 1
Flags: W
HStem: -34 236<564.859 930.096> 1232 236<691.904 1057.14>
VStem: 104 312<351.661 869.51> 1206 312<564.49 1082.34>
LayerCount: 2
Back
SplineSet
132 717 m 256
 185.333333333 947 286.833333333 1129.66666667 436.5 1265 c 128
 586.166666667 1400.33333333 771 1468 991 1468 c 256
 1211 1468 1364.66666667 1400.33333333 1452 1265 c 128
 1539.33333333 1129.66666667 1556.66666667 947 1504 717 c 256
 1450.66666667 487 1349 304.333333333 1199 169 c 128
 1049 33.6666666667 864 -34 644 -34 c 256
 424 -34 270.333333333 33.6666666667 183 169 c 128
 95.6666666667 304.333333333 78.6666666667 487 132 717 c 256
444 717 m 256
 405.333333333 550.333333333 405.666666667 422.833333333 445 334.5 c 128
 484.333333333 246.166666667 569 202 699 202 c 256
 829 202 934 246.166666667 1014 334.5 c 128
 1094 422.833333333 1153.33333333 550.333333333 1192 717 c 256
 1230.66666667 883.666666667 1230.16666667 1011.16666667 1190.5 1099.5 c 128
 1150.83333333 1187.83333333 1066 1232 936 1232 c 256
 806 1232 701.166666667 1187.83333333 621.5 1099.5 c 128
 541.833333333 1011.16666667 482.666666667 883.666666667 444 717 c 256
EndSplineSet
Fore
SplineSet
104 587 m 256
 104 833.666666667 175 1042.16666667 317 1212.5 c 0
 459 1382.83333333 646.666666667 1468 880 1468 c 256
 1080 1468 1236.33333333 1416.16666667 1349 1312.5 c 0
 1461.66666667 1208.83333333 1518 1053.66666667 1518 847 c 256
 1518 600.333333333 1447 391.833333333 1305 221.5 c 0
 1163 51.1666666667 975.333333333 -34 742 -34 c 256
 542 -34 385.666666667 17.8333333333 273 121.5 c 0
 160.333333333 225.166666667 104 380.333333333 104 587 c 256
416 545 m 256
 416 438.333333333 444.333333333 354.5 501 293.5 c 0
 557.666666667 232.5 642.666666667 202 756 202 c 256
 889.333333333 202 997.666666667 264.833333333 1081 390.5 c 0
 1164.33333333 516.166666667 1206 682.333333333 1206 889 c 256
 1206 995.666666667 1177.66666667 1079.5 1121 1140.5 c 0
 1064.33333333 1201.5 979.333333333 1232 866 1232 c 256
 732.666666667 1232 624.333333333 1169.16666667 541 1043.5 c 0
 457.666666667 917.833333333 416 751.666666667 416 545 c 256
EndSplineSet
Validated: 524289
EndChar

StartChar: s
Encoding: 115 115 61
Width: 1005
GlyphClass: 1
Flags: W
HStem: -20 196<200.456 575.163> 874 196<460.874 770.982>
VStem: 161 277<676.491 847.865> 608 277<212.014 383.988>
LayerCount: 2
Fore
SplineSet
40 72 m 256
 10 94 3.66666666667 119.666666667 21 149 c 2
 75 239 l 2
 91 266.333333333 119.333333333 267.333333333 160 242 c 256
 196 219.333333333 239 202.666666667 289 192 c 0
 339 181.333333333 385.333333333 176 428 176 c 256
 472 176 507.666666667 182.333333333 535 195 c 0
 562.333333333 207.666666667 581.333333333 223 592 241 c 0
 602.666666667 259 608 279.333333333 608 302 c 256
 608 318 605 332.666666667 599 346 c 0
 593 359.333333333 582.333333333 371.333333333 567 382 c 0
 551.666666667 392.666666667 533.666666667 402 513 410 c 256
 472.333333333 426 440.833333333 438.833333333 418.5 448.5 c 0
 396.166666667 458.166666667 370.333333333 469.333333333 341 482 c 256
 294.333333333 502 258.5 524.666666667 233.5 550 c 0
 208.5 575.333333333 190.166666667 603.333333333 178.5 634 c 0
 166.833333333 664.666666667 161 703 161 749 c 256
 161 816.333333333 181.166666667 876.666666667 221.5 930 c 0
 261.833333333 983.333333333 314.333333333 1020 379 1040 c 0
 443.666666667 1060 522 1070 614 1070 c 256
 671.333333333 1070 727 1061.33333333 781 1044 c 24
 835 1026.66666667 878.666666667 1007.66666667 912 987 c 256
 950.666666667 963 957.666666667 935 933 903 c 26
 870 821 l 18
 852 797.666666667 822 798.666666667 780 824 c 256
 760 836 732.333333333 847.333333333 697 858 c 0
 661.666666667 868.666666667 627.666666667 874 595 874 c 256
 571.666666667 874 548 871.333333333 524 866 c 0
 500 860.666666667 479.666666667 849.166666667 463 831.5 c 0
 446.333333333 813.833333333 438 792.666666667 438 768 c 256
 438 752 440.333333333 737.333333333 445 724 c 0
 449.666666667 710.666666667 459.5 697 474.5 683 c 0
 489.5 669 505.666666667 658.333333333 523 651 c 256
 551.666666667 639 579.666666667 628 607 618 c 0
 634.333333333 608 664.666666667 595.333333333 698 580 c 256
 742.666666667 559.333333333 778.666666667 536 806 510 c 0
 833.333333333 484 853.333333333 455.5 866 424.5 c 0
 878.666666667 393.5 885 356 885 312 c 256
 885 246 861.166666667 183.833333333 813.5 125.5 c 0
 765.833333333 67.1666666667 708.166666667 28.3333333333 640.5 9 c 0
 572.833333333 -10.3333333333 499.666666667 -20 421 -20 c 256
 327 -20 252 -13.5 196 -0.5 c 24
 140 12.5 88 36.6666666667 40 72 c 256
EndSplineSet
Validated: 524321
EndChar

StartChar: afii10040
Encoding: 1062 1062 62
Width: 1522
GlyphClass: 1
Flags: W
HStem: -370 21G<1047 1217> 0 248<389 915> 1414 20G<417.667 616.333 1235.67 1434.33>
LayerCount: 2
Fore
SplineSet
110 0 m 2
 63.3333333333 0 45.6666666667 25 57 75 c 2
 354 1359 l 2
 365.333333333 1409 394.333333333 1434 441 1434 c 2
 593 1434 l 2
 639.666666667 1434 657.333333333 1409 646 1359 c 2
 389 248 l 1
 915 248 l 1
 1172 1359 l 2
 1183.33333333 1409 1212.33333333 1434 1259 1434 c 2
 1411 1434 l 2
 1457.66666667 1434 1475.33333333 1409 1464 1359 c 2
 1207 248 l 1
 1329 248 l 2
 1375.66666667 248 1393.33333333 223 1382 173 c 2
 1273 -300 l 2
 1262.33333333 -346.666666667 1237 -370 1197 -370 c 2
 1067 -370 l 2
 1027 -370 1012.33333333 -346.666666667 1023 -300 c 2
 1092 0 l 1
 110 0 l 2
EndSplineSet
Validated: 524321
EndChar

StartChar: afii10042
Encoding: 1064 1064 63
Width: 2140
GlyphClass: 1
Flags: W
HStem: 0 248<389 861 1153 1625> 1414 20G<417.667 616.333 1181.67 1380.33 1945.67 2144.33>
LayerCount: 2
Fore
SplineSet
110 0 m 2
 63.3333333333 0 45.6666666667 25 57 75 c 2
 354 1359 l 2
 365.333333333 1409 394.333333333 1434 441 1434 c 2
 593 1434 l 2
 639.666666667 1434 657.333333333 1409 646 1359 c 2
 389 248 l 1
 861 248 l 1
 1118 1359 l 2
 1129.33333333 1409 1158.33333333 1434 1205 1434 c 2
 1357 1434 l 2
 1403.66666667 1434 1421.33333333 1409 1410 1359 c 2
 1153 248 l 1
 1625 248 l 1
 1882 1359 l 2
 1893.33333333 1409 1922.33333333 1434 1969 1434 c 2
 2121 1434 l 2
 2167.66666667 1434 2185.33333333 1409 2174 1359 c 2
 1877 75 l 2
 1865.66666667 25 1836.66666667 0 1790 0 c 2
 110 0 l 2
EndSplineSet
Validated: 524321
EndChar

StartChar: afii10041
Encoding: 1063 1063 64
Width: 1308
GlyphClass: 1
Flags: W
HStem: 0 21G<782.667 981.333> 524 236<460.667 767.549> 1414 20G<369.667 568.333 1113.67 1312.33>
LayerCount: 2
Back
SplineSet
207 932 m 2
 306 1359 l 2
 317.333333333 1409 346.333333333 1434 393 1434 c 2
 545 1434 l 2
 591.666666667 1434 609.333333333 1409 598 1359 c 2
 510 980 l 2
 491.333333333 898.666666667 492.833333333 841.666666667 514.5 809 c 128
 536.166666667 776.333333333 572.666666667 760 624 760 c 256
 672 760 718.166666667 764.333333333 762.5 773 c 128
 806.833333333 781.666666667 861.666666667 799.666666667 927 827 c 1
 1050 1359 l 2
 1061.33333333 1409 1090.33333333 1434 1137 1434 c 2
 1289 1434 l 2
 1335.66666667 1434 1353.33333333 1409 1342 1359 c 2
 1045 75 l 2
 1033.66666667 25 1004.66666667 0 958 0 c 2
 806 0 l 2
 759.333333333 0 741.666666667 25 753 75 c 2
 849 491 l 2
 858.333333333 531 869.333333333 571 882 611 c 1
 875 611 l 1
 821 586.333333333 758.5 565.666666667 687.5 549 c 128
 616.5 532.333333333 552.666666667 524 496 524 c 256
 379.333333333 524 295.666666667 564.666666667 245 646 c 128
 194.333333333 727.333333333 181.666666667 822.666666667 207 932 c 2
EndSplineSet
Fore
SplineSet
212 953 m 2
 306 1359 l 2
 317.333333333 1409 346.333333333 1434 393 1434 c 2
 545 1434 l 2
 591.666666667 1434 609.333333333 1409 598 1359 c 2
 510 980 l 2
 491.333333333 898.666666667 492.333333333 841.666666667 513 809 c 0
 533.666666667 776.333333333 566.666666667 760 612 760 c 256
 660 760 708.166666667 764.333333333 756.5 773 c 0
 804.833333333 781.666666667 861.666666667 799.666666667 927 827 c 1
 1050 1359 l 2
 1061.33333333 1409 1090.33333333 1434 1137 1434 c 2
 1289 1434 l 2
 1335.66666667 1434 1353.33333333 1409 1342 1359 c 2
 1045 75 l 2
 1033.66666667 25 1004.66666667 0 958 0 c 2
 806 0 l 2
 759.333333333 0 741.666666667 25 753 75 c 2
 849 491 l 2
 857.666666667 529.666666667 868.666666667 569.666666667 882 611 c 1
 875 611 l 1
 821 586.333333333 763.666666667 565.666666667 703 549 c 0
 642.333333333 532.333333333 579.333333333 524 514 524 c 256
 407.333333333 524 323.333333333 565 262 647 c 0
 200.666666667 729 184 831 212 953 c 2
EndSplineSet
Validated: 524321
EndChar

StartChar: uni0237
Encoding: 567 567 65
Width: 562
GlyphClass: 1
Flags: HMW
HStem: -420 196<-278.233 -52.1417> 1030 20G<298.5 518.5>
DStem2: -70.9672 -420 208.959 -420 0.224951 0.97437<224.473 1517.58>
LayerCount: 2
Back
SplineSet
-295.425 -409 m 256
 -319.681 -404.333333333 -325.346 -387 -312.42 -357 c 2
 -265.024 -247 l 2
 -251.944 -216.333333333 -232.635666667 -206.333333333 -207.099 -217 c 256
 -196.176333333 -221.666666667 -172.715 -224 -136.715 -224 c 256
 -94.7148666667 -224 -60.6357 -202 -34.4775 -158 c 128
 -8.31932 -114 13.8408133333 -52.6666666667 32.0029 26 c 2
 254.56 990 l 2
 263.794 1030 288.411 1050 328.411 1050 c 2
 488.411 1050 l 2
 528.411666667 1050 543.794666667 1030 534.56 990 c 2
 305.076 -4 l 2
 266.906 -169.333333333 209.023666667 -280 131.429 -336 c 128
 53.8331333333 -392 -38.9648666667 -420 -146.965 -420 c 256
 -206.965 -420 -256.451666667 -416.333333333 -295.425 -409 c 256
EndSplineSet
Fore
SplineSet
-286 -405 m 260
 -310.666666667 -397.666666667 -317.666666667 -379 -307 -349 c 6
 -270 -243 l 6
 -262 -219.666666667 -244 -210.333333333 -216 -215 c 260
 -183.333333333 -221 -161 -224 -149 -224 c 260
 -100.333333333 -224 -62.6666666667 -202.333333333 -36 -159 c 132
 -9.33333333333 -115.666666667 13.3333333333 -54 32 26 c 6
 255 990 l 2
 264.333333333 1030 288.666666667 1050 328 1050 c 2
 488 1050 l 2
 528.666666667 1050 544.333333333 1030 535 990 c 2
 305 -4 l 6
 267 -169.333333333 211 -280 137 -336 c 132
 63 -392 -31 -420 -145 -420 c 260
 -205 -420 -252 -415 -286 -405 c 260
EndSplineSet
Validated: 524321
EndChar

StartChar: four
Encoding: 52 52 67
Width: 1200
GlyphClass: 1
Flags: W
HStem: 0 21G<595.333 788.667> 312 248<380 624 961 1097> 1420 20G<916 1120>
LayerCount: 2
Back
SplineSet
79.0312 312 m 2
 35.6978666667 312 19.0331666667 333.666666667 29.0371 377 c 2
 59.5117 509 l 2
 68.2851666667 547 85.9039333333 580 112.368 608 c 2
 846.445 1388 l 2
 879.115 1422.66666667 914.116666667 1440 951.45 1440 c 2
 1098.45 1440 l 2
 1142.45 1440 1159.44666667 1418.33333333 1149.44 1375 c 2
 961.286 560 l 1
 1082.29 560 l 2
 1125.62333333 560 1142.28666667 538.333333333 1132.28 495 c 2
 1105.04 377 l 2
 1095.03333333 333.666666667 1068.69666667 312 1026.03 312 c 2
 904.031 312 l 1
 847.007 65 l 2
 837.002333333 21.6666666667 810.333333333 0 767 0 c 2
 617 0 l 2
 573.666666667 0 557.002333333 21.6666666667 567.007 65 c 2
 624.031 312 l 1
 79.0312 312 l 2
350.286 560 m 1
 681.286 560 l 1
 770.632 947 l 2
 776.788666667 973.666666667 784.278666667 1000.33333333 793.102 1027 c 1
 789.102 1027 l 1
 350.286 560 l 1
377.824 558 m 2
 1094.9 1338 l 1026
112.368 608 m 2
 829.445 1388 l 1026
EndSplineSet
Fore
SplineSet
79 312 m 2
 35.6666666667 312 19 333.666666667 29 377 c 2
 60 509 l 2
 68.6666666667 546.333333333 86 579.333333333 112 608 c 2
 830 1388 l 2
 862 1422.66666667 897 1440 935 1440 c 2
 1098 1440 l 2
 1142 1440 1159 1418.33333333 1149 1375 c 2
 961 560 l 1
 1082 560 l 2
 1125.33333333 560 1142 538.333333333 1132 495 c 2
 1105 377 l 2
 1095 333.666666667 1068.66666667 312 1026 312 c 2
 904 312 l 1
 847 65 l 2
 837 21.6666666667 810.333333333 0 767 0 c 2
 617 0 l 2
 573.666666667 0 557 21.6666666667 567 65 c 2
 624 312 l 1
 79 312 l 2
380 560 m 1
 681 560 l 1
 764 917 l 2
 770 943.666666667 777.333333333 970.333333333 786 997 c 1
 782 997 l 1
 380 560 l 1
EndSplineSet
Validated: 524321
EndChar

StartChar: zero
Encoding: 48 48 68
Width: 1200
GlyphClass: 1
Flags: W
HStem: -34 218<447.203 669.906> 1238 218<618.094 840.797>
VStem: 100 296<242.269 800.852> 892 296<621.148 1179.73>
LayerCount: 2
Back
SplineSet
132 711 m 256
 194.666666667 981 281 1172.66666667 391 1286 c 128
 501 1399.33333333 642.666666667 1456 816 1456 c 256
 989.333333333 1456 1105 1399.33333333 1163 1286 c 128
 1221 1172.66666667 1218.66666667 981 1156 711 c 256
 1093.33333333 441 1007 249.333333333 897 136 c 128
 787 22.6666666667 645.333333333 -34 472 -34 c 256
 298.666666667 -34 183 22.6666666667 125 136 c 128
 67 249.333333333 69.3333333333 441 132 711 c 256
428 711 m 256
 399.333333333 587.666666667 382 469 376 355 c 128
 370 241 418.666666667 184 522 184 c 256
 625.333333333 184 700.333333333 241 747 355 c 128
 793.666666667 469 831.333333333 587.666666667 860 711 c 256
 888.666666667 834.333333333 906 953 912 1067 c 128
 918 1181 869.333333333 1238 766 1238 c 256
 662.666666667 1238 587.666666667 1181 541 1067 c 128
 494.333333333 953 456.666666667 834.333333333 428 711 c 256
EndSplineSet
Fore
SplineSet
100 489 m 256
 100 702.333333333 147.5 916.833333333 242.5 1132.5 c 0
 337.5 1348.16666667 510 1456 760 1456 c 256
 886.666666667 1456 989.666666667 1417.16666667 1069 1339.5 c 0
 1148.33333333 1261.83333333 1188 1126.33333333 1188 933 c 256
 1188 719.666666667 1140.5 505.166666667 1045.5 289.5 c 0
 950.5 73.8333333333 778 -34 528 -34 c 256
 401.333333333 -34 298.333333333 4.83333333333 219 82.5 c 0
 139.666666667 160.166666667 100 295.666666667 100 489 c 256
396 449 m 256
 396 355.666666667 408.5 288.166666667 433.5 246.5 c 0
 458.5 204.833333333 496 184 546 184 c 256
 662.666666667 184 749.5 278 806.5 466 c 0
 863.5 654 892 823 892 973 c 256
 892 1066.33333333 879.5 1133.83333333 854.5 1175.5 c 0
 829.5 1217.16666667 792 1238 742 1238 c 256
 625.333333333 1238 538.5 1144 481.5 956 c 0
 424.5 768 396 599 396 449 c 256
EndSplineSet
Validated: 524289
EndChar

StartChar: seven
Encoding: 55 55 69
Width: 1112
GlyphClass: 1
Flags: W
HStem: -6 21G<252.667 445.667> 1174 248<284 898>
VStem: 224 280<0.347656 231.711>
LayerCount: 2
Back
SplineSet
299 1174 m 2
 255.666666667 1174 239 1195.66666667 249 1239 c 2
 276 1357 l 2
 286 1400.33333333 312.666666667 1422 356 1422 c 2
 1172 1422 l 2
 1215.33333333 1422 1232 1400.33333333 1222 1357 c 2
 1196 1244 l 2
 1188 1210 1163 1174.33333333 1121 1137 c 0
 949 983 818 829.333333333 728 676 c 128
 638 522.666666667 568 337.666666667 518 121 c 2
 504 59 l 2
 494 15.6666666667 467.333333333 -6 424 -6 c 2
 274 -6 l 2
 230.666666667 -6 214 15.6666666667 224 59 c 2
 230 86 l 2
 285.333333333 326.666666667 371.833333333 529 489.5 693 c 128
 607.166666667 857 750 1017.33333333 918 1174 c 1
 919 1178 l 1
 891.666666667 1175.33333333 864.666666667 1174 838 1174 c 2
 299 1174 l 2
EndSplineSet
Fore
SplineSet
299 1174 m 2
 255.666666667 1174 239 1195.66666667 249 1239 c 2
 276 1357 l 2
 286 1400.33333333 312.666666667 1422 356 1422 c 2
 1172 1422 l 2
 1215.33333333 1422 1232 1400.33333333 1222 1357 c 2
 1196 1244 l 2
 1188 1208.66666667 1163 1173 1121 1137 c 0
 953 993 823.666666667 845.666666667 733 695 c 0
 642.333333333 544.333333333 570.666666667 353 518 121 c 2
 504 59 l 2
 494 15.6666666667 467.333333333 -6 424 -6 c 2
 274 -6 l 2
 231.333333333 -6 214.666666667 15.6666666667 224 59 c 2
 230 86 l 2
 289.333333333 354.666666667 379.833333333 572 501.5 738 c 0
 623.166666667 904 755 1049.33333333 897 1174 c 1
 898 1178 l 1
 870.666666667 1175.33333333 843.666666667 1174 817 1174 c 2
 299 1174 l 2
EndSplineSet
Validated: 524321
EndChar

StartChar: afii10046
Encoding: 1068 1068 70
Width: 1350
GlyphClass: 1
Flags: W
HStem: 0 244<388 817.541> 626 244<533 870.904> 1414 20G<417.667 616.333>
VStem: 923 312<327.341 574.61>
LayerCount: 2
Back
SplineSet
110 0 m 2
 63.3333333333 0 45.6666666667 25 57 75 c 2
 354 1359 l 2
 365.333333333 1409 394.333333333 1434 441 1434 c 2
 593 1434 l 2
 639.666666667 1434 657.333333333 1409 646 1359 c 2
 533 870 l 1
 688 870 l 2
 934.666666667 870 1097 830.833333333 1175 752.5 c 128
 1253 674.166666667 1276.33333333 568.333333333 1245 435 c 256
 1214.33333333 301.666666667 1142 195.833333333 1028 117.5 c 128
 914 39.1666666667 733.666666667 0 487 0 c 2
 110 0 l 2
388 244 m 1
 514 244 l 2
 654 244 754.333333333 255.833333333 815 279.5 c 128
 875.666666667 303.166666667 915 355 933 435 c 256
 951.666666667 515 936.333333333 566.833333333 887 590.5 c 128
 837.666666667 614.166666667 743 626 603 626 c 2
 477 626 l 1
 388 244 l 1
EndSplineSet
Fore
SplineSet
110 0 m 2
 63.3333333333 0 45.6666666667 25 57 75 c 2
 354 1359 l 2
 365.333333333 1409 394.333333333 1434 441 1434 c 2
 593 1434 l 2
 639.666666667 1434 657.333333333 1409 646 1359 c 2
 533 870 l 1
 668 870 l 2
 889.333333333 870 1039.16666667 831.666666667 1117.5 755 c 0
 1195.83333333 678.333333333 1235 584.666666667 1235 474 c 256
 1235 336 1174.5 222.5 1053.5 133.5 c 0
 932.5 44.5 750.333333333 0 507 0 c 2
 110 0 l 2
388 244 m 1
 534 244 l 2
 660.666666667 244 757.166666667 258.666666667 823.5 288 c 0
 889.833333333 317.333333333 923 373.666666667 923 457 c 256
 923 522.333333333 901.166666667 566.833333333 857.5 590.5 c 0
 813.833333333 614.166666667 722.333333333 626 583 626 c 2
 477 626 l 1
 388 244 l 1
EndSplineSet
Validated: 524321
EndChar

StartChar: afii10020
Encoding: 1043 1043 71
Width: 1118
GlyphClass: 1
Flags: W
HStem: 0 21G<86.6667 285.333> 1186 248<606 1244.96>
LayerCount: 2
Fore
SplineSet
110 0 m 2
 63.3333333333 0 45.6666666667 25 57 75 c 2
 354 1359 l 2
 365.333333333 1409 394.333333333 1434 441 1434 c 2
 1220 1434 l 2
 1270 1434 1290 1412.33333333 1280 1369 c 2
 1253 1251 l 2
 1243 1207.66666667 1213 1186 1163 1186 c 2
 606 1186 l 9
 349 75 l 2
 337.666666667 25 308.666666667 0 262 0 c 2
 110 0 l 2
EndSplineSet
Validated: 524321
EndChar

StartChar: afii10018
Encoding: 1041 1041 72
Width: 1370
GlyphClass: 1
Flags: W
HStem: 0 244<388 827.541> 632 244<534 881.441> 1186 248<606 1290.96>
VStem: 933 312<328.088 582.227>
LayerCount: 2
Back
SplineSet
110 0 m 2
 63.3333333333 0 45.6666666667 25 57 75 c 2
 354 1359 l 2
 365.333333333 1409 394.333333333 1434 441 1434 c 2
 1290 1434 l 2
 1340 1434 1360 1412.33333333 1350 1369 c 2
 1323 1251 l 2
 1313 1207.66666667 1283 1186 1233 1186 c 2
 606 1186 l 1
 534 876 l 1
 699 876 l 2
 945.666666667 876 1107.83333333 836.333333333 1185.5 757 c 128
 1263.16666667 677.666666667 1286.66666667 571.333333333 1256 438 c 256
 1225.33333333 304.666666667 1152.83333333 198.333333333 1038.5 119 c 128
 924.166666667 39.6666666667 743.666666667 0 497 0 c 2
 110 0 l 2
388 244 m 1
 524 244 l 2
 664 244 764.333333333 256.333333333 825 281 c 128
 885.666666667 305.666666667 925.333333333 358 944 438 c 256
 962.666666667 518 947.333333333 570.333333333 898 595 c 128
 848.666666667 619.666666667 754 632 614 632 c 2
 478 632 l 1
 388 244 l 1
EndSplineSet
Fore
SplineSet
110 0 m 2
 63.3333333333 0 45.6666666667 25 57 75 c 2
 354 1359 l 2
 365.333333333 1409 394.333333333 1434 441 1434 c 2
 1266 1434 l 2
 1316 1434 1336 1412.33333333 1326 1369 c 2
 1299 1251 l 2
 1289 1207.66666667 1259 1186 1209 1186 c 2
 606 1186 l 1
 534 876 l 1
 679 876 l 2
 900.333333333 876 1050 837.666666667 1128 761 c 0
 1206 684.333333333 1245 589.666666667 1245 477 c 256
 1245 337 1184.5 222.5 1063.5 133.5 c 0
 942.5 44.5 760.333333333 0 517 0 c 2
 110 0 l 2
388 244 m 1
 544 244 l 2
 670.666666667 244 767.166666667 258.666666667 833.5 288 c 0
 899.833333333 317.333333333 933 374.666666667 933 460 c 256
 933 527.333333333 911.333333333 572.833333333 868 596.5 c 0
 824.666666667 620.166666667 733.333333333 632 594 632 c 2
 478 632 l 1
 388 244 l 1
EndSplineSet
Validated: 524321
EndChar

StartChar: afii10194
Encoding: 1123 1123 73
Width: 1661
VWidth: 1000
GlyphClass: 1
Flags: HMW
HStem: -20 196<990.145 1217.82> 0 21G<46 266> 468 196<1069.13 1320.5> 468 119<1027.95 1091.92> 874 196<655.339 890> 1030 20G<288.5 506.5>
VStem: 1269 296<226.205 443.795>
DStem2: 11.5305 -20 291.531 -20 0.224951 0.97437<74.6963 807.87 986.14 1106.58>
LayerCount: 2
Back
SplineSet
1124 990 m 6
 1050 667 l 6
 1042.66666667 635.666666667 1035 609 1027 587 c 5
 1032 587 l 5
 1054 614.333333333 1087.5 634 1132.5 646 c 132
 1177.5 658 1218.66666667 664 1256 664 c 260
 1342 664 1415 636 1475 580 c 132
 1535 524 1565 450.333333333 1565 359 c 260
 1565 267.666666667 1523.66666667 181.666666667 1441 101 c 132
 1358.33333333 20.3333333333 1228 -20 1050 -20 c 260
 900 -20 799.833333333 25.3333333333 749.5 116 c 132
 699.166666667 206.666666667 685.666666667 303 709 405 c 6
 844 990 l 1030
972 336 m 260
 960 285.333333333 965.833333333 246 989.5 218 c 132
 1013.16666667 190 1045.33333333 176 1086 176 c 260
 1143.33333333 176 1188.16666667 191.333333333 1220.5 222 c 132
 1252.83333333 252.666666667 1269 298 1269 358 c 260
 1269 396 1257.5 423.833333333 1234.5 441.5 c 132
 1211.5 459.166666667 1186 468 1158 468 c 260
 1114.66666667 468 1075.5 457.333333333 1040.5 436 c 132
 1005.5 414.666666667 982.666666667 381.333333333 972 336 c 260
76 0 m 2
 36 0 20.6666666667 20 30 60 c 2
 245 990 l 2
 254.333333333 1030 278.666666667 1050 318 1050 c 2
 476 1050 l 2
 516 1050 531.666666667 1030 523 990 c 2
 502 900 l 1
 506 900 l 1
 536.666666667 946 576 985.833333333 624 1019.5 c 128
 672 1053.16666667 721.333333333 1070 772 1070 c 256
 855.333333333 1070 915.166666667 1046.16666667 951.5 998.5 c 128
 987.833333333 950.833333333 1006 897.666666667 1006 839 c 1
 1010 839 l 1
 1058.66666667 913.666666667 1113 970.833333333 1173 1010.5 c 128
 1233 1050.16666667 1306 1070 1392 1070 c 256
 1482 1070 1555 1034.66666667 1611 964 c 128
 1667 893.333333333 1675 772 1635 600 c 2
 1510 60 l 2
 1500.66666667 20 1476 0 1436 0 c 2
 1276 0 l 2
 1236 0 1220.66666667 20 1230 60 c 2
 1336 520 l 2
 1364.66666667 645.333333333 1375.66666667 735.666666667 1369 791 c 128
 1362.33333333 846.333333333 1334 874 1284 874 c 256
 1237.33333333 874 1188.33333333 846.833333333 1137 792.5 c 128
 1085.66666667 738.166666667 1037 611.333333333 991 412 c 2
 910 60 l 2
 900.666666667 20 876 0 836 0 c 2
 676 0 l 2
 636 0 620.666666667 20 630 60 c 2
 731 500 l 2
 762.333333333 636.666666667 774.833333333 733.166666667 768.5 789.5 c 128
 762.166666667 845.833333333 734 874 684 874 c 256
 638 874 587 837.333333333 531 764 c 128
 475 690.666666667 428.333333333 573.333333333 391 412 c 2
 310 60 l 2
 300.666666667 20 276 0 236 0 c 2
 76 0 l 2
EndSplineSet
Fore
SplineSet
76 0 m 2
 36 0 20.6666666667 20 30 60 c 2
 245 990 l 2
 254.333333333 1030 278.666666667 1050 318 1050 c 2
 476 1050 l 2
 516.666666667 1050 532.333333333 1030 523 990 c 2
 497 880 l 1
 501 880 l 1
 552.333333333 949.333333333 604.666666667 998.333333333 658 1027 c 128
 711.333333333 1055.66666667 767 1070 825 1070 c 256
 911.666666667 1070 977 1030.5 1021 951.5 c 128
 1065 872.5 1077.66666667 791 1059 707 c 2
 1050 667 l 2
 1043.33333333 638.333333333 1035.66666667 611.666666667 1027 587 c 1
 1032 587 l 1
 1054 614.333333333 1087.5 634 1132.5 646 c 128
 1177.5 658 1218.66666667 664 1256 664 c 256
 1342 664 1415 636 1475 580 c 128
 1535 524 1565 450.333333333 1565 359 c 256
 1565 267.666666667 1523.66666667 181.666666667 1441 101 c 128
 1358.33333333 20.3333333333 1228 -20 1050 -20 c 256
 900 -20 799.833333333 25.5 749.5 116.5 c 128
 699.166666667 207.5 685.666666667 303.666666667 709 405 c 2
 731 500 l 2
 762.333333333 636 775.666666667 732.333333333 771 789 c 128
 766.333333333 845.666666667 744 874 704 874 c 256
 650.666666667 874 592.333333333 828.333333333 529 737 c 128
 465.666666667 645.666666667 412.666666667 507.333333333 370 322 c 2
 310 60 l 2
 300.666666667 20 276 0 236 0 c 2
 76 0 l 2
972 336 m 256
 960 285.333333333 965.833333333 246 989.5 218 c 128
 1013.16666667 190 1045.33333333 176 1086 176 c 256
 1143.33333333 176 1188.16666667 191.333333333 1220.5 222 c 128
 1252.83333333 252.666666667 1269 298 1269 358 c 256
 1269 396 1257.5 423.833333333 1234.5 441.5 c 128
 1211.5 459.166666667 1186 468 1158 468 c 256
 1114.66666667 468 1075.5 457.333333333 1040.5 436 c 128
 1005.5 414.666666667 982.666666667 381.333333333 972 336 c 256
EndSplineSet
Validated: 8912929
EndChar

StartChar: period
Encoding: 46 46 74
Width: 668
GlyphClass: 1
Flags: W
HStem: 0 284<127.594 366.12>
VStem: 85 323
LayerCount: 2
Fore
SplineSet
138 0 m 2
 91.3333333333 0 73.6666666667 25 85 75 c 2
 116 209 l 2
 127.333333333 259 156.666666667 284 204 284 c 2
 356 284 l 2
 402.666666667 284 420 259 408 209 c 2
 377 75 l 2
 365.666666667 25 336.666666667 0 290 0 c 2
 138 0 l 2
EndSplineSet
Validated: 524321
EndChar

StartChar: h
Encoding: 104 104 75
Width: 1200
GlyphClass: 1
Flags: HMW
HStem: 0 21G<46 266 696 916> 874 196<635.994 905.5> 1456 20G<387 607>
DStem2: 16.1479 0 296.148 0 0.224951 0.97437<54.1702 834.739 999.43 1523.63> 666.148 0 946.148 0 0.224951 0.97437<54.1702 832.507>
LayerCount: 2
Back
SplineSet
76 0 m 2
 36 0 20.6666666667 20 30 60 c 2
 343 1416 l 2
 352.333333333 1456 377 1476 417 1476 c 2
 577 1476 l 2
 617 1476 632.333333333 1456 623 1416 c 2
 530 1012 l 2
 524 985.333333333 516.333333333 958.666666667 507 932 c 1
 513 932 l 1
 555.666666667 984.666666667 603 1020.83333333 655 1040.5 c 128
 707 1060.16666667 766.333333333 1070 833 1070 c 256
 937 1070 1015.5 1037.33333333 1068.5 972 c 128
 1121.5 906.666666667 1128 787.333333333 1088 614 c 2
 960 60 l 2
 950.666666667 20 926 0 886 0 c 2
 726 0 l 2
 686 0 670.666666667 20 680 60 c 2
 791 542 l 2
 824.333333333 687.333333333 835.5 779 824.5 817 c 128
 813.5 855 775 874 709 874 c 256
 639 874 580 846.833333333 532 792.5 c 128
 484 738.166666667 440.333333333 625.333333333 401 454 c 2
 310 60 l 2
 300.666666667 20 276 0 236 0 c 2
 76 0 l 2
EndSplineSet
Fore
SplineSet
76 0 m 2
 36 0 20.6666666667 20 30 60 c 2
 343 1416 l 2
 352.333333333 1456 377 1476 417 1476 c 2
 577 1476 l 2
 617 1476 632.333333333 1456 623 1416 c 2
 526 992 l 6
 520 964.666666667 512.333333333 938 503 912 c 5
 508 912 l 5
 561.333333333 974.666666667 612.166666667 1016.66666667 660.5 1038 c 132
 708.833333333 1059.33333333 766.333333333 1070 833 1070 c 260
 929.666666667 1070 1005.66666667 1034.33333333 1061 963 c 132
 1116.33333333 891.666666667 1125.33333333 775.333333333 1088 614 c 6
 960 60 l 2
 950.666666667 20 926 0 886 0 c 2
 726 0 l 2
 686 0 670.666666667 20 680 60 c 2
 791 542 l 6
 823.666666667 683.333333333 832 774 816 814 c 132
 800 854 764.333333333 874 709 874 c 260
 639 874 577 835 523 757 c 132
 469 679 425.666666667 568 393 424 c 6
 310 60 l 2
 300.666666667 20 276 0 236 0 c 2
 76 0 l 2
EndSplineSet
Validated: 524321
EndChar

StartChar: b
Encoding: 98 98 76
Width: 1192
GlyphClass: 1
Flags: HMW
HStem: -20 196<417.761 674.097> 0 21G<46 258> 874 196<624.046 789.936> 1456 20G<387 607>
VStem: 833 296<402.044 826.007>
DStem2: 11.5305 -20 290.961 -20 0.224951 0.97437<76.4933 181.068 352.806 871.865 1019.96 1544.15>
LayerCount: 2
Fore
SplineSet
76 0 m 2
 36 0 20.6666666667 20 30 60 c 2
 343 1416 l 6
 352.333333333 1456 377 1476 417 1476 c 6
 577 1476 l 6
 617 1476 632.333333333 1456 623 1416 c 6
 526 992 l 6
 520 964.666666667 512.333333333 938 503 912 c 5
 507 912 l 5
 555 969.333333333 598 1010 636 1034 c 128
 674 1058 717.333333333 1070 766 1070 c 256
 898 1070 991.5 1026.66666667 1046.5 940 c 128
 1101.5 853.333333333 1129 757 1129 651 c 256
 1129 475.666666667 1075.5 320 968.5 184 c 128
 861.5 48 737.333333333 -20 596 -20 c 256
 548 -20 498 -13.6666666667 446 -1 c 128
 394 11.6666666667 351.333333333 44 318 96 c 1
 314 96 l 1
 302 60 l 2
 288.666666667 20 266 0 234 0 c 2
 76 0 l 2
381 370 m 17
 381 306 392.166666667 257.666666667 414.5 225 c 128
 436.833333333 192.333333333 481.333333333 176 548 176 c 256
 638 176 708 226.666666667 758 328 c 128
 808 429.333333333 833 543.333333333 833 670 c 256
 833 739.333333333 820.166666667 790.666666667 794.5 824 c 128
 768.833333333 857.333333333 733.333333333 874 688 874 c 256
 641.333333333 874 591.166666667 844.333333333 537.5 785 c 128
 483.833333333 725.666666667 444 640 418 528 c 2
 381 370 l 17
EndSplineSet
Validated: 8912929
EndChar

StartChar: d
Encoding: 100 100 77
Width: 1192
GlyphClass: 1
Flags: HMW
HStem: -20 196<405.064 570.954> 0 21G<692.5 906> 874 196<520.903 777.239> 1456 20G<1027 1247>
VStem: 66 296<223.993 647.956>
DStem2: 659.531 -20 931.531 -20 0.224951 0.97437<73.0249 161.255 322.616 816.61 999.833 1544.11>
LayerCount: 2
Fore
SplineSet
66 399 m 256
 66 574.333333333 119.5 730 226.5 866 c 128
 333.5 1002 457.666666667 1070 599 1070 c 256
 647 1070 697 1063.66666667 749 1051 c 128
 801 1038.33333333 843.666666667 1006 877 954 c 1
 881 954 l 1
 883.666666667 974.666666667 888.666666667 1001.33333333 896 1034 c 2
 983 1416 l 2
 992.333333333 1456 1017 1476 1057 1476 c 2
 1217 1476 l 2
 1257 1476 1272.33333333 1456 1263 1416 c 2
 950 60 l 2
 940.666666667 20 916 0 876 0 c 2
 718 0 l 2
 684 0 670.666666667 20 678 60 c 2
 692 138 l 1
 688 138 l 1
 640 80.6666666667 597 40 559 16 c 128
 521 -8 477.666666667 -20 429 -20 c 256
 297 -20 203.5 23.3333333333 148.5 110 c 128
 93.5 196.666666667 66 293 66 399 c 256
362 380 m 256
 362 310.666666667 374.833333333 259.333333333 400.5 226 c 128
 426.166666667 192.666666667 461.666666667 176 507 176 c 256
 553.666666667 176 603.833333333 205.666666667 657.5 265 c 128
 711.166666667 324.333333333 751 410 777 522 c 2
 814 680 l 17
 814 744 802.833333333 792.333333333 780.5 825 c 128
 758.166666667 857.666666667 713.666666667 874 647 874 c 256
 557 874 487 823.333333333 437 722 c 128
 387 620.666666667 362 506.666666667 362 380 c 256
EndSplineSet
Validated: 8912929
EndChar

StartChar: X
Encoding: 88 88 78
Width: 1392
GlyphClass: 1
Flags: HMW
HStem: 0 21G<-60.5 254 959.5 1215> 1414 20G<304 556.5 1196 1508>
DStem2: -30 86 330 59 0.665728 0.746194<101.302 764.574 1191.25 1845.58> 607 1375 297 1348 0.430613 -0.902537<-85.9719 0 808.371 1404.96>
LayerCount: 2
Back
SplineSet
1172 1434 m 25
 -111 0 l 1049
1558 1434 m 25
 275 0 l 1049
579 1434 m 25
 1263 0 l 1049
256 1434 m 25
 937 0 l 1049
EndSplineSet
Fore
SplineSet
-12 0 m 2
 -76.6666666667 0 -82.6666666667 28.6666666667 -30 86 c 2
 594 764 l 1
 297 1348 l 2
 267.666666667 1405.33333333 287 1434 355 1434 c 2
 531 1434 l 2
 565 1434 590.333333333 1414.33333333 607 1375 c 2
 782 958 l 1
 1120 1375 l 2
 1152 1414.33333333 1186.66666667 1434 1224 1434 c 2
 1459 1434 l 2
 1524.33333333 1434 1530.33333333 1405.33333333 1477 1348 c 2
 898 722 l 1
 1222 86 l 2
 1251.33333333 28.6666666667 1232 0 1164 0 c 2
 985 0 l 2
 951 0 925.666666667 19.6666666667 909 59 c 2
 709 528 l 1
 330 59 l 2
 298 19.6666666667 263.333333333 0 226 0 c 2
 -12 0 l 2
EndSplineSet
Validated: 524321
EndChar

StartChar: comma
Encoding: 44 44 82
Width: 668
GlyphClass: 1
Flags: HMW
HStem: 0 284<125.594 205>
LayerCount: 2
Back
SplineSet
136 0 m 2
 89.3333333333 0 71.7718 25 83.3154 75 c 2
 114.251 209 l 2
 125.794333333 259 154.899333333 284 201.566 284 c 2
 357.566 284 l 2
 404.232666667 284 421.794666667 259 410.252 209 c 2
 379.315 75 l 258
 359.460333333 -11 337.132666667 -83.1666666667 312.332 -141.5 c 128
 287.531333333 -199.833333333 247.642 -247 192.664 -283 c 256
 152.661333333 -309 125.379 -311.666666667 110.817 -291 c 2
 82.2832 -250 l 2
 64.1315333333 -224.666666667 73.5698 -199.666666667 110.598 -175 c 256
 135.779333333 -158.333333333 155.114666667 -136.666666667 168.604 -110 c 128
 182.094 -83.3333333333 194.226 -46.6666666667 205 0 c 9
 136 0 l 2
EndSplineSet
Fore
SplineSet
136 0 m 2
 89.3333333333 0 71.6666666667 25 83 75 c 2
 114 209 l 2
 125.333333333 259 154.666666667 284 202 284 c 2
 358 284 l 2
 404.666666667 284 422 259 410 209 c 2
 379 75 l 258
 362.333333333 2.33333333333 342.666666667 -63.3333333333 320 -122 c 128
 297.333333333 -180.666666667 256.333333333 -234 197 -282 c 256
 162.333333333 -310 135 -312.666666667 115 -290 c 2
 80 -253 l 2
 60.6666666667 -233 70.3333333333 -208 109 -178 c 256
 133.666666667 -158.666666667 153.666666667 -133.833333333 169 -103.5 c 128
 184.333333333 -73.1666666667 196.333333333 -38.6666666667 205 0 c 9
 136 0 l 2
EndSplineSet
Validated: 524321
EndChar

StartChar: afii10028
Encoding: 1050 1050 83
Width: 1348
GlyphClass: 1
Flags: W
HStem: 0 21G<86.6667 285.333 950.667 1162.67> 611 244<529 656.217> 1414 20G<417.667 616.333 1213.67 1464.33>
LayerCount: 2
Back
SplineSet
110 0 m 2
 63.3333333333 0 45.7718 25 57.3154 75 c 2
 353.75 1359 l 2
 365.293333333 1409 394.398333333 1434 441.065 1434 c 2
 593.065 1434 l 2
 639.731666667 1434 657.293333333 1409 645.75 1359 c 2
 529.393 855 l 1
 559.393 855 l 2
 604.059666667 855 654.369 873.666666667 710.321 911 c 128
 766.273666667 948.333333333 818.304 994.666666667 866.412 1050 c 2
 1151.44 1375 l 2
 1185.85333333 1414.33333333 1220.39333333 1434 1255.06 1434 c 2
 1432.06 1434 l 2
 1496.72666667 1434 1502.77666667 1405.33333333 1450.21 1348 c 2
 1090.25 954 l 2
 1045.67666667 905.333333333 1003.454 864.666666667 963.582 832 c 128
 923.707333333 799.333333333 875.742666667 767 819.688 735 c 1
 819.457 734 l 1
 865.660333333 714.666666667 905.311333333 687.166666667 938.41 651.5 c 128
 971.51 615.833333333 1003.64666667 558.666666667 1034.82 480 c 2
 1189.85 86 l 2
 1212.61666667 28.6666666667 1193.33333333 0 1132 0 c 2
 945 0 l 2
 907.666666667 0 882.207 19.6666666667 868.621 59 c 2
 754.653 384 l 2
 733.480333333 445.333333333 700.921666667 498.5 656.977 543.5 c 128
 613.033 588.5 566.727666667 611 518.061 611 c 2
 473.061 611 l 1
 349.315 75 l 2
 337.771666667 25 308.666666667 0 262 0 c 2
 110 0 l 2
EndSplineSet
Fore
SplineSet
110 0 m 2
 63.3333333333 0 45.6666666667 25 57 75 c 2
 354 1359 l 2
 365.333333333 1409 394.333333333 1434 441 1434 c 2
 593 1434 l 2
 639.666666667 1434 657.333333333 1409 646 1359 c 2
 529 855 l 1
 549 855 l 2
 593 855 640.5 873.5 691.5 910.5 c 0
 742.5 947.5 792.666666667 994 842 1050 c 2
 1127 1375 l 2
 1161.66666667 1414.33333333 1196.33333333 1434 1231 1434 c 2
 1432 1434 l 2
 1496.66666667 1434 1502.66666667 1405.33333333 1450 1348 c 2
 1090 954 l 2
 1046 906 1004 865.5 964 832.5 c 0
 924 799.5 876 767 820 735 c 1
 819 734 l 1
 865 714.666666667 906.333333333 683 943 639 c 0
 979.666666667 595 1010.33333333 542 1035 480 c 2
 1190 86 l 2
 1212.66666667 28.6666666667 1193.33333333 0 1132 0 c 2
 969 0 l 2
 932.333333333 0 907 19.6666666667 893 59 c 2
 779 384 l 2
 761 436 730.666666667 486.833333333 688 536.5 c 0
 645.333333333 586.166666667 592 611 528 611 c 2
 473 611 l 1
 349 75 l 2
 337.666666667 25 308.666666667 0 262 0 c 2
 110 0 l 2
EndSplineSet
Validated: 524321
EndChar

StartChar: afii10024
Encoding: 1046 1046 84
Width: 2040
GlyphClass: 1
Flags: W
HStem: 0 21G<-54 206 800.667 999.333 1642.33 1854.33> 611 244<802.592 895 1243 1345.25> 1414 20G<306 508.333 1131.67 1330.33 1905.33 2155.67>
LayerCount: 2
Back
SplineSet
-24 0 m 2
 -84.6666666667 0 -90.6666666667 28.6666666667 -42 86 c 2
 290 480 l 2
 355.333333333 557.333333333 413.333333333 614.166666667 464 650.5 c 128
 514.666666667 686.833333333 567.333333333 714.666666667 622 734 c 1
 623 735 l 1
 589.666666667 755 557.333333333 786.833333333 526 830.5 c 128
 494.666666667 874.166666667 470.333333333 915.333333333 453 954 c 2
 280 1348 l 2
 254.666666667 1405.33333333 274 1434 338 1434 c 2
 515 1434 l 2
 550.333333333 1434 575.666666667 1414.33333333 591 1375 c 2
 721 1050 l 2
 743 995.333333333 773.5 949.166666667 812.5 911.5 c 128
 851.5 873.833333333 890 855 928 855 c 2
 951 855 l 1
 1068 1359 l 2
 1079.33333333 1409 1108.33333333 1434 1155 1434 c 2
 1307 1434 l 2
 1353.66666667 1434 1371.33333333 1409 1360 1359 c 2
 1243 855 l 1
 1266 855 l 2
 1304 855 1351.16666667 873.833333333 1407.5 911.5 c 128
 1463.83333333 949.166666667 1515.66666667 995.333333333 1563 1050 c 2
 1843 1375 l 2
 1877 1414.33333333 1911.66666667 1434 1947 1434 c 2
 2124 1434 l 2
 2188 1434 2194 1405.33333333 2142 1348 c 2
 1787 954 l 2
 1752.33333333 915.333333333 1709.33333333 874.166666667 1658 830.5 c 128
 1606.66666667 786.833333333 1559.66666667 755 1517 735 c 1
 1516 734 l 1
 1562 714.666666667 1602.16666667 686.833333333 1636.5 650.5 c 128
 1670.83333333 614.166666667 1702.66666667 557.333333333 1732 480 c 2
 1882 86 l 2
 1904 28.6666666667 1884.66666667 0 1824 0 c 2
 1637 0 l 2
 1599 0 1573.66666667 19.6666666667 1561 59 c 2
 1452 384 l 2
 1431.33333333 445.333333333 1398.83333333 498.5 1354.5 543.5 c 128
 1310.16666667 588.5 1267 611 1225 611 c 2
 1187 611 l 1
 1063 75 l 2
 1051.66666667 25 1022.66666667 0 976 0 c 2
 824 0 l 2
 777.333333333 0 759.666666667 25 771 75 c 2
 895 611 l 1
 857 611 l 2
 815 611 761.5 588.5 696.5 543.5 c 128
 631.5 498.5 574.666666667 445.333333333 526 384 c 2
 267 59 l 2
 235.666666667 19.6666666667 201 0 163 0 c 2
 -24 0 l 2
EndSplineSet
Fore
SplineSet
-24 0 m 2
 -84 0 -90 28.6666666667 -42 86 c 2
 290 480 l 2
 354.666666667 557.333333333 412.5 614.166666667 463.5 650.5 c 0
 514.5 686.833333333 567.333333333 714.666666667 622 734 c 1
 623 735 l 1
 589.666666667 755 555.666666667 790.333333333 521 841 c 0
 486.333333333 891.666666667 463.666666667 929.333333333 453 954 c 2
 280 1348 l 2
 254.666666667 1405.33333333 274 1434 338 1434 c 2
 491 1434 l 2
 525.666666667 1434 551 1414.33333333 567 1375 c 2
 697 1050 l 2
 719 995.333333333 749.666666667 949.166666667 789 911.5 c 0
 828.333333333 873.833333333 871.333333333 855 918 855 c 2
 951 855 l 1
 1068 1359 l 2
 1079.33333333 1409 1108.33333333 1434 1155 1434 c 2
 1307 1434 l 2
 1353.66666667 1434 1371.33333333 1409 1360 1359 c 2
 1243 855 l 1
 1256 855 l 2
 1289.33333333 855 1333.16666667 874 1387.5 912 c 0
 1441.83333333 950 1492.33333333 996 1539 1050 c 2
 1819 1375 l 2
 1853 1414.33333333 1887.66666667 1434 1923 1434 c 2
 2124 1434 l 2
 2187.33333333 1434 2193.33333333 1405.33333333 2142 1348 c 2
 1787 954 l 2
 1751.66666667 914.666666667 1708.5 873.333333333 1657.5 830 c 0
 1606.5 786.666666667 1559.66666667 755 1517 735 c 1
 1516 734 l 1
 1562 714.666666667 1603.5 683 1640.5 639 c 0
 1677.5 595 1708 542 1732 480 c 2
 1882 86 l 2
 1904 28.6666666667 1884.66666667 0 1824 0 c 2
 1661 0 l 2
 1623.66666667 0 1598.33333333 19.6666666667 1585 59 c 2
 1476 384 l 2
 1460 432 1428.33333333 481.833333333 1381 533.5 c 0
 1333.66666667 585.166666667 1285 611 1235 611 c 2
 1187 611 l 1
 1063 75 l 2
 1051.66666667 25 1022.66666667 0 976 0 c 2
 824 0 l 2
 777.333333333 0 759.666666667 25 771 75 c 2
 895 611 l 1
 867 611 l 2
 820.333333333 611 768.166666667 588.5 710.5 543.5 c 0
 652.833333333 498.5 599.333333333 445.333333333 550 384 c 2
 291 59 l 2
 259.666666667 19.6666666667 225 0 187 0 c 2
 -24 0 l 2
EndSplineSet
Validated: 524321
EndChar

StartChar: P
Encoding: 80 80 85
Width: 1328
GlyphClass: 1
Flags: W
HStem: 0 21G<86.6667 285.333> 536 244<512 934.519> 1190 244<607 992.406>
VStem: 1052 296<881.844 1132.3>
LayerCount: 2
Back
SplineSet
110 0 m 2
 63.3333333333 0 45.6666666667 25 57 75 c 2
 354 1359 l 2
 365.333333333 1409 394.333333333 1434 441 1434 c 2
 815 1434 l 2
 1055 1434 1212.5 1395 1287.5 1317 c 128
 1362.5 1239 1383.33333333 1128.33333333 1350 985 c 256
 1316.66666667 841.666666667 1244.66666667 731 1134 653 c 128
 1023.33333333 575 848 536 608 536 c 2
 456 536 l 1
 349 75 l 2
 337.666666667 25 308.666666667 0 262 0 c 2
 110 0 l 2
512 780 m 1
 663 780 l 2
 796.333333333 780 890.666666667 795.833333333 946 827.5 c 128
 1001.33333333 859.166666667 1037.33333333 911.666666667 1054 985 c 256
 1070.66666667 1058.33333333 1058.83333333 1110.83333333 1018.5 1142.5 c 128
 978.166666667 1174.16666667 891.333333333 1190 758 1190 c 2
 607 1190 l 1
 512 780 l 1
EndSplineSet
Fore
SplineSet
110 0 m 2
 63.3333333333 0 45.6666666667 25 57 75 c 2
 354 1359 l 2
 365.333333333 1409 394.333333333 1434 441 1434 c 2
 795 1434 l 2
 982.333333333 1434 1121.33333333 1403 1212 1341 c 0
 1302.66666667 1279 1348 1181 1348 1047 c 256
 1348 895.666666667 1288 772.666666667 1168 678 c 0
 1048 583.333333333 868 536 628 536 c 2
 456 536 l 1
 349 75 l 2
 337.666666667 25 308.666666667 0 262 0 c 2
 110 0 l 2
512 780 m 1
 683 780 l 2
 822.333333333 780 918.666666667 802 972 846 c 0
 1025.33333333 890 1052 945 1052 1011 c 256
 1052 1079 1029.33333333 1125.83333333 984 1151.5 c 0
 938.666666667 1177.16666667 856.666666667 1190 738 1190 c 2
 607 1190 l 1
 512 780 l 1
EndSplineSet
Validated: 524321
EndChar

StartChar: B
Encoding: 66 66 86
Width: 1379
GlyphClass: 1
Flags: W
HStem: 0 244<388 858.146> 618 236<529 877.788> 1190 244<607 976.786>
VStem: 940 312<317.033 560.443> 1022 296<950.232 1148.65>
LayerCount: 2
Back
SplineSet
120 0 m 2
 66.6666666667 0 45.6666666667 25 57 75 c 2
 354 1359 l 2
 365.333333333 1409 397.666666667 1434 451 1434 c 2
 791 1434 l 2
 1047 1434 1212.5 1402.5 1287.5 1339.5 c 128
 1362.5 1276.5 1385 1179.66666667 1355 1049 c 256
 1333.66666667 957.666666667 1283.83333333 887 1205.5 837 c 128
 1127.16666667 787 1055.66666667 758 991 750 c 1
 990 747 l 1
 1050 743 1114.33333333 712.333333333 1183 655 c 128
 1251.66666667 597.666666667 1274 516.666666667 1250 412 c 256
 1222 289.333333333 1149.16666667 190 1031.5 114 c 128
 913.833333333 38 740 0 510 0 c 2
 120 0 l 2
388 244 m 1
 534 244 l 2
 675.333333333 244 774.333333333 256.333333333 831 281 c 128
 887.666666667 305.666666667 925 355.666666667 943 431 c 256
 959 501.666666667 940.666666667 550.5 888 577.5 c 128
 835.333333333 604.5 746.333333333 618 621 618 c 2
 475 618 l 1
 388 244 l 1
529 854 m 1
 660 854 l 2
 746 854 830 869 912 899 c 128
 994 929 1042.33333333 975.666666667 1057 1039 c 256
 1068.33333333 1088.33333333 1056.16666667 1125.83333333 1020.5 1151.5 c 128
 984.833333333 1177.16666667 890.666666667 1190 738 1190 c 2
 607 1190 l 1
 529 854 l 1
EndSplineSet
Fore
SplineSet
120 0 m 2xf0
 66.6666666667 0 45.6666666667 25 57 75 c 2
 354 1359 l 2
 365.333333333 1409 397.666666667 1434 451 1434 c 2
 771 1434 l 2
 969 1434 1109.66666667 1401 1193 1335 c 0
 1276.33333333 1269 1318 1182.66666667 1318 1076 c 256xe8
 1318 972 1276.33333333 893.333333333 1193 840 c 0
 1109.66666667 786.666666667 1028 756.666666667 948 750 c 1
 948 747 l 1
 1025.33333333 739.666666667 1095.33333333 710 1158 658 c 0
 1220.66666667 606 1252 527.666666667 1252 423 c 256
 1252 303.666666667 1190.66666667 203.333333333 1068 122 c 0
 945.333333333 40.6666666667 766 0 530 0 c 2
 120 0 l 2xf0
388 244 m 1
 554 244 l 2
 707.333333333 244 810 259.333333333 862 290 c 0
 914 320.666666667 940 374.666666667 940 452 c 256xf0
 940 513.333333333 914.833333333 556.333333333 864.5 581 c 0
 814.166666667 605.666666667 726.333333333 618 601 618 c 2
 475 618 l 1
 388 244 l 1
529 854 m 1
 680 854 l 2
 786.666666667 854 870.333333333 873.666666667 931 913 c 0
 991.666666667 952.333333333 1022 1000 1022 1056 c 256xe8
 1022 1106.66666667 1000.33333333 1141.66666667 957 1161 c 0
 913.666666667 1180.33333333 834 1190 718 1190 c 2
 607 1190 l 1
 529 854 l 1
EndSplineSet
Validated: 8912929
EndChar

StartChar: hyphen
Encoding: 45 45 89
Width: 700
GlyphClass: 1
Flags: W
HStem: 446 214<76.0312 640.312>
VStem: 48 620
LayerCount: 2
Fore
SplineSet
96 446 m 2
 56 446 40 462.666666667 48 496 c 2
 74 610 l 2
 82 643.333333333 105.666666667 660 145 660 c 2
 619 660 l 2
 659 660 675.333333333 643.333333333 668 610 c 2
 642 496 l 2
 634 462.666666667 610 446 570 446 c 2
 96 446 l 2
EndSplineSet
Validated: 524321
EndChar

StartChar: endash
Encoding: 8211 8211 90
Width: 1032
GlyphClass: 1
Flags: W
HStem: 453 200<43.2344 996.766>
LayerCount: 2
Fore
SplineSet
103 453 m 6
 63 453 43 469.666666667 43 503 c 6
 43 603 l 6
 43 636.333333333 63 653 103 653 c 6
 937 653 l 6
 977 653 997 636.333333333 997 603 c 6
 997 503 l 6
 997 469.666666667 977 453 937 453 c 6
 103 453 l 6
EndSplineSet
Validated: 524289
EndChar

StartChar: C
Encoding: 67 67 91
Width: 1404
GlyphClass: 1
Flags: W
HStem: -34 236<553.238 939.685> 1232 236<687.734 1040>
VStem: 100 312<351.997 866.768>
LayerCount: 2
Back
SplineSet
104 587 m 256
 104 833.666666667 175 1042.16666667 317 1212.5 c 128
 459 1382.83333333 646.666666667 1468 880 1468 c 256
 1080 1468 1236.33333333 1416.16666667 1349 1312.5 c 128
 1461.66666667 1208.83333333 1518 1053.66666667 1518 847 c 256
 1518 600.333333333 1447 391.833333333 1305 221.5 c 128
 1163 51.1666666667 975.333333333 -34 742 -34 c 256
 542 -34 385.666666667 17.8333333333 273 121.5 c 128
 160.333333333 225.166666667 104 380.333333333 104 587 c 256
416 545 m 256
 416 438.333333333 444.333333333 354.5 501 293.5 c 128
 557.666666667 232.5 642.666666667 202 756 202 c 256
 889.333333333 202 997.666666667 264.833333333 1081 390.5 c 128
 1164.33333333 516.166666667 1206 682.333333333 1206 889 c 256
 1206 995.666666667 1177.66666667 1079.5 1121 1140.5 c 128
 1064.33333333 1201.5 979.333333333 1232 866 1232 c 256
 732.666666667 1232 624.333333333 1169.16666667 541 1043.5 c 128
 457.666666667 917.833333333 416 751.666666667 416 545 c 256
EndSplineSet
Fore
SplineSet
100 588 m 256
 100 820 167.333333333 1024.66666667 302 1202 c 0
 436.666666667 1379.33333333 633.333333333 1468 892 1468 c 256
 1012 1468 1114 1447.16666667 1198 1405.5 c 0
 1282 1363.83333333 1342.66666667 1312.33333333 1380 1251 c 256
 1406.66666667 1207 1401 1172.33333333 1363 1147 c 258
 1239 1064 l 258
 1208.33333333 1043.33333333 1176.33333333 1055.33333333 1143 1100 c 256
 1109.66666667 1144 1068 1177 1018 1199 c 0
 968 1221 919 1232 871 1232 c 256
 730.333333333 1232 618.666666667 1168 536 1040 c 0
 453.333333333 912 412 748.666666667 412 550 c 256
 412 449.333333333 438 366.166666667 490 300.5 c 0
 542 234.833333333 631 202 757 202 c 256
 829 202 889 215.833333333 937 243.5 c 24
 985 271.166666667 1022.66666667 304 1050 342 c 256
 1085.33333333 390.666666667 1118.66666667 406.333333333 1150 389 c 258
 1277 319 l 258
 1318.33333333 296.333333333 1324.33333333 263.666666667 1295 221 c 256
 1244.33333333 147.666666667 1172 86.8333333333 1078 38.5 c 24
 984 -9.83333333333 870 -34 736 -34 c 256
 536 -34 380 17.1666666667 268 119.5 c 0
 156 221.833333333 100 378 100 588 c 256
EndSplineSet
Validated: 524321
EndChar

StartChar: T
Encoding: 84 84 92
Width: 1246
GlyphClass: 1
Flags: W
HStem: 0 21G<390.333 615.667> 1178 256<237.877 629 921 1371.12>
LayerCount: 2
Back
SplineSet
76 1313 m 2
 76 1372 l 2
 76 1394.66666667 78.8333333333 1409.16666667 84.5 1415.5 c 128
 90.1666666667 1421.83333333 100.666666667 1426.33333333 116 1429 c 0
 118.666666667 1429.66666667 121 1430 123 1430 c 2
 1339 1430 l 2
 1369 1430 1387.5 1425.66666667 1394.5 1417 c 128
 1401.5 1408.33333333 1405 1390 1405 1362 c 2
 1405 1327 l 2
 1405 1302.33333333 1401.33333333 1286 1394 1278 c 128
 1386.66666667 1270 1370.66666667 1266 1346 1266 c 2
 836 1266 l 1
 836 61 l 2
 836 31.6666666667 830.333333333 13.3333333333 819 6 c 1
 817.666666667 6 816.166666667 5.66666666667 814.5 5 c 128
 812.833333333 4.33333333333 811.666666667 4 811 4 c 2
 805.666666667 1.33333333333 797.333333333 0 786 0 c 2
 711 0 l 2
 694.333333333 0 681.333333333 0.833333333333 672 2.5 c 128
 662.666666667 4.16666666667 656.166666667 8.66666666667 652.5 16 c 128
 648.833333333 23.3333333333 646.666666667 29.8333333333 646 35.5 c 128
 645.333333333 41.1666666667 645 52 645 68 c 2
 645 1266 l 1
 133 1266 l 2
 123 1266 114.666666667 1266.5 108 1267.5 c 128
 101.333333333 1268.5 95.8333333333 1271.16666667 91.5 1275.5 c 128
 87.1666666667 1279.83333333 84 1282.83333333 82 1284.5 c 128
 80 1286.16666667 78.5 1290.83333333 77.5 1298.5 c 128
 76.5 1306.16666667 76 1311 76 1313 c 2
EndSplineSet
Fore
SplineSet
261 1178 m 2
 211 1178 191 1199.66666667 201 1243 c 2
 230 1369 l 2
 240 1412.33333333 270 1434 320 1434 c 2
 1348 1434 l 2
 1398 1434 1418 1412.33333333 1408 1369 c 2
 1379 1243 l 2
 1369 1199.66666667 1339 1178 1289 1178 c 2
 921 1178 l 1
 662 55 l 2
 653.333333333 18.3333333333 632.333333333 0 599 0 c 2
 407 0 l 2
 373.666666667 0 361.333333333 18.3333333333 370 55 c 2
 629 1178 l 1
 261 1178 l 2
EndSplineSet
Validated: 524321
EndChar

StartChar: V
Encoding: 86 86 93
Width: 1370
GlyphClass: 1
Flags: W
HStem: 0 21G<473.667 656.333> 1414 20G<277.333 462.333 1289.67 1515>
LayerCount: 2
Back
SplineSet
239 1368 m 2
 232.333333333 1412 253 1434 301 1434 c 2
 460 1434 l 2
 504.666666667 1434 530 1411 536 1365 c 2
 649 530 l 2
 654.333333333 487.333333333 656.833333333 458.833333333 656.5 444.5 c 128
 656.166666667 430.166666667 653.666666667 406.333333333 649 373 c 1
 653 373 l 1
 664.333333333 406.333333333 673 430.166666667 679 444.5 c 128
 685 458.833333333 700.333333333 487.333333333 725 530 c 2
 1224 1365 l 2
 1251.33333333 1411 1287.33333333 1434 1332 1434 c 2
 1491 1434 l 2
 1539 1434 1549.66666667 1412 1523 1368 c 2
 748 81 l 2
 715.333333333 27 677.666666667 0 635 0 c 2
 495 0 l 2
 452.333333333 0 427.333333333 27 420 81 c 2
 239 1368 l 2
EndSplineSet
Fore
SplineSet
239 1368 m 2
 233 1412 253.666666667 1434 301 1434 c 2
 440 1434 l 2
 484.666666667 1434 510 1411 516 1365 c 2
 629 530 l 2
 633.666666667 490 636 462 636 446 c 0
 636 430 633.666666667 405.666666667 629 373 c 1
 633 373 l 1
 644.333333333 405.666666667 653.5 430.333333333 660.5 447 c 0
 667.5 463.666666667 682.333333333 491.333333333 705 530 c 2
 1204 1365 l 2
 1231.33333333 1411 1267.33333333 1434 1312 1434 c 2
 1491 1434 l 2
 1539 1434 1549.66666667 1412 1523 1368 c 2
 748 81 l 2
 715.333333333 27 677.666666667 0 635 0 c 2
 495 0 l 2
 452.333333333 0 427.333333333 27 420 81 c 2
 239 1368 l 2
EndSplineSet
Validated: 524321
EndChar

StartChar: A
Encoding: 65 65 94
Width: 1394
GlyphClass: 1
Flags: W
HStem: 0 21G<-54 171 1023 1208> 338 248<561 883> 1414 20G<791 973>
LayerCount: 2
Back
SplineSet
-30 0 m 2
 -78 0 -88.9905666667 22 -62.9717 66 c 2
 700.589 1353 l 2
 732.733666667 1407 769.806 1434 811.806 1434 c 2
 951.806 1434 l 2
 993.808666667 1434 1019.40333333 1407 1028.59 1353 c 2
 1245.03 66 l 2
 1252.34333333 22 1232 0 1184 0 c 2
 1025 0 l 2
 981 0 955.222 23 947.666 69 c 2
 902.844 338 l 1
 394.844 338 l 1
 235.666 69 l 2
 208.555333333 23 173 0 129 0 c 2
 -30 0 l 2
540.559 586 m 1
 862.559 586 l 1
 807.151 904 l 2
 800.420333333 941.333333333 797.361666667 968.5 797.975 985.5 c 128
 798.588333333 1002.5 800.770666667 1027.66666667 804.522 1061 c 1
 800.522 1061 l 1
 790.104 1027.66666667 781.588333333 1002.5 774.975 985.5 c 128
 768.361666667 968.5 753.753666667 941.333333333 731.151 904 c 2
 540.559 586 l 1
556 1373 m 2
 1054 66 l 1026
340 66 m 2
 838 1373 l 1026
43 66 m 2
 541 1373 l 1026
853 1373 m 2
 1351 66 l 1026
EndSplineSet
Fore
SplineSet
-30 0 m 2
 -78 0 -89 22 -63 66 c 2
 701 1353 l 2
 733 1407 770 1434 812 1434 c 2
 952 1434 l 2
 994 1434 1019.66666667 1407 1029 1353 c 2
 1245 66 l 2
 1252.33333333 22 1232 0 1184 0 c 2
 1045 0 l 2
 1001 0 975.333333333 23 968 69 c 2
 923 338 l 1
 415 338 l 1
 256 69 l 2
 228.666666667 23 193 0 149 0 c 2
 -30 0 l 2
561 586 m 1
 883 586 l 1
 827 904 l 2
 821.666666667 935.333333333 819 961.166666667 819 981.5 c 0
 819 1001.83333333 821 1028.33333333 825 1061 c 1
 821 1061 l 1
 810.333333333 1028.33333333 801.833333333 1003.66666667 795.5 987 c 0
 789.166666667 970.333333333 774.333333333 942.666666667 751 904 c 2
 561 586 l 1
EndSplineSet
Validated: 524321
EndChar

StartChar: afii10029
Encoding: 1051 1051 98
Width: 1482
GlyphClass: 1
Flags: W
HStem: -34 236<-27.2188 248.587> 0 21G<956.667 1155.33> 1186 248<858 1184>
LayerCount: 2
Back
SplineSet
-54 -10 m 256
 -80 -0.666666666667 -85 22 -69 58 c 2
 -16 172 l 2
 0 207.333333333 23.6666666667 220 55 210 c 256
 72.3333333333 204.666666667 91.3333333333 202 112 202 c 0
 214 202 301.166666667 274.833333333 373.5 420.5 c 128
 445.833333333 566.166666667 516.666666667 789.333333333 586 1090 c 2
 648 1359 l 2
 659.333333333 1409 688.333333333 1434 735 1434 c 2
 1475 1434 l 2
 1521.66666667 1434 1539.33333333 1409 1528 1359 c 2
 1231 75 l 2
 1219.66666667 25 1190.66666667 0 1144 0 c 2
 992 0 l 2
 945.333333333 0 927.666666667 25 939 75 c 2
 1196 1186 l 1
 858 1186 l 1
 823 1034 l 2
 731.666666667 637.333333333 628.666666667 360.166666667 514 202.5 c 128
 399.333333333 44.8333333333 254.666666667 -34 80 -34 c 0
 36 -34 -8.66666666667 -26 -54 -10 c 256
EndSplineSet
Fore
SplineSet
-44 -10 m 256xa0
 -66 -2 -71 20.6666666667 -59 58 c 2
 -23 172 l 2
 -11.6666666667 208.666666667 12 221.333333333 48 210 c 256
 65.3333333333 204.666666667 87.6666666667 202 115 202 c 0xa0
 222.333333333 202 309.666666667 271.666666667 377 411 c 0
 444.333333333 550.333333333 514 776.666666667 586 1090 c 2
 648 1359 l 2
 659.333333333 1409 688.333333333 1434 735 1434 c 2
 1463 1434 l 2
 1509.66666667 1434 1527.33333333 1409 1516 1359 c 2
 1219 75 l 2
 1207.66666667 25 1178.66666667 0 1132 0 c 2
 980 0 l 2x60
 933.333333333 0 915.666666667 25 927 75 c 2
 1184 1186 l 1
 858 1186 l 1
 823 1034 l 2
 731 634 633.833333333 356 531.5 200 c 0
 429.166666667 44 278 -34 78 -34 c 0
 42 -34 1.33333333333 -26 -44 -10 c 256xa0
EndSplineSet
Validated: 8912929
EndChar

StartChar: afii10038
Encoding: 1060 1060 99
Width: 1838
GlyphClass: 1
Flags: W
HStem: -15 21G<696.667 895.333> 160 230<509.327 690 1035 1297.01> 1070 230<637.986 900 1245 1425.67> 1422 20G<1033 1231.67>
VStem: 121 302<473.836 839.044> 1512 302<620.956 986.164>
LayerCount: 2
Back
SplineSet
134.534 730 m 256
 176.09 910 265.744666667 1050 403.498 1150 c 128
 541.252 1250 713.462333333 1300 920.129 1300 c 2
 963.129 1300 l 1
 978.597 1367 l 2
 990.140333333 1417 1019.24466667 1442 1065.91 1442 c 2
 1217.91 1442 l 2
 1264.57666667 1442 1282.14 1417 1270.6 1367 c 2
 1255.13 1300 l 1
 1298.13 1300 l 2
 1504.79666667 1300 1653.92 1250 1745.5 1150 c 128
 1837.08 1050 1862.09 910 1820.53 730 c 256
 1778.97666667 550 1689.32333333 410 1551.57 310 c 128
 1413.81666667 210 1241.60666667 160 1034.94 160 c 2
 991.938 160 l 1
 968.853 60 l 2
 957.309 10 928.203666667 -15 881.537 -15 c 2
 729.537 -15 l 2
 682.870333333 -15 665.309 10 676.853 60 c 2
 699.938 160 l 1
 656.938 160 l 2
 450.271333333 160 301.148333333 210 209.569 310 c 128
 117.989133333 410 92.9774666667 550 134.534 730 c 256
436.534 730 m 256
 412.677333333 626.666666667 420.297333333 544.166666667 459.394 482.5 c 128
 498.490666667 420.833333333 586.372333333 390 723.039 390 c 2
 753.039 390 l 1
 910.029 1070 l 1
 880.029 1070 l 2
 743.362333333 1070 641.244 1039.16666667 573.674 977.5 c 128
 506.103333333 915.833333333 460.39 833.333333333 436.534 730 c 256
1045.04 390 m 1
 1075.04 390 l 2
 1211.70666667 390 1313.82333333 420.833333333 1381.39 482.5 c 128
 1448.96333333 544.166666667 1494.67666667 626.666666667 1518.53 730 c 256
 1542.39 833.333333333 1534.77 915.833333333 1495.67 977.5 c 128
 1456.57666667 1039.16666667 1368.69666667 1070 1232.03 1070 c 2
 1202.03 1070 l 1
 1045.04 390 l 1
EndSplineSet
Fore
SplineSet
121 648 m 256
 121 825.333333333 187.5 978.333333333 320.5 1107 c 0
 453.5 1235.66666667 650 1300 910 1300 c 2
 953 1300 l 1
 969 1367 l 2
 981 1417 1010 1442 1056 1442 c 2
 1208 1442 l 2
 1255.33333333 1442 1273 1417 1261 1367 c 2
 1245 1300 l 1
 1288 1300 l 2
 1474.66666667 1300 1609 1261.33333333 1691 1184 c 0
 1773 1106.66666667 1814 982.666666667 1814 812 c 256
 1814 634.666666667 1747.5 481.666666667 1614.5 353 c 0
 1481.5 224.333333333 1285 160 1025 160 c 2
 982 160 l 1
 959 60 l 2
 947.666666667 10 918.666666667 -15 872 -15 c 2
 720 -15 l 2
 673.333333333 -15 655.666666667 10 667 60 c 2
 690 160 l 1
 647 160 l 2
 460.333333333 160 326 198.666666667 244 276 c 0
 162 353.333333333 121 477.333333333 121 648 c 256
423 632 m 256
 423 557.333333333 442 498.333333333 480 455 c 0
 518 411.666666667 595.666666667 390 713 390 c 2
 743 390 l 1
 900 1070 l 1
 870 1070 l 2
 704.666666667 1070 588.833333333 1024.5 522.5 933.5 c 0
 456.166666667 842.5 423 742 423 632 c 256
1035 390 m 1
 1065 390 l 2
 1230.33333333 390 1346.16666667 435.5 1412.5 526.5 c 0
 1478.83333333 617.5 1512 718 1512 828 c 256
 1512 902.666666667 1493 961.666666667 1455 1005 c 0
 1417 1048.33333333 1339.33333333 1070 1222 1070 c 2
 1192 1070 l 1
 1035 390 l 1
EndSplineSet
Validated: 524321
EndChar

StartChar: g
Encoding: 103 103 100
Width: 1192
GlyphClass: 1
Flags: HMW
HStem: -420 196<122.359 531.75> -11 196<410.923 573.002> 874 196<520.903 777.239> 1030 20G<936.5 1148.5>
VStem: 66 296<237.122 648.414>
DStem2: 558.878 -420 839.496 -420 0.224951 0.97437<270.626 581.421 729.034 1241.17 1411.25 1515.82>
LayerCount: 2
Back
SplineSet
81 525 m 256
 115 671.666666667 176.333333333 799.166666667 265 907.5 c 128
 353.666666667 1015.83333333 476.333333333 1070 633 1070 c 256
 693 1070 742.333333333 1061.33333333 781 1044 c 128
 819.666666667 1026.66666667 849.666666667 989.333333333 871 932 c 1
 875 932 l 1
 893 990 l 2
 905 1030 927.333333333 1050 960 1050 c 2
 1118 1050 l 2
 1158 1050 1173.66666667 1030 1165 990 c 2
 939 11 l 2
 901 -152.333333333 830.833333333 -265 728.5 -327 c 128
 626.166666667 -389 491.666666667 -420 325 -420 c 256
 254.333333333 -420 189.833333333 -416.333333333 131.5 -409 c 152
 73.1666666667 -401.666666667 16.6666666667 -383.333333333 -38 -354 c 256
 -66.6666666667 -338.666666667 -65.3333333333 -309.666666667 -34 -267 c 2
 19 -195 l 2
 40.3333333333 -165.666666667 66.3333333333 -159 97 -175 c 256
 121.666666667 -187.666666667 152.833333333 -199 190.5 -209 c 128
 228.166666667 -219 278 -224 340 -224 c 256
 425.333333333 -224 494.333333333 -208.166666667 547 -176.5 c 128
 599.666666667 -144.833333333 638.333333333 -75.6666666667 663 31 c 2
 667 48 l 2
 673 74.6666666667 680.666666667 101.333333333 690 128 c 1
 686 128 l 1
 638 70.6666666667 590.666666667 33.3333333333 544 16 c 128
 497.333333333 -1.33333333333 444 -10 384 -10 c 256
 227.333333333 -10 129.666666667 44.1666666667 91 152.5 c 128
 52.3333333333 260.833333333 49 385 81 525 c 256
377 525 m 256
 353.666666667 425 348.666666667 343.5 362 280.5 c 128
 375.333333333 217.5 427 186 517 186 c 256
 567 186 616.333333333 214.166666667 665 270.5 c 128
 713.666666667 326.833333333 748.333333333 400 769 490 c 2
 788 570 l 2
 808.666666667 660 807.666666667 733.166666667 785 789.5 c 128
 762.333333333 845.833333333 726 874 676 874 c 256
 586 874 519.833333333 842.5 477.5 779.5 c 128
 435.166666667 716.5 401.666666667 631.666666667 377 525 c 256
EndSplineSet
Fore
SplineSet
66 402 m 256
 66 575.333333333 119.5 730 226.5 866 c 128
 333.5 1002 457.666666667 1070 599 1070 c 256
 647 1070 697 1063.66666667 749 1051 c 128
 801 1038.33333333 843.666666667 1006 877 954 c 1
 881 954 l 1
 893 990 l 2
 906.333333333 1030 928.666666667 1050 960 1050 c 2
 1118 1050 l 2
 1158.66666667 1050 1174.33333333 1030 1165 990 c 2
 939 11 l 2
 903 -145 836.833333333 -255.833333333 740.5 -321.5 c 128
 644.166666667 -387.166666667 505.666666667 -420 325 -420 c 256
 248.333333333 -420 187.166666667 -414.333333333 141.5 -403 c 152
 95.8333333333 -391.666666667 45.6666666667 -371.333333333 -9 -342 c 256
 -37 -327.333333333 -40 -301 -18 -263 c 2
 25 -190 l 2
 43 -159.333333333 69 -152.666666667 103 -170 c 256
 127.666666667 -182.666666667 159 -194.833333333 197 -206.5 c 128
 235 -218.166666667 282.666666667 -224 340 -224 c 256
 412 -224 478 -208 538 -176 c 128
 598 -144 639.666666667 -75 663 31 c 2
 671 67 l 2
 676.333333333 91 684 117.666666667 694 147 c 1
 690 147 l 1
 642 89.6666666667 599 49 561 25 c 128
 523 1 479.666666667 -11 431 -11 c 260
 299 -11 205.166666667 33.5 149.5 122.5 c 128
 93.8333333333 211.5 66 304.666666667 66 402 c 256
362 383 m 256
 362 323.666666667 375.166666667 275.833333333 401.5 239.5 c 128
 427.833333333 203.166666667 463.666666667 185 509 185 c 260
 555.666666667 185 606 215.5 660 276.5 c 128
 714 337.5 753 419.333333333 777 522 c 2
 814 680 l 17
 814 744 802.833333333 792.333333333 780.5 825 c 128
 758.166666667 857.666666667 713.666666667 874 647 874 c 256
 557 874 487 823.333333333 437 722 c 128
 387 620.666666667 362 507.666666667 362 383 c 256
EndSplineSet
Validated: 8912929
EndChar

StartChar: u
Encoding: 117 117 101
Width: 1194
GlyphClass: 1
Flags: HMW
HStem: -20 196<295 552.19> 0 21G<689.5 908> 1030 20G<286.5 506 930.5 1150>
DStem2: 9.7241 -20 289.102 -20 0.224951 0.97437<328.636 1106.96> 655.531 -20 933.531 -20 0.224951 0.97437<74.6699 171.598 336.96 1106.55>
LayerCount: 2
Back
SplineSet
115 436 m 2
 243 990 l 2
 252.333333333 1030 276.666666667 1050 316 1050 c 2
 476 1050 l 2
 516 1050 531.666666667 1030 523 990 c 2
 411 508 l 2
 377.666666667 362.666666667 366.666666667 271 378 233 c 128
 389.333333333 195 427 176 491 176 c 256
 559 176 616.833333333 203.166666667 664.5 257.5 c 128
 712.166666667 311.833333333 756 424.666666667 796 596 c 2
 887 990 l 2
 896.333333333 1030 920.666666667 1050 960 1050 c 2
 1120 1050 l 2
 1160 1050 1175.66666667 1030 1167 990 c 2
 952 60 l 2
 942.666666667 20 918 0 878 0 c 2
 720 0 l 2
 680 0 664.666666667 20 674 60 c 2
 687 118 l 1
 683 118 l 1
 640.333333333 65.3333333333 593 29.1666666667 541 9.5 c 128
 489 -10.1666666667 430.666666667 -20 366 -20 c 256
 264 -20 186.666666667 12.6666666667 134 78 c 128
 81.3333333333 143.333333333 75 262.666666667 115 436 c 2
EndSplineSet
Fore
SplineSet
115 436 m 2
 243 990 l 2
 252.333333333 1030 276.666666667 1050 316 1050 c 2
 476 1050 l 2
 516 1050 531.666666667 1030 523 990 c 2
 411 508 l 2
 378.333333333 366.666666667 370.166666667 276 386.5 236 c 128
 402.833333333 196 437.666666667 176 491 176 c 256
 558.333333333 176 619.166666667 215.666666667 673.5 295 c 128
 727.833333333 374.333333333 772 487.666666667 806 635 c 2
 887 990 l 2
 896.333333333 1030 920.666666667 1050 960 1050 c 2
 1120 1050 l 2
 1160 1050 1175.66666667 1030 1167 990 c 2
 952 60 l 2
 942.666666667 20 918 0 878 0 c 2
 720 0 l 2
 679.333333333 0 664 20 674 60 c 2
 695 147 l 1
 691 147 l 1
 637.666666667 84.3333333333 586.833333333 40.8333333333 538.5 16.5 c 128
 490.166666667 -7.83333333333 432.666666667 -20 366 -20 c 256
 271.333333333 -20 196.5 15.6666666667 141.5 87 c 128
 86.5 158.333333333 77.6666666667 274.666666667 115 436 c 2
EndSplineSet
Validated: 8912929
EndChar

StartChar: z
Encoding: 122 122 102
Width: 964
GlyphClass: 1
Flags: W
HStem: 0 200<341 802.225> 850 200<196.791 602>
LayerCount: 2
Back
SplineSet
310 166 m 2
 1012 920 l 1033
-36 166 m 2
 666 920 l 1033
EndSplineSet
Fore
SplineSet
-8 0 m 2
 -47.3333333333 0 -63.3333333333 16.6666666667 -56 50 c 2
 -39 126 l 2
 -31.6666666667 158.666666667 -9.66666666667 194.666666667 27 234 c 2
 601 850 l 9
 602 854 l 25
 574.666666667 851.333333333 547.666666667 850 521 850 c 2
 212 850 l 2
 172.666666667 850 156.666666667 866.666666667 164 900 c 2
 171 932 l 2
 188.333333333 1010.66666667 217.333333333 1050 258 1050 c 2
 950 1050 l 2
 990 1050 1006.33333333 1033.33333333 999 1000 c 2
 983 930 l 2
 975 894 952.333333333 856 915 816 c 2
 342 200 l 9
 341 196 l 17
 377 198.666666667 404 200 422 200 c 2
 778 200 l 2
 818 200 834.333333333 183.333333333 827 150 c 2
 804 50 l 2
 796 16.6666666667 772 0 732 0 c 2
 -8 0 l 2
EndSplineSet
Validated: 524321
EndChar

StartChar: m
Encoding: 109 109 103
Width: 1750
GlyphClass: 1
Flags: W
HStem: 0 21G<56 256 656 856 1256 1456> 874 196<632.742 813.667 1198.75 1437> 1030 20G<298.333 496>
LayerCount: 2
Back
SplineSet
76 0 m 2
 36 0 20.6175 20 29.8525 60 c 2
 244.56 990 l 2
 253.794 1030 278.411 1050 318.411 1050 c 2
 476.411 1050 l 2
 516.411666667 1050 531.794666667 1030 522.56 990 c 2
 509.169 932 l 1
 513.169 932 l 1
 542.352333333 974.666666667 582.791333333 1008.33333333 634.486 1033 c 128
 686.181333333 1057.66666667 732.029 1070 772.029 1070 c 256
 852.029 1070 909.886333333 1051.33333333 945.601 1014 c 128
 981.315 976.666666667 1002.19466667 935 1008.24 889 c 1
 1012.24 889 l 1
 1087.63333333 964.333333333 1151.44666667 1013.33333333 1203.68 1036 c 128
 1255.91333333 1058.66666667 1318.69666667 1070 1392.03 1070 c 256
 1490.69666667 1070 1566.32 1037.33333333 1618.9 972 c 128
 1671.48666667 906.666666667 1677.77 787.333333333 1637.75 614 c 2
 1509.85 60 l 2
 1500.61666667 20 1476 0 1436 0 c 2
 1276 0 l 2
 1236 0 1220.61666667 20 1229.85 60 c 2
 1341.13 542 l 2
 1374.68333333 687.333333333 1386.01333333 779 1375.12 817 c 128
 1364.22666667 855 1333.78 874 1283.78 874 c 256
 1237.11333333 874 1188.13666667 846.666666667 1136.85 792 c 128
 1085.56333333 737.333333333 1040.21666667 624.666666667 1000.81 454 c 2
 909.853 60 l 2
 900.617666667 20 876 0 836 0 c 2
 676 0 l 2
 636 0 620.617666667 20 629.853 60 c 2
 741.131 542 l 2
 774.683666667 687.333333333 786.013 779 775.119 817 c 128
 764.225666667 855 733.779 874 683.779 874 c 256
 637.112333333 874 588.173666667 846.833333333 536.963 792.5 c 128
 485.752333333 738.166666667 440.369333333 625.333333333 400.814 454 c 2
 309.853 60 l 2
 300.617666667 20 276 0 236 0 c 2
 76 0 l 2
EndSplineSet
Fore
SplineSet
76 0 m 2xc0
 36 0 20.6666666667 20 30 60 c 2
 245 990 l 2
 254.333333333 1030 278.666666667 1050 318 1050 c 2
 476 1050 l 2xa0
 516 1050 531.666666667 1030 523 990 c 2
 502 900 l 1
 506 900 l 1
 536.666666667 946 576 985.833333333 624 1019.5 c 0
 672 1053.16666667 721.333333333 1070 772 1070 c 256
 855.333333333 1070 915.166666667 1046.16666667 951.5 998.5 c 0
 987.833333333 950.833333333 1006 897.666666667 1006 839 c 1
 1010 839 l 1
 1058.66666667 913.666666667 1113 970.833333333 1173 1010.5 c 0
 1233 1050.16666667 1306 1070 1392 1070 c 256
 1482 1070 1555 1034.66666667 1611 964 c 0
 1667 893.333333333 1675 772 1635 600 c 2
 1510 60 l 2
 1500.66666667 20 1476 0 1436 0 c 2
 1276 0 l 2
 1236 0 1220.66666667 20 1230 60 c 2
 1336 520 l 2
 1364.66666667 645.333333333 1375.66666667 735.666666667 1369 791 c 0
 1362.33333333 846.333333333 1334 874 1284 874 c 256
 1237.33333333 874 1188.33333333 846.833333333 1137 792.5 c 0
 1085.66666667 738.166666667 1037 611.333333333 991 412 c 2
 910 60 l 2
 900.666666667 20 876 0 836 0 c 2
 676 0 l 2
 636 0 620.666666667 20 630 60 c 2
 731 500 l 2
 762.333333333 636.666666667 774.833333333 733.166666667 768.5 789.5 c 0
 762.166666667 845.833333333 734 874 684 874 c 256
 638 874 587 837.333333333 531 764 c 0
 475 690.666666667 428.333333333 573.333333333 391 412 c 2
 310 60 l 2
 300.666666667 20 276 0 236 0 c 2
 76 0 l 2xc0
EndSplineSet
Validated: 8912929
EndChar

StartChar: afii10044
Encoding: 1066 1066 105
Width: 1746
GlyphClass: 1
Flags: W
HStem: 0 244<784 1213.54> 626 244<929 1266.9> 1186 248<238.039 710>
VStem: 1319 312<327.341 574.61>
LayerCount: 2
Back
SplineSet
263 1186 m 2
 213 1186 193 1207.66666667 203 1251 c 2
 230 1369 l 2
 240 1412.33333333 270 1434 320 1434 c 2
 989 1434 l 2
 1035.66666667 1434 1053.33333333 1409 1042 1359 c 2
 929 870 l 1
 1084 870 l 2
 1330.66666667 870 1493 830.833333333 1571 752.5 c 128
 1649 674.166666667 1672.33333333 568.333333333 1641 435 c 256
 1610.33333333 301.666666667 1538 195.833333333 1424 117.5 c 128
 1310 39.1666666667 1129.66666667 0 883 0 c 2
 506 0 l 2
 459.333333333 0 441.666666667 25 453 75 c 2
 710 1186 l 1
 263 1186 l 2
784 244 m 1
 910 244 l 2
 1050 244 1150.33333333 255.833333333 1211 279.5 c 128
 1271.66666667 303.166666667 1311 355 1329 435 c 256
 1347.66666667 515 1332.33333333 566.833333333 1283 590.5 c 128
 1233.66666667 614.166666667 1139 626 999 626 c 2
 873 626 l 1
 784 244 l 1
EndSplineSet
Fore
SplineSet
263 1186 m 2
 213 1186 193 1207.66666667 203 1251 c 2
 230 1369 l 2
 240 1412.33333333 270 1434 320 1434 c 2
 989 1434 l 2
 1035.66666667 1434 1053.33333333 1409 1042 1359 c 2
 929 870 l 1
 1064 870 l 2
 1285.33333333 870 1435.16666667 831.666666667 1513.5 755 c 0
 1591.83333333 678.333333333 1631 584.666666667 1631 474 c 256
 1631 336 1570.5 222.5 1449.5 133.5 c 0
 1328.5 44.5 1146.33333333 0 903 0 c 2
 506 0 l 2
 459.333333333 0 441.666666667 25 453 75 c 2
 710 1186 l 1
 263 1186 l 2
784 244 m 1
 930 244 l 2
 1056.66666667 244 1153.16666667 258.666666667 1219.5 288 c 0
 1285.83333333 317.333333333 1319 373.666666667 1319 457 c 256
 1319 522.333333333 1297.16666667 566.833333333 1253.5 590.5 c 0
 1209.83333333 614.166666667 1118.33333333 626 979 626 c 2
 873 626 l 1
 784 244 l 1
EndSplineSet
Validated: 524321
EndChar

StartChar: afii10043
Encoding: 1065 1065 106
Width: 2232
GlyphClass: 1
Flags: W
HStem: -370 21G<1757 1927> 0 248<389 861 1153 1625> 1414 20G<417.667 616.333 1181.67 1380.33 1945.67 2144.33>
LayerCount: 2
Fore
SplineSet
110 0 m 2
 63.3333333333 0 45.6666666667 25 57 75 c 2
 354 1359 l 2
 365.333333333 1409 394.333333333 1434 441 1434 c 2
 593 1434 l 2
 639.666666667 1434 657.333333333 1409 646 1359 c 2
 389 248 l 1
 861 248 l 1
 1118 1359 l 2
 1129.33333333 1409 1158.33333333 1434 1205 1434 c 2
 1357 1434 l 2
 1403.66666667 1434 1421.33333333 1409 1410 1359 c 2
 1153 248 l 1
 1625 248 l 1
 1882 1359 l 2
 1893.33333333 1409 1922.33333333 1434 1969 1434 c 2
 2121 1434 l 2
 2167.66666667 1434 2185.33333333 1409 2174 1359 c 2
 1917 248 l 17
 2039 248 l 2
 2085.66666667 248 2103.33333333 223 2092 173 c 2
 1983 -300 l 2
 1972.33333333 -346.666666667 1947 -370 1907 -370 c 2
 1777 -370 l 2
 1737 -370 1722.33333333 -346.666666667 1733 -300 c 2
 1802 0 l 25
 110 0 l 2
EndSplineSet
Validated: 524321
EndChar

StartChar: afii10048
Encoding: 1070 1070 107
Width: 2096
GlyphClass: 1
Flags: W
HStem: -34 236<1128.86 1494.1> 0 21G<86.6667 285.333> 622 248<533 669> 1232 236<1254.84 1621.14> 1414 20G<417.667 616.333>
VStem: 668 312<352.935 620.602> 1770 312<564.49 1082.34>
LayerCount: 2
Back
SplineSet
668 587 m 256
 668 833.666666667 739 1042.16666667 881 1212.5 c 128
 1023 1382.83333333 1210.66666667 1468 1444 1468 c 256
 1644 1468 1800.33333333 1416.16666667 1913 1312.5 c 128
 2025.66666667 1208.83333333 2082 1053.66666667 2082 847 c 256
 2082 600.333333333 2011 391.833333333 1869 221.5 c 128
 1727 51.1666666667 1539.33333333 -34 1306 -34 c 256
 1106 -34 949.666666667 17.8333333333 837 121.5 c 128
 724.333333333 225.166666667 668 380.333333333 668 587 c 256
980 545 m 256
 980 438.333333333 1008.33333333 354.5 1065 293.5 c 128
 1121.66666667 232.5 1206.66666667 202 1320 202 c 256
 1453.33333333 202 1561.66666667 264.833333333 1645 390.5 c 128
 1728.33333333 516.166666667 1770 682.333333333 1770 889 c 256
 1770 995.666666667 1741.66666667 1079.5 1685 1140.5 c 128
 1628.33333333 1201.5 1543.33333333 1232 1430 1232 c 256
 1296.66666667 1232 1188.33333333 1169.16666667 1105 1043.5 c 128
 1021.66666667 917.833333333 980 751.666666667 980 545 c 256
EndSplineSet
Fore
SplineSet
110 0 m 2x66
 63.3333333333 0 45.6666666667 25 57 75 c 2
 354 1359 l 2
 365.333333333 1409 394.333333333 1434 441 1434 c 2
 593 1434 l 2x6e
 639.666666667 1434 657.333333333 1409 646 1359 c 2
 533 870 l 1
 703 870 l 1
 731.666666667 1002 808.666666667 1134.66666667 934 1268 c 0
 1059.33333333 1401.33333333 1229.33333333 1468 1444 1468 c 256
 1644 1468 1800.33333333 1416.16666667 1913 1312.5 c 0
 2025.66666667 1208.83333333 2082 1053.66666667 2082 847 c 256
 2082 600.333333333 2011 391.833333333 1869 221.5 c 0
 1727 51.1666666667 1539.33333333 -34 1306 -34 c 256xb6
 1106 -34 949.666666667 17.8333333333 837 121.5 c 0
 724.333333333 225.166666667 668 380.333333333 668 587 c 256
 668 599 668.333333333 610.666666667 669 622 c 257
 476 622 l 1
 349 75 l 2
 337.666666667 25 308.666666667 0 262 0 c 2
 110 0 l 2x66
980 545 m 256
 980 438.333333333 1008.33333333 354.5 1065 293.5 c 0
 1121.66666667 232.5 1206.66666667 202 1320 202 c 256
 1453.33333333 202 1561.66666667 264.833333333 1645 390.5 c 0
 1728.33333333 516.166666667 1770 682.333333333 1770 889 c 256
 1770 995.666666667 1741.66666667 1079.5 1685 1140.5 c 0
 1628.33333333 1201.5 1543.33333333 1232 1430 1232 c 256xb6
 1296.66666667 1232 1188.33333333 1169.16666667 1105 1043.5 c 0
 1021.66666667 917.833333333 980 751.666666667 980 545 c 256
EndSplineSet
Validated: 8912929
EndChar

StartChar: M
Encoding: 77 77 108
Width: 1828
GlyphClass: 1
Flags: W
HStem: 0 21G<86.6667 285.333 688.667 899.333 1302.67 1501.33> 1414 20G<417.667 736.667 1485.67 1832.33>
LayerCount: 2
Back
SplineSet
110 0 m 2
 63.3333333333 0 45.6666666667 25 57 75 c 2
 354 1359 l 2
 365.333333333 1409 394.333333333 1434 441 1434 c 2
 731 1434 l 2
 769.666666667 1434 791.333333333 1407.33333333 796 1354 c 2
 864 477 l 2
 867.333333333 439 868.5 407.833333333 867.5 383.5 c 128
 866.5 359.166666667 864 330.333333333 860 297 c 1
 866 297 l 1
 877.333333333 330.333333333 888 359.166666667 898 383.5 c 128
 908 407.833333333 923.333333333 439 944 477 c 2
 1418 1354 l 2
 1446.66666667 1407.33333333 1480.33333333 1434 1519 1434 c 2
 1809 1434 l 2
 1855.66666667 1434 1873.33333333 1409 1862 1359 c 2
 1565 75 l 2
 1553.66666667 25 1524.66666667 0 1478 0 c 2
 1326 0 l 2
 1279.33333333 0 1261.66666667 25 1273 75 c 2
 1464 901 l 2
 1473.33333333 941 1484.33333333 981 1497 1021 c 9
 1490 1021 l 25
 984 81 l 2
 954.666666667 27 919.666666667 0 879 0 c 2
 709 0 l 2
 668.333333333 0 646 27 642 81 c 2
 570 1021 l 25
 563 1021 l 17
 557 981 549.333333333 941 540 901 c 2
 349 75 l 2
 337.666666667 25 308.666666667 0 262 0 c 2
 110 0 l 2
EndSplineSet
Fore
SplineSet
110 0 m 2
 63.3333333333 0 45.6666666667 25 57 75 c 2
 354 1359 l 2
 365.333333333 1409 394.333333333 1434 441 1434 c 2
 717 1434 l 2
 756.333333333 1434 778 1407.33333333 782 1354 c 2
 850 477 l 2
 853.333333333 435.666666667 854.5 403.666666667 853.5 381 c 0
 852.5 358.333333333 850 330.333333333 846 297 c 1
 852 297 l 1
 863.333333333 330.333333333 873.833333333 359 883.5 383 c 0
 893.166666667 407 908.666666667 438.333333333 930 477 c 2
 1404 1354 l 2
 1432.66666667 1407.33333333 1466.33333333 1434 1505 1434 c 2
 1809 1434 l 2
 1855.66666667 1434 1873.33333333 1409 1862 1359 c 2
 1565 75 l 2
 1553.66666667 25 1524.66666667 0 1478 0 c 2
 1326 0 l 2
 1279.33333333 0 1261.66666667 25 1273 75 c 2
 1464 901 l 2
 1473.33333333 940.333333333 1484.33333333 980.333333333 1497 1021 c 9
 1490 1021 l 25
 984 81 l 2
 954.666666667 27 919.666666667 0 879 0 c 2
 709 0 l 2
 668.333333333 0 646 27 642 81 c 2
 570 1021 l 25
 563 1021 l 17
 557 982.333333333 549.333333333 942.333333333 540 901 c 2
 349 75 l 2
 337.666666667 25 308.666666667 0 262 0 c 2
 110 0 l 2
EndSplineSet
Validated: 524321
EndChar

StartChar: Z
Encoding: 90 90 109
Width: 1252
GlyphClass: 1
Flags: W
HStem: 0 248<396 1077.96> 1186 248<305.039 896>
LayerCount: 2
Back
SplineSet
-157 62 m 2
 1104 1408 l 1033
222 62 m 2
 1483 1408 l 1033
EndSplineSet
Fore
SplineSet
16 0 m 2
 -34 0 -54 21.6666666667 -44 65 c 2
 -25 147 l 2
 -13.6666666667 195 14 242.666666667 58 290 c 2
 894 1184 l 9
 896 1191 l 25
 855.333333333 1187.66666667 815 1186 775 1186 c 2
 330 1186 l 2
 280 1186 260 1207.66666667 270 1251 c 2
 297 1369 l 2
 307 1412.33333333 337 1434 387 1434 c 2
 1299 1434 l 2
 1349 1434 1369 1412.33333333 1359 1369 c 2
 1344 1302 l 2
 1336 1265.33333333 1316.33333333 1230.33333333 1285 1197 c 2
 398 250 l 9
 396 243 l 17
 436.666666667 246.333333333 477 248 517 248 c 2
 1053 248 l 2
 1103 248 1123 226.333333333 1113 183 c 2
 1086 65 l 2
 1076 21.6666666667 1046 0 996 0 c 2
 16 0 l 2
EndSplineSet
Validated: 524321
EndChar

StartChar: afii10026
Encoding: 1048 1048 110
Width: 1492
GlyphClass: 1
Flags: W
HStem: 0 21G<86.6667 338.667 966.667 1165.33> 1414 20G<417.667 616.333 1244.33 1496.33>
LayerCount: 2
Back
SplineSet
110 0 m 2
 63.3333333333 0 45.6666666667 25 57 75 c 2
 354 1359 l 2
 365.333333333 1409 394.333333333 1434 441 1434 c 2
 593 1434 l 2
 639.666666667 1434 657.333333333 1409 646 1359 c 2
 464 570 l 2
 454.666666667 530 443.666666667 490 431 450 c 25
 438 450 l 17
 1139 1364 l 2
 1175 1410.66666667 1223.66666667 1434 1285 1434 c 2
 1473 1434 l 2
 1519.66666667 1434 1537.33333333 1409 1526 1359 c 2
 1229 75 l 2
 1217.66666667 25 1188.66666667 0 1142 0 c 2
 990 0 l 2
 943.333333333 0 925.666666667 25 937 75 c 2
 1119 864 l 2
 1128.33333333 904 1139.33333333 944 1152 984 c 9
 1145 984 l 17
 444 70 l 2
 408 23.3333333333 359.333333333 0 298 0 c 2
 110 0 l 2
EndSplineSet
Fore
SplineSet
110 0 m 2
 63.3333333333 0 45.6666666667 25 57 75 c 2
 354 1359 l 2
 365.333333333 1409 394.333333333 1434 441 1434 c 2
 593 1434 l 2
 639.666666667 1434 657.333333333 1409 646 1359 c 2
 470 596 l 2
 461.333333333 557.333333333 450.333333333 517.333333333 437 476 c 25
 444 476 l 17
 1129 1364 l 2
 1165 1410.66666667 1213.66666667 1434 1275 1434 c 2
 1473 1434 l 2
 1519.66666667 1434 1537.33333333 1409 1526 1359 c 2
 1229 75 l 2
 1217.66666667 25 1188.66666667 0 1142 0 c 2
 990 0 l 2
 943.333333333 0 925.666666667 25 937 75 c 2
 1113 838 l 2
 1121.66666667 876.666666667 1132.66666667 916.666666667 1146 958 c 9
 1139 958 l 17
 454 70 l 2
 418 23.3333333333 369.333333333 0 308 0 c 2
 110 0 l 2
EndSplineSet
Validated: 524321
EndChar

StartChar: afii10049
Encoding: 1071 1071 111
Width: 1416
GlyphClass: 1
Flags: W
HStem: 0 21G<-0.333333 260.667 890.667 1089.33> 573 244<780.677 976> 1190 244<643.818 1119>
VStem: 243 296<878.179 1101.89>
LayerCount: 2
Back
SplineSet
13 86 m 2
 301 406 l 2
 327 434.666666667 367.833333333 473.833333333 423.5 523.5 c 128
 479.166666667 573.166666667 531.333333333 610.666666667 580 636 c 1
 580 638 l 1
 447.333333333 644.666666667 353 684.5 297 757.5 c 128
 241 830.5 224 915 246 1011 c 256
 278 1149 348.333333333 1254 457 1326 c 128
 565.666666667 1398 727.666666667 1434 943 1434 c 2
 1407 1434 l 2
 1453.66666667 1434 1471.33333333 1409 1460 1359 c 2
 1163 75 l 2
 1151.66666667 25 1122.66666667 0 1076 0 c 2
 924 0 l 2
 877.333333333 0 859.666666667 25 871 75 c 2
 986 573 l 1
 925 573 l 2
 860.333333333 573 804.5 556.333333333 757.5 523 c 128
 710.5 489.666666667 660.333333333 442.666666667 607 382 c 2
 324 59 l 2
 289.333333333 19.6666666667 254.666666667 0 220 0 c 2
 31 0 l 2
 -33 0 -39 28.6666666667 13 86 c 2
543 1013 m 256
 523 925.666666667 546.166666667 871.166666667 612.5 849.5 c 128
 678.833333333 827.833333333 759 817 853 817 c 2
 1043 817 l 1
 1129 1190 l 1
 901 1190 l 2
 800.333333333 1190 719.166666667 1176.66666667 657.5 1150 c 128
 595.833333333 1123.33333333 557.666666667 1077.66666667 543 1013 c 256
EndSplineSet
Fore
SplineSet
31 0 m 2
 -31.6666666667 0 -37.6666666667 28.6666666667 13 86 c 2
 295 407 l 2
 337.666666667 455.666666667 381.166666667 497.5 425.5 532.5 c 0
 469.833333333 567.5 521.333333333 602 580 636 c 1
 580 638 l 1
 479.333333333 644.666666667 398 680 336 744 c 0
 274 808 243 881 243 963 c 256
 243 1115 299.5 1231.5 412.5 1312.5 c 0
 525.5 1393.5 699 1434 933 1434 c 2
 1397 1434 l 2
 1443.66666667 1434 1461.33333333 1409 1450 1359 c 2
 1153 75 l 2
 1141.66666667 25 1112.66666667 0 1066 0 c 2
 914 0 l 2
 867.333333333 0 849.666666667 25 861 75 c 2
 976 573 l 1
 931 573 l 2
 872.333333333 573 820.833333333 557.166666667 776.5 525.5 c 0
 732.166666667 493.833333333 682.333333333 446 627 382 c 2
 347 59 l 2
 313 19.6666666667 278.333333333 0 243 0 c 2
 31 0 l 2
539 983 m 256
 539 925.666666667 564.166666667 883.666666667 614.5 857 c 0
 664.833333333 830.333333333 743.666666667 817 851 817 c 2
 1033 817 l 1
 1119 1190 l 1
 901 1190 l 2
 778.333333333 1190 687.333333333 1172.66666667 628 1138 c 0
 568.666666667 1103.33333333 539 1051.66666667 539 983 c 256
EndSplineSet
Validated: 524321
EndChar

StartChar: S
Encoding: 83 83 112
Width: 1299
GlyphClass: 1
Flags: W
HStem: -34 236<382.076 796.101> 1232 236<591.796 977.352>
VStem: 240 290<947.055 1171.42> 881 296<278.129 505.154>
LayerCount: 2
Fore
SplineSet
84 114 m 256
 45.3333333333 148 38.6666666667 180.666666667 64 212 c 258
 151 319 l 258
 177.666666667 351.666666667 214.666666667 350 262 314 c 256
 299.333333333 286 347.166666667 260.333333333 405.5 237 c 0
 463.833333333 213.666666667 527 202 595 202 c 256
 663 202 718.5 211 761.5 229 c 0
 804.5 247 835.166666667 270.333333333 853.5 299 c 0
 871.833333333 327.666666667 881 360.333333333 881 397 c 256
 881 423 874.166666667 448.333333333 860.5 473 c 0
 846.833333333 497.666666667 827.833333333 516.666666667 803.5 530 c 0
 779.166666667 543.333333333 751.333333333 555.666666667 720 567 c 256
 680 581.666666667 641 596.5 603 611.5 c 0
 565 626.5 520 646.666666667 468 672 c 256
 426 692.666666667 390.5 713.833333333 361.5 735.5 c 0
 332.5 757.166666667 305 793.333333333 279 844 c 0
 253 894.666666667 240 958.333333333 240 1035 c 256
 240 1119.66666667 268.5 1200.5 325.5 1277.5 c 0
 382.5 1354.5 453.166666667 1405.5 537.5 1430.5 c 0
 621.833333333 1455.5 709 1468 799 1468 c 256
 889.666666667 1468 974.166666667 1455.66666667 1052.5 1431 c 24
 1130.83333333 1406.33333333 1189.33333333 1375 1228 1337 c 256
 1266.66666667 1299 1273.66666667 1266 1249 1238 c 258
 1161 1138 l 258
 1132.33333333 1105.33333333 1095.66666667 1106.33333333 1051 1141 c 256
 1017 1168.33333333 976.333333333 1190.33333333 929 1207 c 0
 881.666666667 1223.66666667 829.666666667 1232 773 1232 c 256
 716.333333333 1232 671.5 1226 638.5 1214 c 0
 605.5 1202 579.166666667 1182 559.5 1154 c 0
 539.833333333 1126 530 1097.33333333 530 1068 c 256
 530 1044.66666667 534 1022.16666667 542 1000.5 c 0
 550 978.833333333 562.333333333 959 579 941 c 0
 595.666666667 923 619.333333333 906.666666667 650 892 c 256
 692.666666667 872 741.666666667 853.833333333 797 837.5 c 0
 852.333333333 821.166666667 897.666666667 805.666666667 933 791 c 256
 985 769.666666667 1029.83333333 741.5 1067.5 706.5 c 0
 1105.16666667 671.5 1132.83333333 629.333333333 1150.5 580 c 0
 1168.16666667 530.666666667 1177 476 1177 416 c 256
 1177 333.333333333 1155.16666667 260.333333333 1111.5 197 c 0
 1067.83333333 133.666666667 1001.66666667 79.3333333333 913 34 c 0
 824.333333333 -11.3333333333 706.333333333 -34 559 -34 c 256
 440.333333333 -34 346.833333333 -22.8333333333 278.5 -0.5 c 24
 210.166666667 21.8333333333 145.333333333 60 84 114 c 256
EndSplineSet
Validated: 524321
EndChar

StartChar: afii10025
Encoding: 1047 1047 113
Width: 1354
GlyphClass: 1
Flags: W
HStem: -34 236<394.097 789.963> 636 236<444.104 816.434> 1232 236<503.405 918.066>
VStem: 916 312<299.875 544.023> 975 296<960.902 1178.24>
LayerCount: 2
Back
SplineSet
93 0 m 6
 39.6666666667 0 18.6666666667 25 30 75 c 6
 327 1359 l 6
 338.333333333 1409 370.666666667 1434 424 1434 c 6
 744 1434 l 6
 942 1434 1082.66666667 1401 1166 1335 c 132
 1249.33333333 1269 1291 1182.66666667 1291 1076 c 260
 1291 972 1249.33333333 893.333333333 1166 840 c 132
 1082.66666667 786.666666667 1001 756.666666667 921 750 c 5
 921 747 l 5
 998.333333333 739.666666667 1068.33333333 710 1131 658 c 132
 1193.66666667 606 1225 527.666666667 1225 423 c 260
 1225 303.666666667 1163.66666667 203.333333333 1041 122 c 132
 918.333333333 40.6666666667 739 0 503 0 c 6
 93 0 l 6
361 244 m 5
 527 244 l 6
 680.333333333 244 783 259.333333333 835 290 c 132
 887 320.666666667 913 374.666666667 913 452 c 260
 913 513.333333333 887.833333333 556.333333333 837.5 581 c 132
 787.166666667 605.666666667 699.333333333 618 574 618 c 6
 448 618 l 5
 361 244 l 5
502 854 m 5
 653 854 l 6
 759.666666667 854 843.333333333 873.666666667 904 913 c 132
 964.666666667 952.333333333 995 1000 995 1056 c 260
 995 1106.66666667 973.333333333 1141.66666667 930 1161 c 132
 886.666666667 1180.33333333 807 1190 691 1190 c 6
 580 1190 l 5
 502 854 l 5
86 156 m 0
 56 202 57.6666666667 239.333333333 91 268 c 2
 176 342 l 2
 211.333333333 372.666666667 250.333333333 364.666666667 293 318 c 0
 329 278 376.166666667 248.666666667 434.5 230 c 128
 492.833333333 211.333333333 546 202 594 202 c 0
 747.333333333 202 858.833333333 243.333333333 928.5 326 c 128
 998.166666667 408.666666667 1040.66666667 507.333333333 1056 622 c 1
 523 622 l 2
 473 622 453 643.666666667 463 687 c 2
 490 805 l 2
 500 848.333333333 530 870 580 870 c 2
 1079 870 l 1
 1087 976 1061 1062.83333333 1001 1130.5 c 128
 941 1198.16666667 842 1232 704 1232 c 0
 640 1232 582.166666667 1219.5 530.5 1194.5 c 128
 478.833333333 1169.5 437.666666667 1140.33333333 407 1107 c 0
 378.333333333 1075.66666667 349.333333333 1071.66666667 320 1095 c 2
 221 1172 l 2
 181 1203.33333333 175 1236 203 1270 c 0
 263 1342 339 1393 431 1423 c 128
 523 1453 621.666666667 1468 727 1468 c 0
 939.666666667 1468 1102.66666667 1414.83333333 1216 1308.5 c 128
 1329.33333333 1202.16666667 1386 1048 1386 846 c 0
 1386 580 1320.83333333 366.833333333 1190.5 206.5 c 128
 1060.16666667 46.1666666667 853.333333333 -34 570 -34 c 0
 443.333333333 -34 341.5 -18.6666666667 264.5 12 c 128
 187.5 42.6666666667 128 90.6666666667 86 156 c 0
EndSplineSet
Fore
SplineSet
87 156 m 256xf0
 54.3333333333 198.666666667 51.3333333333 231.666666667 78 255 c 258
 181 344 l 258
 215.666666667 374 252.333333333 368.333333333 291 327 c 256
 323 293 361.5 263.666666667 406.5 239 c 0
 451.5 214.333333333 516.666666667 202 602 202 c 256
 666.666666667 202 735.166666667 219.333333333 807.5 254 c 0
 879.833333333 288.666666667 916 343.333333333 916 418 c 256xf0
 916 483.333333333 890.333333333 536 839 576 c 0
 787.666666667 616 721 636 639 636 c 2
 473 636 l 2
 422.333333333 636 402 657 412 699 c 2
 437 807 l 2
 447 850.333333333 477 872 527 872 c 2
 651 872 l 2
 777 872 862.5 893.166666667 907.5 935.5 c 0
 952.5 977.833333333 975 1025 975 1077 c 256
 975 1137 948.833333333 1177.83333333 896.5 1199.5 c 0
 844.166666667 1221.16666667 772.666666667 1232 682 1232 c 256
 625.333333333 1232 572 1220.16666667 522 1196.5 c 0
 472 1172.83333333 434 1149 408 1125 c 256
 367.333333333 1088.33333333 330.333333333 1085.33333333 297 1116 c 258
 210 1197 l 258
 176 1229 180.333333333 1262.33333333 223 1297 c 256
 294.333333333 1355.66666667 369 1398.83333333 447 1426.5 c 0
 525 1454.16666667 610 1468 702 1468 c 256
 892 1468 1034.33333333 1430.83333333 1129 1356.5 c 0
 1223.66666667 1282.16666667 1271 1198 1271 1104 c 256xe8
 1271 1004 1240.66666667 924.5 1180 865.5 c 0
 1119.33333333 806.5 1037.33333333 768.666666667 934 752 c 1
 933 748 l 1
 1023 727.333333333 1094.66666667 687 1148 627 c 0
 1201.33333333 567 1228 500.333333333 1228 427 c 256
 1228 304.333333333 1166.33333333 196.833333333 1043 104.5 c 0
 919.666666667 12.1666666667 771 -34 597 -34 c 256
 445 -34 333.5 -17.3333333333 262.5 16 c 0
 191.5 49.3333333333 133 96 87 156 c 256xf0
EndSplineSet
Validated: 8912929
EndChar

StartChar: afii10021
Encoding: 1044 1044 114
Width: 1538
GlyphClass: 1
Flags: W
HStem: -370 21G<-105 65 1063 1233> 0 248<442 933> 1186 248<824 1150>
LayerCount: 2
Back
SplineSet
-85 -370 m 2
 -125 -370 -139.666666667 -346.666666667 -129 -300 c 2
 -20 173 l 2
 -8.66666666667 223 27 248 87 248 c 2
 130 248 l 1
 238 338.666666667 320.833333333 439.333333333 378.5 550 c 128
 436.166666667 660.666666667 494.666666667 844 554 1100 c 2
 614 1359 l 2
 625.333333333 1409 654.333333333 1434 701 1434 c 2
 1441 1434 l 2
 1487.66666667 1434 1505.33333333 1409 1494 1359 c 2
 1237 248 l 1
 1337 248 l 2
 1397 248 1421.33333333 223 1410 173 c 2
 1301 -300 l 2
 1290.33333333 -346.666666667 1265 -370 1225 -370 c 2
 1095 -370 l 2
 1055 -370 1040.33333333 -346.666666667 1051 -300 c 2
 1120 0 l 1
 190 0 l 1
 121 -300 l 2
 110.333333333 -346.666666667 85 -370 45 -370 c 2
 -85 -370 l 2
426 248 m 1
 945 248 l 1
 1162 1186 l 1
 824 1186 l 1
 791 1044 l 2
 736.333333333 806.666666667 677.166666667 624 613.5 496 c 128
 549.833333333 368 487.333333333 285.333333333 426 248 c 1
EndSplineSet
Fore
SplineSet
-85 -370 m 2
 -125 -370 -139.666666667 -346.666666667 -129 -300 c 2
 -20 173 l 2
 -8.66666666667 223 27 248 87 248 c 2
 130 248 l 1
 239.333333333 336.666666667 325 447.333333333 387 580 c 0
 449 712.666666667 504.666666667 886 554 1100 c 2
 614 1359 l 2
 625.333333333 1409 654.333333333 1434 701 1434 c 2
 1429 1434 l 2
 1475.66666667 1434 1493.33333333 1409 1482 1359 c 2
 1225 248 l 1
 1325 248 l 2
 1385 248 1409.33333333 223 1398 173 c 2
 1289 -300 l 2
 1278.33333333 -346.666666667 1253 -370 1213 -370 c 2
 1083 -370 l 2
 1043 -370 1028.33333333 -346.666666667 1039 -300 c 2
 1108 0 l 1
 190 0 l 1
 121 -300 l 2
 110.333333333 -346.666666667 85 -370 45 -370 c 2
 -85 -370 l 2
442 248 m 1
 933 248 l 1
 1150 1186 l 1
 824 1186 l 1
 791 1044 l 2
 731.666666667 790 674 603 618 483 c 0
 562 363 503.333333333 284.666666667 442 248 c 1
EndSplineSet
Validated: 524321
EndChar

StartChar: afii10047
Encoding: 1069 1069 115
Width: 1388
GlyphClass: 1
Flags: W
HStem: -34 236<393.357 803.719> 622 248<498.039 1044> 1232 236<519.105 930.01>
VStem: 1067 307<870 1088.36>
LayerCount: 2
Back
SplineSet
1370 846 m 256
 1370 614 1302.66666667 409.333333333 1168 232 c 128
 1033.33333333 54.6666666667 836.666666667 -34 578 -34 c 256
 458 -34 356 -13.1666666667 272 28.5 c 128
 188 70.1666666667 127.333333333 121.666666667 90 183 c 256
 63.3333333333 227 69 261.666666667 107 287 c 258
 231 370 l 258
 261.666666667 390.666666667 293.666666667 378.666666667 327 334 c 256
 360.333333333 290 402 257 452 235 c 128
 502 213 551 202 599 202 c 256
 739.666666667 202 851.333333333 266 934 394 c 128
 1016.66666667 522 1058 685.333333333 1058 884 c 256
 1058 984.666666667 1032 1067.83333333 980 1133.5 c 128
 928 1199.16666667 839 1232 713 1232 c 256
 641 1232 581 1218.16666667 533 1190.5 c 152
 485 1162.83333333 447.333333333 1130 420 1092 c 256
 384.666666667 1043.33333333 351.333333333 1027.66666667 320 1045 c 258
 193 1115 l 258
 151.666666667 1137.66666667 145.666666667 1170.33333333 175 1213 c 256
 225.666666667 1286.33333333 298 1347.16666667 392 1395.5 c 152
 486 1443.83333333 600 1468 734 1468 c 256
 934 1468 1090 1416.83333333 1202 1314.5 c 128
 1314 1212.16666667 1370 1056 1370 846 c 256
1145 622 m 257
 503 622 l 2
 453 622 433 643.666666667 443 687 c 2
 470 805 l 2
 480 848.333333333 510 870 560 870 c 2
 1198 870 l 257
 1145 622 l 257
EndSplineSet
Fore
SplineSet
86 156 m 0
 56 202 57.6666666667 239.333333333 91 268 c 2
 176 342 l 2
 211.333333333 372.666666667 250.333333333 364.666666667 293 318 c 0
 329 278 376.166666667 248.666666667 434.5 230 c 0
 492.833333333 211.333333333 546 202 594 202 c 0
 732 202 836.5 244.333333333 907.5 329 c 0
 978.5 413.666666667 1024 511.333333333 1044 622 c 1
 523 622 l 2
 473 622 453 643.666666667 463 687 c 2
 490 805 l 2
 500 848.333333333 530 870 580 870 c 2
 1067 870 l 1
 1067 992 1040.16666667 1082.83333333 986.5 1142.5 c 0
 932.833333333 1202.16666667 845.333333333 1232 724 1232 c 0
 657.333333333 1232 597.5 1221.16666667 544.5 1199.5 c 0
 491.5 1177.83333333 445.666666667 1147 407 1107 c 0
 377.666666667 1077 348.666666667 1073 320 1095 c 2
 221 1172 l 2
 181 1203.33333333 175 1236 203 1270 c 0
 263 1342 341.166666667 1393 437.5 1423 c 0
 533.833333333 1453 637 1468 747 1468 c 0
 959.666666667 1468 1117.33333333 1414.83333333 1220 1308.5 c 0
 1322.66666667 1202.16666667 1374 1048 1374 846 c 0
 1374 598 1307.5 389.333333333 1174.5 220 c 0
 1041.5 50.6666666667 840 -34 570 -34 c 0
 443.333333333 -34 341.5 -18.6666666667 264.5 12 c 0
 187.5 42.6666666667 128 90.6666666667 86 156 c 0
EndSplineSet
Validated: 524321
EndChar

StartChar: afii10037
Encoding: 1059 1059 120
Width: 1382
GlyphClass: 1
Flags: W
HStem: -34 236<127.162 487.917> 1414 20G<289.333 489.667 1269.33 1503.33>
LayerCount: 2
Back
SplineSet
125 0 m 256
 88.4889333333 18 79.1582 44 97.0078 78 c 2
 163.79 207 l 2
 179.382666667 237 205.588333333 243.666666667 242.407 227 c 256
 279.893 210.333333333 314.302666667 202 345.636 202 c 256
 384.302666667 202 419.533666667 207.333333333 451.329 218 c 128
 483.125 228.666666667 511.409666667 253 536.183 291 c 2
 557.801 324 l 9
 253.21 1348 l 18
 236.446666667 1405.33333333 258.731666667 1434 320.065 1434 c 2
 497.065 1434 l 2
 535.731666667 1434 561.088333333 1411 573.135 1365 c 10
 730.074 754 l 2
 740.326666667 714.666666667 745.989666667 675.666666667 747.063 637 c 128
 748.136333333 598.333333333 747.107 560.666666667 743.975 524 c 1
 747.975 524 l 1
 762.901666667 562.666666667 778.790333333 601.166666667 795.641 639.5 c 128
 812.490333333 677.833333333 831.968 716 854.074 754 c 2
 1216.13 1365 l 18
 1243.41666667 1411 1279.39333333 1434 1324.06 1434 c 2
 1496.06 1434 l 2
 1550.72666667 1434 1559.77666667 1405.33333333 1523.21 1348 c 10
 871.417 331 l 2
 776.582333333 183 691.329 85.1666666667 615.657 37.5 c 128
 539.985666667 -10.1666666667 442.816666667 -34 324.15 -34 c 256
 238.15 -34 171.766666667 -22.6666666667 125 0 c 256
EndSplineSet
Fore
SplineSet
253 1348 m 18
 236.333333333 1405.33333333 258.666666667 1434 320 1434 c 2
 470 1434 l 2
 509.333333333 1434 534.666666667 1411 546 1365 c 10
 698 754 l 2
 706 722 712.333333333 687.666666667 717 651 c 0
 721.666666667 614.333333333 724.666666667 572.666666667 726 526 c 1
 730 526 l 1
 744.666666667 575.333333333 760.833333333 617.166666667 778.5 651.5 c 0
 796.166666667 685.833333333 814.666666667 720 834 754 c 2
 1184 1365 l 18
 1210.66666667 1411 1246.66666667 1434 1292 1434 c 2
 1476 1434 l 2
 1530.66666667 1434 1539.66666667 1405.33333333 1503 1348 c 10
 851 331 l 2
 737 153 642.666666667 47.6666666667 568 15 c 0
 493.333333333 -17.6666666667 408.333333333 -34 313 -34 c 256
 235 -34 172.666666667 -22.6666666667 126 0 c 256
 94.6666666667 15.3333333333 85.3333333333 41.3333333333 98 78 c 2
 143 206 l 2
 154.333333333 238 180.333333333 244.666666667 221 226 c 256
 257 210 296 202 338 202 c 256
 370 202 402.5 206.5 435.5 215.5 c 0
 468.5 224.5 498.666666667 249.666666667 526 291 c 2
 548 324 l 9
 253 1348 l 18
EndSplineSet
Validated: 524321
EndChar

StartChar: cyrBreve
Encoding: 63185 63185 122
Width: 1492
GlyphClass: 1
Flags: W
HStem: 1540 158<887.136 1155.23>
VStem: 636 235<1756 1871.62>
LayerCount: 2
Back
SplineSet
636 1809 m 2
 643.333333333 1854.33333333 669.333333333 1877 714 1877 c 2
 822 1877 l 2
 862 1877 879.666666667 1861 875 1829 c 2
 871 1796 l 2
 867.666666667 1773.33333333 876.5 1751.33333333 897.5 1730 c 128
 918.5 1708.66666667 958.666666667 1698 1018 1698 c 256
 1077.33333333 1698 1122.5 1708.66666667 1153.5 1730 c 128
 1184.5 1751.33333333 1203.66666667 1773.33333333 1211 1796 c 2
 1221 1829 l 2
 1231 1861 1256 1877 1296 1877 c 2
 1404 1877 l 2
 1449.33333333 1877 1465.33333333 1854.33333333 1452 1809 c 2
 1435 1756 l 2
 1410.33333333 1676 1353.66666667 1620 1265 1588 c 128
 1176.33333333 1556 1082 1540 982 1540 c 256
 882 1540 794.833333333 1556 720.5 1588 c 128
 646.166666667 1620 615 1676 627 1756 c 2
 636 1809 l 2
EndSplineSet
Fore
SplineSet
636 1809 m 2
 642.666666667 1854.33333333 668.666666667 1877 714 1877 c 2
 822 1877 l 2
 861.333333333 1877 879 1861 875 1829 c 2
 871 1796 l 2
 868.333333333 1772.66666667 874.5 1750.5 889.5 1729.5 c 0
 904.5 1708.5 937.333333333 1698 988 1698 c 256
 1066.66666667 1698 1133 1720.33333333 1187 1765 c 0
 1241 1809.66666667 1282.33333333 1850 1311 1886 c 256
 1336.33333333 1918 1362.33333333 1924 1389 1904 c 258
 1443 1863 l 258
 1465.66666667 1845.66666667 1466.33333333 1822.33333333 1445 1793 c 256
 1397.66666667 1727 1334 1668.33333333 1254 1617 c 0
 1174 1565.66666667 1073 1540 951 1540 c 256
 843.666666667 1540 760.666666667 1561 702 1603 c 0
 643.333333333 1645 618.666666667 1696 628 1756 c 2
 636 1809 l 2
EndSplineSet
Validated: 524321
EndChar

StartChar: dieresis
Encoding: 168 168 123
Width: 614
GlyphClass: 1
Flags: W
HStem: 1206 236<180.156 378.844 606.156 804.844>
LayerCount: 2
Back
SplineSet
61 1240 m 2
 31 1240 16 1255 16 1285 c 2
 16 1371 l 2
 16 1401 31 1416 61 1416 c 2
 147 1416 l 2
 177 1416 192 1401 192 1371 c 2
 192 1285 l 2
 192 1255 177 1240 147 1240 c 2
 61 1240 l 2
467 1240 m 2
 437 1240 422 1255 422 1285 c 2
 422 1371 l 2
 422 1401 437 1416 467 1416 c 2
 553 1416 l 2
 583 1416 598 1401 598 1371 c 2
 598 1285 l 2
 598 1255 583 1240 553 1240 c 2
 467 1240 l 2
EndSplineSet
Fore
SplineSet
194 1206 m 2
 154 1206 138.666666667 1226 148 1266 c 2
 175 1382 l 2
 184.333333333 1422 209 1442 249 1442 c 2
 365 1442 l 2
 405 1442 420.333333333 1422 411 1382 c 2
 384 1266 l 2
 374.666666667 1226 350 1206 310 1206 c 2
 194 1206 l 2
620 1206 m 2
 580 1206 564.666666667 1226 574 1266 c 2
 601 1382 l 2
 610.333333333 1422 635 1442 675 1442 c 2
 791 1442 l 2
 831 1442 846.333333333 1422 837 1382 c 2
 810 1266 l 2
 800.666666667 1226 776 1206 736 1206 c 2
 620 1206 l 2
EndSplineSet
Validated: 524321
EndChar

StartChar: dieresis.cap
Encoding: 63179 63179 125
Width: 820
GlyphClass: 1
Flags: W
HStem: 1530 256<296.875 541.967 804.875 1049.97>
LayerCount: 2
Back
SplineSet
125 1550 m 2
 95 1550 80 1565 80 1595 c 2
 80 1687 l 2
 80 1717 95 1732 125 1732 c 2
 217 1732 l 2
 247 1732 262 1717 262 1687 c 2
 262 1595 l 2
 262 1565 247 1550 217 1550 c 2
 125 1550 l 2
603 1550 m 2
 573 1550 558 1565 558 1595 c 2
 558 1687 l 2
 558 1717 573 1732 603 1732 c 2
 695 1732 l 2
 725 1732 740 1717 740 1687 c 2
 740 1595 l 2
 740 1565 725 1550 695 1550 c 2
 603 1550 l 2
EndSplineSet
Fore
SplineSet
313 1530 m 2
 266.333333333 1530 249 1555 261 1605 c 2
 285 1711 l 2
 296.333333333 1761 325.333333333 1786 372 1786 c 2
 524 1786 l 2
 570.666666667 1786 588.333333333 1761 577 1711 c 2
 553 1605 l 2
 541.666666667 1555 512.333333333 1530 465 1530 c 2
 313 1530 l 2
821 1530 m 2
 774.333333333 1530 757 1555 769 1605 c 2
 793 1711 l 2
 804.333333333 1761 833.333333333 1786 880 1786 c 2
 1032 1786 l 2
 1078.66666667 1786 1096.33333333 1761 1085 1711 c 2
 1061 1605 l 2
 1049.66666667 1555 1020.33333333 1530 973 1530 c 2
 821 1530 l 2
EndSplineSet
Validated: 524321
EndChar

StartChar: r
Encoding: 114 114 129
Width: 786
GlyphClass: 1
Flags: W
HStem: 0 21G<56 256> 874 196<628.846 843.872> 1030 20G<298.333 492.333>
LayerCount: 2
Back
SplineSet
76 0 m 2
 36 0 20.6666666667 20 30 60 c 2
 245 990 l 2
 254.333333333 1030 278.666666667 1050 318 1050 c 2
 476 1050 l 2
 516 1050 531.666666667 1030 523 990 c 2
 504 908 l 1
 508 908 l 1
 535.333333333 950.666666667 573 988.333333333 621 1021 c 128
 669 1053.66666667 720.666666667 1070 776 1070 c 256
 814 1070 844.333333333 1065.33333333 867 1056 c 256
 888.333333333 1047.33333333 893.666666667 1031.33333333 883 1008 c 2
 827 889 l 2
 815 862.333333333 795.333333333 854.333333333 768 865 c 256
 752 871 736 874 720 874 c 256
 656 874 594.166666667 835.666666667 534.5 759 c 128
 474.833333333 682.333333333 428 570.666666667 394 424 c 2
 310 60 l 2
 300.666666667 20 276 0 236 0 c 2
 76 0 l 2
EndSplineSet
Fore
SplineSet
76 0 m 2xc0
 36 0 20.6666666667 20 30 60 c 2
 245 990 l 2
 254.333333333 1030 278.666666667 1050 318 1050 c 2
 472 1050 l 2xa0
 512.666666667 1050 528.333333333 1030 519 990 c 2
 491 867 l 1
 495 867 l 1
 523 923.666666667 561 971.666666667 609 1011 c 0
 657 1050.33333333 710.333333333 1070 769 1070 c 256
 807.666666667 1070 838.333333333 1065.33333333 861 1056 c 256
 880.333333333 1048 885.666666667 1032 877 1008 c 2
 833 889 l 2
 823 861.666666667 803.333333333 853.666666667 774 865 c 256
 758 871 740 874 720 874 c 256
 660 874 597.5 828.666666667 532.5 738 c 0
 467.5 647.333333333 415.333333333 517 376 347 c 2
 310 60 l 2
 300.666666667 20 276 0 236 0 c 2
 76 0 l 2xc0
EndSplineSet
Validated: 8912929
EndChar

StartChar: F
Encoding: 70 70 130
Width: 1176
GlyphClass: 1
Flags: W
HStem: 0 21G<86.6667 285.333> 590 248<525 1036.96> 1186 248<606 1256.96>
LayerCount: 2
Fore
SplineSet
110 0 m 2
 63.3333333333 0 45.6666666667 25 57 75 c 2
 354 1359 l 2
 365.333333333 1409 394.333333333 1434 441 1434 c 2
 1232 1434 l 2
 1282 1434 1302 1412.33333333 1292 1369 c 2
 1265 1251 l 2
 1255 1207.66666667 1225 1186 1175 1186 c 2
 606 1186 l 9
 525 838 l 1
 1012 838 l 2
 1062 838 1082 816.333333333 1072 773 c 2
 1045 655 l 2
 1035 611.666666667 1005 590 955 590 c 2
 468 590 l 1
 349 75 l 2
 337.666666667 25 308.666666667 0 262 0 c 2
 110 0 l 2
EndSplineSet
Validated: 524321
EndChar

StartChar: w
Encoding: 119 119 133
Width: 1604
GlyphClass: 1
Flags: W
HStem: 0 21G<237 454.667 909 1126.67> 1030 20G<178.667 370 805.333 1019 1454.33 1669.33>
VStem: 146 248<717.606 1049.69> 870 187<238 811>
LayerCount: 2
Back
SplineSet
146.404 972 m 2
 143.742 1024 160.744333333 1050 197.411 1050 c 2
 366.411 1050 l 2
 398.411 1050 414.486666667 1033 414.638 999 c 2
 414.349 413 l 2
 414.499 379 413.957333333 346.333333333 412.724 315 c 128
 411.49 283.666666667 409.230666667 258 405.946 238 c 1
 411.946 238 l 1
 417.897333333 258 427.605 284.166666667 441.069 316.5 c 128
 454.534333333 348.833333333 468.961 381 484.349 413 c 2
 761.638 999 l 2
 777.487333333 1033 801.412 1050 833.412 1050 c 2
 1015.41 1050 l 2
 1047.41 1050 1063.48666667 1033 1063.64 999 c 2
 1070.35 413 l 2
 1070.96333333 381 1070.53666667 348.833333333 1069.07 316.5 c 128
 1067.60333333 284.166666667 1065.23 258 1061.95 238 c 1
 1067.95 238 l 1
 1073.89666667 258 1083.48666667 283.666666667 1096.72 315 c 128
 1109.95333333 346.333333333 1124.49666667 379 1140.35 413 c 2
 1410.64 999 l 2
 1426.48666667 1033 1450.41 1050 1482.41 1050 c 2
 1651.41 1050 l 2
 1688.07666667 1050 1693.07333333 1024 1666.4 972 c 2
 1197.47 67 l 2
 1174.49 22.3333333333 1145 0 1109 0 c 2
 928 0 l 2
 890 0 870.822666667 22.3333333333 870.468 67 c 2
 862.373 660 l 2
 861.555666667 694 861.699666667 721.333333333 862.805 742 c 128
 863.909 762.666666667 866.718666667 785.666666667 871.234 811 c 1
 867.234 811 l 1
 860.052 785.666666667 852.242333333 762.666666667 843.805 742 c 128
 835.366333333 721.333333333 822.889 694 806.373 660 c 2
 524.468 67 l 2
 503.489333333 22.3333333333 474 0 436 0 c 2
 255 0 l 2
 219 0 199.822666667 22.3333333333 197.468 67 c 2
 146.404 972 l 2
EndSplineSet
Fore
SplineSet
146 972 m 2
 143.333333333 1024 160.333333333 1050 197 1050 c 2
 354 1050 l 2
 386 1050 402.333333333 1033 403 999 c 2
 402 413 l 2
 402 375 401.5 341.333333333 400.5 312 c 0
 399.5 282.666666667 397.333333333 258 394 238 c 1
 400 238 l 1
 406 258 415.166666667 283 427.5 313 c 0
 439.833333333 343 454.666666667 376.333333333 472 413 c 2
 750 999 l 2
 766 1033 789.666666667 1050 821 1050 c 2
 1003 1050 l 2
 1035 1050 1051.33333333 1033 1052 999 c 2
 1058 413 l 2
 1058.66666667 376.333333333 1058.33333333 343 1057 313 c 0
 1055.66666667 283 1053.33333333 258 1050 238 c 1
 1056 238 l 1
 1062 258 1071.16666667 282.666666667 1083.5 312 c 0
 1095.83333333 341.333333333 1110.66666667 375 1128 413 c 2
 1399 999 l 2
 1415 1033 1438.66666667 1050 1470 1050 c 2
 1651 1050 l 2
 1687.66666667 1050 1692.66666667 1024 1666 972 c 2
 1197 67 l 2
 1173.66666667 22.3333333333 1144.33333333 0 1109 0 c 2
 928 0 l 2
 890 0 870.666666667 22.3333333333 870 67 c 2
 862 660 l 2
 861.333333333 699.333333333 861.666666667 728 863 746 c 0
 864.333333333 764 867 785.666666667 871 811 c 1
 867 811 l 1
 859.666666667 785.666666667 852.5 764 845.5 746 c 0
 838.5 728 825.333333333 699.333333333 806 660 c 2
 524 67 l 2
 502.666666667 22.3333333333 473.333333333 0 436 0 c 2
 255 0 l 2
 219 0 199.666666667 22.3333333333 197 67 c 2
 146 972 l 2
EndSplineSet
Validated: 524321
EndChar

StartChar: L
Encoding: 76 76 134
Width: 1162
GlyphClass: 1
Flags: W
HStem: 0 248<389 996.961> 1414 20G<417.667 623>
LayerCount: 2
Fore
SplineSet
110 0 m 2
 63.3333333333 0 45.6666666667 25 57 75 c 2
 354 1359 l 2
 365.333333333 1409 394.333333333 1434 441 1434 c 2
 603 1434 l 2
 643 1434 657.333333333 1409 646 1359 c 2
 389 248 l 17
 972 248 l 2
 1022 248 1042 226.333333333 1032 183 c 2
 1005 65 l 2
 995 21.6666666667 965 0 915 0 c 2
 110 0 l 2
EndSplineSet
Validated: 524321
EndChar

